<?xml version="1.0" standalone="no"?>
<!DOCTYPE svg PUBLIC "-//W3C//DTD SVG 1.1//EN" "http://www.w3.org/Graphics/SVG/1.1/DTD/svg11.dtd" >
<svg xmlns="http://www.w3.org/2000/svg">
<metadata></metadata>
<defs>
<font id="sailregular" horiz-adv-x="903" >
<font-face units-per-em="2048" ascent="1638" descent="-410" />
<missing-glyph horiz-adv-x="436" />
<glyph horiz-adv-x="2048" />
<glyph horiz-adv-x="2048" />
<glyph unicode="&#xd;" horiz-adv-x="2048" />
<glyph unicode=" "  horiz-adv-x="436" />
<glyph unicode="&#x09;" horiz-adv-x="436" />
<glyph unicode="&#xa0;" horiz-adv-x="436" />
<glyph unicode="!" horiz-adv-x="417" d="M113 86q0 43 29.5 73.5t72.5 30.5t73.5 -30.5t30.5 -73.5t-30.5 -72.5t-73.5 -29.5t-72.5 29.5t-29.5 72.5zM227 256l179 1001l59 -8l-182 -999z" />
<glyph unicode="&#x22;" horiz-adv-x="591" d="M225 729q3 77 30.5 162.5t58.5 150t57 152t26 168.5h88q0 -72 -27 -162.5t-60 -162.5t-60 -158t-27 -150h-86zM492 729q3 77 30.5 162.5t58.5 150t57 152t26 168.5h88q0 -72 -27 -162.5t-60 -162.5t-60 -158t-27 -150h-86z" />
<glyph unicode="#" horiz-adv-x="1198" d="M82 125l8 51h336l68 383h-334l8 51h334l86 461h61l-86 -461h293l86 461h62l-86 -461h327l-8 -51h-328l-67 -383h325l-8 -51h-328l-75 -418h-62l76 418h-293l-76 -418h-61l76 418h-334zM487 176h291l68 383h-291z" />
<glyph unicode="$" horiz-adv-x="1447" d="M172 -53q0 89 41 168.5t123 132.5t188 53q134 0 207 -70q66 -60 66 -155q0 -89 -56.5 -160.5t-140.5 -71.5q-94 0 -149 58q-26 26 -40 62.5t-16 58.5t0 26l39 -2q0 -8 1 -21.5t12 -45t32 -52.5q40 -43 121 -43q68 0 113 59t45 132q0 80 -53 127q-59 59 -181 59 q-71 0 -131.5 -27t-99.5 -72t-60.5 -101t-21.5 -115q0 -144 111 -238q66 -58 134 -82t183 -24q216 0 335.5 87.5t119.5 233.5q0 68 -21.5 125t-57.5 97t-83.5 78.5t-98 68.5t-102 67.5t-95 75.5t-77.5 93.5t-49 119.5q-186 55 -246 232q-44 137 1.5 295t152.5 237l22 -33 q-96 -70 -137.5 -216t-1.5 -271q51 -150 203 -201q-4 23 -4 70q0 228 143 384t367 200l39 219h61l-35 -209q93 6 94 6q184 0 295 -100q95 -89 95 -222q0 -58 -21.5 -112.5t-60.5 -98.5t-100.5 -71t-135.5 -27q-77 0 -131 31q-35 -27 -103.5 -61.5t-144.5 -53.5 q43 -40 117.5 -93t133.5 -96.5t117 -99t91 -125.5t33 -151q0 -228 -175.5 -373t-467.5 -151l-29 -158h-61l28 160q-227 9 -354 121q-123 105 -123 266zM715.5 872q4.5 -60 34 -112.5t77.5 -85.5q78 18 147 51t107 59q-45 41 -69.5 101.5t-24.5 126.5q0 91 45.5 150t126.5 59 q66 0 101.5 -38.5t35.5 -111.5q0 -72 -40 -147.5t-109 -137.5q45 -20 94 -20q86 0 151.5 41.5t96.5 102.5t31 130q0 114 -82 193q-99 90 -269 90q-93 0 -172.5 -27.5t-132.5 -73.5t-90.5 -104.5t-50 -122t-8 -123.5zM1028 1012q0 -60 21.5 -114.5t62.5 -88.5q61 43 102 117 t41 145q0 113 -98 113q-61 0 -95 -47.5t-34 -124.5z" />
<glyph unicode="%" horiz-adv-x="1171" d="M143 485q0 -76 48 -127t120 -51q85 0 154 48t103 112t34 123q0 62 -28.5 97.5t-77.5 35.5q-53 0 -93 -35q-36 -42 -36 -119h34q0 64 29 95q18 24 66 24q32 0 51.5 -27t19.5 -71q0 -84 -64 -156t-126 -72q-90 0 -90 117q0 107 45.5 195t103.5 88v37q-39 0 -87.5 -21.5 t-95.5 -59.5t-78.5 -100t-31.5 -133zM397 -66l477 955l54 -21l-477 -954zM709 162q0 -76 48 -127t120 -51q64 0 120.5 28t92.5 71t56.5 91.5t20.5 91.5q0 62 -28.5 97.5t-77.5 35.5q-53 0 -92 -34q-37 -43 -37 -119h35q-1 63 28 94q19 25 66 25q32 0 52 -27.5t20 -71.5 q0 -84 -64.5 -155.5t-126.5 -71.5q-90 0 -90 117q0 107 45.5 194.5t103.5 87.5v37q-39 0 -87.5 -21.5t-95 -59t-78 -99.5t-31.5 -133z" />
<glyph unicode="&#x26;" horiz-adv-x="1456" d="M113 229q0 75 28.5 138t76 105t99 69t109.5 43q-42 52 -67 110t-25 144q0 79 29 150.5t86 130.5t151.5 93.5t214.5 34.5q178 0 273.5 -62t95.5 -165q0 -52 -14.5 -99.5t-32.5 -78t-35 -73.5t-21 -85h-43q5 45 22 89t35 73.5t32 75t14 96.5q0 86 -87.5 139t-205.5 53 q-149 0 -243.5 -103t-94.5 -316q0 -56 7 -97t15 -54l7 -13q106 35 239 35q150 0 150 -82q0 -50 -53.5 -81.5t-153.5 -31.5q-158 0 -254 76q-23 -24 -33.5 -35.5t-32.5 -44.5t-33 -64.5t-20.5 -83.5t-9.5 -112q0 -78 44.5 -143t108 -98.5t125.5 -33.5q83 0 156.5 27.5t121 65 t87.5 88.5t59 86t33 69q-72 1 -136.5 11t-102.5 21t-97 32h-2l17 34q82 -31 157.5 -46t182.5 -15q188 0 309 123.5t121 316.5h37q0 -205 -122.5 -336.5t-318.5 -140.5q-14 -35 -32.5 -70.5t-64.5 -95t-101.5 -102.5t-146 -76t-195.5 -33q-219 0 -342 93t-123 249zM555 592 q2 -4 5 -9.5t17 -21t31 -27t47 -21t66 -9.5q82 0 124 21.5t42 49.5q0 50 -109 50q-114 0 -223 -33z" />
<glyph unicode="'" horiz-adv-x="325" d="M225 729q3 77 30.5 162.5t58.5 150t57 152t26 168.5h88q0 -72 -27 -162.5t-60 -162.5t-60 -158t-27 -150h-86z" />
<glyph unicode="(" horiz-adv-x="811" d="M143 295q0 181 62.5 338t175 270t275.5 177.5t356 64.5v-43q-45 0 -123 -8q-72 -22 -136 -58.5t-133.5 -108.5t-119.5 -168.5t-82.5 -247t-32.5 -335.5q0 -306 199 -405q58 -7 102 -7v-40q-259 0 -401 149t-142 422z" />
<glyph unicode=")" horiz-adv-x="800" d="M-57 -233q45 0 123 8q50 15 96 37.5t97.5 61t95 87.5t84 121t68.5 158.5t45 202t17 249.5q0 307 -198 406q-49 6 -103 6v41q258 0 400.5 -149.5t142.5 -422.5q0 -181 -62.5 -338t-174.5 -269.5t-275 -177t-356 -64.5v43z" />
<glyph unicode="*" horiz-adv-x="645" d="M244 1008l28 84l168 -72l-30 178l86 19l18 -191l141 127l58 -66l-152 -112l176 -57l-28 -84l-172 71l36 -178l-86 -18l-22 190l-139 -127l-60 66l154 110z" />
<glyph unicode="+" horiz-adv-x="888" d="M121 385l8 51h354l66 361h61l-65 -361h368l-8 -51h-368l-64 -348h-61l63 348h-354z" />
<glyph unicode="," horiz-adv-x="489" d="M61 -195q59 19 107 45.5t74.5 50t45 45t24.5 34.5l7 12q-19 -8 -47 -8q-62 0 -104.5 43t-42.5 104q0 62 43 106t104 44q62 0 106 -44.5t44 -105.5q0 -46 -20.5 -98t-60.5 -104.5t-108 -97.5t-153 -69z" />
<glyph unicode="-" horiz-adv-x="1017" d="M184 377l4 37h785l-4 -37h-785z" />
<glyph unicode="." horiz-adv-x="485" d="M125 131q0 62 43 106t104 44q62 0 106 -44.5t44 -105.5t-44 -104t-106 -43t-104.5 43t-42.5 104z" />
<glyph unicode="/" horiz-adv-x="638" d="M47 -66l719 1432l53 -20l-719 -1432z" />
<glyph unicode="0" horiz-adv-x="909" d="M135 281q0 97 35 185t90 149.5t121.5 107.5t129.5 68t114 22v-43q-67 0 -127 -71.5t-95.5 -187t-35.5 -239.5q0 -215 163 -215q52 0 112.5 34.5t111.5 89t84.5 131t33.5 153.5q0 82 -37 130t-100 48q-79 0 -117 -47q-25 -24 -38.5 -64t-13.5 -68l-1 -28h-41q0 14 2 36.5 t18 71.5t44 79q56 59 147 59q82 0 129 -58.5t47 -158.5q0 -74 -35.5 -157t-96.5 -156.5t-156.5 -121.5t-202.5 -48q-123 0 -204 85t-81 214z" />
<glyph unicode="1" horiz-adv-x="593" d="M111 0l241 694l-145 -30l-10 41l456 92l-301 -797h-241z" />
<glyph unicode="2" horiz-adv-x="819" d="M59 -8v41q56 38 318 196q102 65 152 117t63.5 95t13.5 112q0 72 -41.5 120t-109.5 48q-35 0 -71.5 -18t-63 -42.5t-49 -51t-34 -43.5t-12.5 -21l-32 20q8 16 19.5 34t47 56.5t76.5 67t108.5 51.5t143.5 23q221 0 221 -191q0 -46 -19 -88.5t-49 -78.5t-89 -80.5 t-114.5 -80.5t-150.5 -94h395l-69 -192h-654z" />
<glyph unicode="3" horiz-adv-x="761" d="M-6 -150l43 -2q0 -40 16.5 -70t44 -46t59 -23.5t66.5 -7.5q134 0 206.5 93.5t72.5 244.5q0 95 -29.5 149t-79.5 54l-57 -4l-12 41q43 15 69 24.5t59.5 25t52.5 30t39.5 36t31 47t17.5 60t7 76.5q0 75 -44.5 112t-96.5 35q-30 0 -61 -14t-54.5 -33.5t-43 -41t-29 -34.5 t-11.5 -16l-35 18q4 8 14.5 23.5t41.5 47.5t69.5 57t102 45t135.5 20q95 0 146.5 -44t51.5 -126q0 -59 -30.5 -114t-82.5 -98t-106 -74.5t-114 -55.5q100 -7 157 -54q76 -60 76 -180q0 -113 -69.5 -204.5t-175 -139t-218.5 -47.5q-105 0 -167 45t-62 145z" />
<glyph unicode="4" horiz-adv-x="886" d="M12 49v41l924 768l-219 -616h166l-70 -193h-164l-133 -375l-45 4l129 371h-588zM262 242h408l174 485z" />
<glyph unicode="5" horiz-adv-x="743" d="M-8 -301q229 0 347 90.5t118 302.5q0 146 -66.5 214.5t-181.5 68.5h-68l181 422h528l-70 -193h-495l-84 -196h47q99 0 168.5 -17.5t128.5 -66.5q92 -76 92 -215q0 -96 -38.5 -174t-102 -128t-148.5 -84t-173.5 -48.5t-182.5 -14.5v39z" />
<glyph unicode="6" horiz-adv-x="942" d="M145 281q0 139 57.5 270t153.5 231t216.5 177t251 120t253.5 49v-41q-121 -9 -227 -40.5t-204 -94.5t-168 -153.5t-112 -226.5t-42 -304q0 -108 45.5 -162.5t130.5 -54.5q89 0 172.5 53t136.5 146t53 199q0 95 -49 145.5t-137 50.5q-95 0 -158 -63l-29 28q76 76 187 76 q106 0 165.5 -62.5t59.5 -174.5q0 -56 -18.5 -117t-58 -122t-95.5 -109t-138.5 -78.5t-178.5 -30.5q-267 0 -267 289z" />
<glyph unicode="7" horiz-adv-x="757" d="M98 457l166 340h654l-723 -1133l-37 21l579 911h-526l-76 -154z" />
<glyph unicode="8" horiz-adv-x="897" d="M115 205q0 73 34.5 137.5t81.5 104.5t97.5 69t82 41t35.5 12l11 -37q-86 -22 -133.5 -95.5t-47.5 -184.5q0 -92 62.5 -146.5t140.5 -48.5q79 0 135 38.5t80.5 93t24.5 116.5q0 28 -11 56t-23 47t-41 46.5t-44 40t-53 42.5q-46 34 -74 57.5t-61 60t-48.5 78t-15.5 88.5 q0 56 26 110.5t72.5 98.5t117.5 71t153 27q266 0 266 -202q0 -71 -34.5 -132t-90.5 -101t-115 -66.5t-122 -40.5l-9 35q138 37 233 116t95 174q0 91 -54 133.5t-169 42.5q-140 0 -233 -82t-93 -184q0 -42 14 -78t44.5 -69t55 -53.5t68.5 -53.5q38 -30 56 -44.5t48.5 -44 t44.5 -52t26 -55t12 -66.5q0 -139 -101.5 -226t-263.5 -87q-74 0 -130.5 21t-87.5 54t-46.5 68t-15.5 70z" />
<glyph unicode="9" horiz-adv-x="899" d="M-23 -287q111 28 183 49.5t158.5 57t140 74.5t109 98t85.5 132t49 172.5t19 223.5q0 66 -18.5 112t-50 67.5t-63.5 30t-69 7.5q-76 -21 -137 -67t-97.5 -102t-55.5 -114.5t-19 -111.5q0 -52 15.5 -91.5t37 -60t49.5 -33t47 -15.5t35 -3q38 0 75.5 15.5t56 29.5t18.5 17 l26 -31q-70 -70 -176 -70q-94 0 -160.5 60t-66.5 182q0 83 34 163.5t94.5 146t153 105.5t199.5 40q124 0 195 -79.5t71 -219.5q0 -17 -2 -38.5t-11.5 -67.5t-26 -91.5t-50.5 -106t-79.5 -116t-117 -116t-159.5 -111.5t-212 -98t-269 -79z" />
<glyph unicode=":" horiz-adv-x="552" d="M156 131q0 62 43 106t104 44t105.5 -44.5t44.5 -105.5t-44 -104t-106 -43q-61 0 -104 43t-43 104zM238 647q0 62 43 106t104 44t105.5 -44.5t44.5 -105.5t-44 -104t-106 -43q-61 0 -104 43t-43 104z" />
<glyph unicode=";" horiz-adv-x="555" d="M92 -195q59 19 107 45.5t74.5 50t45 45t25.5 34.5l6 12q-19 -8 -47 -8q-61 0 -104 43t-43 104q0 62 43 106t104 44t105.5 -44.5t44.5 -105.5q0 -46 -20.5 -98t-60.5 -104.5t-108 -97.5t-153 -69zM238 647q0 62 43 106t104 44t105.5 -44.5t44.5 -105.5t-44 -104t-106 -43 q-61 0 -104 43t-43 104z" />
<glyph unicode="&#x3c;" horiz-adv-x="577" d="M137 395l10 54q266 89 369 191q39 39 47 77h43q-10 -51 -56 -100t-113 -86.5t-128 -63.5t-125 -47q57 -23 106 -49t101 -63.5t77 -84.5t13 -96h-43q22 105 -181 213q-31 17 -120 55z" />
<glyph unicode="=" horiz-adv-x="1019" d="M168 281l4 36h784l-4 -36h-784zM209 504l4 37h784l-4 -37h-784z" />
<glyph unicode="&#x3e;" horiz-adv-x="577" d="M121 127q10 51 56 100t113 86.5t128 63.5t125 47q-57 23 -106 49t-101 63.5t-77 84.5t-13 96h43q-22 -105 181 -213q37 -20 120 -55l-10 -54q-266 -89 -369 -191q-39 -40 -47 -77h-43z" />
<glyph unicode="?" horiz-adv-x="948" d="M197 817q35 180 167.5 302t321.5 122q158 0 245 -83t87 -216q0 -48 -12 -98q-15 -57 -40.5 -107.5t-63.5 -95.5t-69 -75.5t-79 -71.5q-73 -64 -124.5 -122.5t-90.5 -135.5l-50 24q29 60 70 113.5t72.5 82.5t85.5 74q85 69 143 141.5t90 176.5q8 36 8 78q0 120 -70 189 t-210 69q-86 0 -160.5 -30.5t-126.5 -82.5t-86.5 -117t-48.5 -137h-59zM369 86q0 43 29.5 73.5t72.5 30.5t73.5 -30.5t30.5 -73.5t-30.5 -72.5t-73.5 -29.5t-72.5 29.5t-29.5 72.5z" />
<glyph unicode="@" horiz-adv-x="1312" d="M170 397q0 181 62.5 338t174.5 270t275 177.5t356 64.5q165 0 252.5 -66.5t87.5 -199.5q0 -58 -22.5 -125t-55 -128.5t-64.5 -124t-54.5 -131t-22.5 -128.5q0 -38 11.5 -59t46.5 -21q43 3 71 39l21 -16q-42 -51 -107 -51q-154 0 -164 149q-32 -77 -78.5 -113t-123.5 -36 q-93 0 -149 57t-56 160q0 161 78 251.5t204 90.5q86 0 138 -25.5t71.5 -72.5t21.5 -115t-11 -152q11 72 36 137.5t51.5 112t52 92t42 98t16.5 109.5q0 47 -14 85t-46 71t-91 51t-142 18q-100 0 -185.5 -28.5t-148.5 -78t-113.5 -118.5t-83.5 -146t-54.5 -165t-31 -171.5 t-9.5 -168.5q0 -220 96.5 -340.5t245.5 -120.5q135 0 264 84l18 -43q-133 -82 -323 -82q-259 0 -401 149t-142 422zM791 420q0 -72 23.5 -103.5t57.5 -31.5q47 0 83 50t44 95q26 122 22.5 192.5t-23 98t-56.5 27.5q-73 0 -112 -86.5t-39 -241.5z" />
<glyph unicode="A" horiz-adv-x="2353" d="M109 254q0 107 35.5 209.5t101 185.5t169.5 134t230 51q215 0 338 -138q30 -39 41 -55q108 -45 252 -156q95 -77 158 -118q15 25 40.5 72t36.5 67q51 93 78 141t79 133.5t87 130.5t91 111t102.5 98.5t111.5 69.5q64 38 127 48q53 9 116 8h24q77 -2 159 -25l-10 -39 q-50 13 -104 20q-29 -110 -69 -282.5t-97 -485.5t-70 -518q26 0 51.5 14t38.5 28l12 15l31 -24q-2 -3 -6 -8t-18 -18t-30 -22.5t-43 -17.5t-56 -8q-110 0 -170 49t-60 150q0 51 15 182q-102 -31 -177 -31q-136 0 -274 84q-62 -108 -116 -189t-127.5 -164.5t-147 -136.5 t-168.5 -86.5t-199 -33.5q-284 0 -442 172q-141 157 -141 383zM150 254q0 -103 34 -194.5t97 -159.5q148 -160 411 -160q82 0 157.5 21.5t141 63.5t121.5 93t111 122.5t98.5 138t93.5 153.5q-74 48 -164 121q-109 84 -196 129q35 -84 35 -179q0 -71 -21.5 -139t-60.5 -123 t-102 -89t-138 -34q-96 0 -156.5 57.5t-60.5 129.5q0 52 18 92t42 60t52 33t43 16.5t19 3.5l4 -41q-4 0 -16 -2.5t-33.5 -13t-40.5 -27t-33 -48.5t-14 -73q0 -58 48.5 -102t127.5 -44q88 0 154 51t97.5 127.5t31.5 165.5q0 110 -52 203q-111 43 -223 43q-175 0 -268 -136 q-13 -20 -33 -62l-39 12l1 3q50 116 153 176q82 48 186 48q93 0 182 -26l-4 6q-114 123 -309 123q-116 0 -212.5 -47.5t-156.5 -125t-93 -172.5t-33 -194zM1470 344q68 -40 131 -60q57 -19 129 -19h14q80 2 163 36q51 355 184 860q-56 -26 -108 -65.5t-101.5 -96t-88 -106.5 t-87 -130.5t-78 -132.5t-80.5 -145z" />
<glyph unicode="B" horiz-adv-x="2007" d="M168 635q0 293 306 452.5t865 159.5q318 0 465.5 -95.5t147.5 -262.5q0 -139 -95.5 -250t-267.5 -164q377 -44 377 -264q0 -67 -30.5 -122t-78 -91.5t-116 -63.5t-135 -41.5t-145.5 -23.5t-136 -11.5t-117 -2.5v41q45 -3 87 -3q87 0 159 14q106 21 165 65t87.5 100 t28.5 123q0 52 -20.5 97.5t-50.5 74t-59.5 49.5t-50.5 30l-20 9q-70 -15 -148 -15v41q91 0 182.5 28t167.5 78.5t123.5 129.5t47.5 172q0 151 -142.5 233.5t-406.5 85.5q-1 -9 -24 -165.5t-40.5 -272t-48.5 -294t-59 -316.5q-21 -112 -78.5 -204t-135 -149.5t-165.5 -88.5 t-176 -31v39q53 5 84.5 9t59 22.5t39.5 29.5t26.5 56t20 74t19.5 110q5 26 7 39l196 1132q-420 -35 -648 -181t-228 -382q0 -106 74 -180q33 -32 79.5 -54.5t87 -31t80.5 -14.5t60 -4t24 1v-43q-240 0 -358 115q-86 80 -86 211z" />
<glyph unicode="C" horiz-adv-x="1318" d="M188 397q0 181 62.5 338t175 270t275.5 177.5t356 64.5q180 0 260 -64.5t80 -201.5q0 -41 -14.5 -84.5t-30.5 -71t-45 -71.5q-29 -47 -41.5 -68.5t-26.5 -61.5t-14 -75h-45q0 13 1.5 26.5t3.5 24.5t7 25.5t7 22.5t10 23.5t10.5 21t12.5 22.5t12 20.5t13.5 22t12.5 20.5 q28 43 41.5 66t26 60t12.5 73q0 34 -4.5 61t-22 60t-47.5 54.5t-86 36.5t-133 15q-45 0 -123 -8q-50 -15 -96 -37.5t-97.5 -61t-95 -87.5t-84.5 -121t-69 -158.5t-45 -202t-17 -249.5q0 -307 199 -406q49 -6 102 -6q79 0 148.5 16.5t117 43.5t86 59t61.5 64.5t38.5 59.5 t21.5 44l6 16l41 -16q-2 -7 -6 -18.5t-21.5 -46t-40.5 -65.5t-65.5 -68.5t-93.5 -65t-127.5 -46t-165.5 -18.5q-259 0 -401 149t-142 422z" />
<glyph unicode="D" horiz-adv-x="1986" d="M215 600q0 160 90.5 299.5t278.5 230.5q-133 114 -357 152l9 39q248 -45 387 -174q249 100 600 100q363 0 567.5 -163t204.5 -453q0 -115 -31 -224.5t-98 -209t-162 -174.5t-233.5 -119.5t-303.5 -44.5q-138 0 -256 32q-139 -100 -301 -100v39q80 2 115.5 21t62.5 83 q-67 29 -124.5 69.5t-92 77t-59.5 70.5t-35 52.5t-10 21.5l37 15q0 -2 9.5 -19.5t33 -49t55.5 -65.5t85.5 -72t115.5 -65q29 78 47 178l182 1053q-213 -17 -377 -84q80 -86 113 -190q27 -84 26 -170q0 -21 -1 -41q-14 -158 -107.5 -262.5t-222.5 -104.5q-116 0 -182 75 t-66 177zM254 600q0 -84 54.5 -148.5t154.5 -64.5q114 0 196.5 94t94.5 240q2 22 2 44q0 76 -26 154q-34 100 -116 181q-125 -56 -208 -140t-117.5 -173t-34.5 -187zM950 -80q108 -24 217 -24q158 0 290 42.5t223 114t154 167t92.5 199t29.5 212.5q0 256 -176.5 408 t-491.5 167q-105 -698 -158 -975q-38 -189 -180 -311z" />
<glyph unicode="E" horiz-adv-x="1153" d="M133 229q0 75 28.5 138t76 105t99 69t109.5 43q-42 52 -67 110t-25 144q0 79 29.5 150.5t86.5 130.5t151.5 93.5t214.5 34.5q178 0 273 -62t95 -165q0 -52 -14.5 -99.5t-32 -78t-34.5 -73.5t-21 -85h-43q6 56 31.5 109t48 107t22.5 118q0 86 -87.5 139t-205.5 53 q-149 0 -243.5 -103t-94.5 -316q0 -56 7 -97t15 -54l7 -13q106 35 240 35q149 0 149 -82q0 -50 -53.5 -81.5t-153.5 -31.5q-158 0 -254 76q-23 -24 -33.5 -35.5t-32.5 -44.5t-33 -64.5t-20.5 -83.5t-9.5 -112q0 -78 45 -143t108.5 -98.5t125.5 -33.5q71 0 134.5 19.5 t109 49.5t84.5 69.5t63 75.5t42 71.5t25 54t9 25.5l41 -10q0 -3 -7.5 -23.5t-27 -57t-47 -77.5t-72.5 -83.5t-99 -76.5t-130.5 -56t-163.5 -22q-219 0 -342 93t-123 249zM575 592q2 -4 5 -9.5t17 -21t31 -27t47 -21t66 -9.5q82 0 124 21.5t42 49.5q0 50 -108 50 q-115 0 -224 -33z" />
<glyph unicode="F" horiz-adv-x="1781" d="M168 637q0 290 308 450t867 160q152 0 258 -17.5t164.5 -51.5t83.5 -77t25 -100q0 -60 -24.5 -121.5t-64 -117.5t-81 -108t-84 -112t-64.5 -110h109l-4 -37h-119q-16 -53 -16 -96h-43q0 49 12 96h-260l-43 -239q-22 -112 -80 -204t-136 -149.5t-166.5 -88.5t-176.5 -31 v41q50 1 82 5.5t58.5 21t41.5 35.5t29.5 63t23.5 88.5t23 125.5l55 332h-104l4 37h106l133 764q-420 -34 -647 -178.5t-227 -380.5q0 -118 72 -184q51 -49 133.5 -74.5t137.5 -28.5t58 0l2 -43h-12q-29 0 -63 3.5t-87 14t-106 35.5t-92 62q-86 80 -86 215zM1241 432h268 q21 54 63 116t83.5 114.5t81 107t64 114.5t24.5 117q0 25 -6.5 47.5t-34.5 53.5t-75 52t-137 36.5t-212 15.5q-71 -499 -119 -774z" />
<glyph unicode="G" horiz-adv-x="1339" d="M188 397q0 181 62.5 338t175 270t275.5 177.5t356 64.5q180 0 260 -64.5t80 -201.5q0 -41 -14.5 -84.5t-30.5 -71t-45 -71.5q-29 -47 -41.5 -68.5t-26.5 -61.5t-14 -75h-45q0 13 1.5 26.5t3.5 24.5t7 25.5t7 22.5t10 23.5t10.5 21t12.5 22.5t12 20.5t13.5 22t12.5 20.5 q28 43 41.5 66t26 60t12.5 73q0 34 -4.5 61t-22 60t-47.5 54.5t-86 36.5t-133 15q-45 0 -123 -8q-50 -15 -96 -37.5t-97.5 -61t-95 -87.5t-84.5 -121t-69 -158.5t-45 -202t-17 -249.5q0 -307 199 -406q49 -6 102 -6q86 0 163.5 17t125.5 39t89 51.5t55 44t24 26.5 q12 45 33 144.5t34 150.5l43 -10q-14 -58 -31.5 -136t-27.5 -123t-25 -104.5t-28 -94t-32 -76.5t-40 -67.5t-50 -51.5t-65 -43t-81 -29l-9 43q104 22 162 100.5t98 222.5q-27 -25 -62 -47.5t-89 -47t-128.5 -39.5t-158.5 -15q-258 0 -400.5 150.5t-142.5 424.5z" />
<glyph unicode="H" horiz-adv-x="2033" d="M41 117l45 -6q-2 -30 -3 -58q0 -189 112 -311q63 -70 149.5 -102.5t177.5 -32.5q57 0 102.5 10t81 27.5t65 49t51.5 66t42.5 88t35.5 104.5t34 126q65 272 125 518.5t92 377.5t39 159l-14 6q-84 31 -159 47t-181 16q-187 0 -304.5 -121t-117.5 -315h-45 q0 212 130.5 346.5t336.5 134.5q77 0 145.5 -10t107 -21t101.5 -32q72 -26 120.5 -40t143.5 -27t211 -13v-43q-154 0 -246 14q-1 -4 -14.5 -68t-45 -201.5t-77.5 -332.5h549l209 889h43l-287 -1231q-18 -75 -18 -102q0 -36 18.5 -61t61.5 -25q28 0 53 14.5t36 29.5l11 15 l29 -25q-2 -3 -5 -8t-14.5 -17.5t-25 -22t-36.5 -17.5t-48 -8q-63 0 -93 34.5t-30 84.5q0 16 6 50t12 59l6 26l64 278h-551q-5 -25 -18 -76.5t-19 -80.5q-21 -90 -42.5 -162.5t-53.5 -151t-69 -139t-88.5 -116.5t-112 -92t-139.5 -57.5t-171 -21.5q-113 0 -219 45.5 t-178 124.5q-124 143 -124 346q0 31 3 62z" />
<glyph unicode="I" horiz-adv-x="1251" d="M184 756q0 252 106.5 371.5t317.5 119.5q74 0 156.5 -21.5t156.5 -52t147.5 -61.5t154.5 -52.5t153 -21.5v-47q-48 0 -121 15q-3 -1 -8 -4.5t-21.5 -19t-33.5 -37.5t-42.5 -65t-50.5 -96.5t-54.5 -136t-57.5 -180.5h221l-4 -37h-227q-18 -62 -33 -129 q-28 -120 -51.5 -204.5t-53 -167t-62 -135t-74.5 -94.5t-93.5 -60.5t-115.5 -18.5q-54 0 -91.5 6.5t-48.5 12.5l-10 6l21 43q3 -3 11 -8t44 -13t86 -8q15 0 47 4l145 631q6 26 17.5 72.5t15.5 62.5h-223l4 37h227q79 301 158 439t186 153q-28 11 -110 47t-121.5 51t-106 31 t-124.5 16q-195 0 -292.5 -107t-97.5 -341h-47z" />
<glyph unicode="J" horiz-adv-x="1484" d="M31 82h47q-2 -25 -2 -50q0 -184 114 -312q128 -146 340 -146q57 0 104.5 22.5t86 70.5t69 105t59.5 146t51.5 173t49.5 204q15 71 33 135h-225l4 37h229q71 272 141 401.5t162 157.5q-76 27 -172 84q-62 34 -92 48.5t-90.5 30t-126.5 15.5q-178 0 -290.5 -116.5 t-112.5 -301.5h-43q0 203 125 332t321 129q55 0 101 -7t90.5 -25t67 -29.5t71.5 -38.5q55 -31 85.5 -45.5t89.5 -36.5t128.5 -31.5t155.5 -9.5v-43q-66 0 -121 6q-7 -7 -17.5 -20t-36.5 -54.5t-52 -95t-62.5 -146.5t-71.5 -204h217l-4 -37h-223q-38 -125 -53 -190 q-20 -86 -40.5 -155.5t-51.5 -145t-66 -133t-84 -111.5t-107 -88.5t-134 -55t-165 -20.5q-120 0 -219.5 45.5t-163 121.5t-94.5 176q-24 78 -24 160q0 24 2 48z" />
<glyph unicode="K" horiz-adv-x="2207" d="M41 117l45 -6q-2 -30 -3 -58q0 -189 112 -311q63 -70 149.5 -102.5t177.5 -32.5q57 0 102.5 10t81 27.5t65 49t51.5 66t42.5 88t35.5 104.5t34 126q65 272 125 518.5t92 377.5t39 159l-14 6q-84 31 -159 47t-181 16q-187 0 -304.5 -121t-117.5 -315h-45 q0 212 130.5 346.5t336.5 134.5q77 0 145.5 -10t107 -21t101.5 -32q72 -26 120.5 -40t143.5 -27t211 -13v-43q-154 0 -246 14q-40 -197 -184 -796q-21 -90 -42.5 -162.5t-53.5 -151t-69 -139t-88.5 -116.5t-112 -92t-139.5 -57.5t-171 -21.5q-113 0 -219 45.5t-178 124.5 q-124 143 -124 346q0 31 3 62zM1339 362l293 381q70 91 138 161.5t154.5 136.5t188 103t211.5 40q31 95 31 178h47q0 -75 -27 -166.5t-60 -162t-60 -155.5t-27 -149h-45q0 64 16.5 125t58 159t50.5 122q-98 -6 -192 -45.5t-177 -106.5t-149 -137.5t-135 -159.5 q-74 -93 -135 -176q99 -207 160.5 -331t119.5 -231.5t92 -158.5t71.5 -88.5t65.5 -47t66 -9.5q64 0 114 39.5t70 107.5h52q-31 -102 -107 -157.5t-215 -55.5q-162 0 -266 76.5t-178 232.5z" />
<glyph unicode="L" horiz-adv-x="1331" d="M-158 -143q0 71 58.5 115t175.5 44q95 0 160 -30t126 -88q26 84 41 168l138 792q20 124 61.5 216.5t93 147t120 87.5t132 44t139.5 11q65 0 122 -13.5t110 -46t91 -81.5t60.5 -124t22.5 -169h-49q0 182 -87 277.5t-220 95.5q-120 0 -193.5 -78t-95.5 -226 q0 -6 -16.5 -114t-53 -317.5t-76.5 -407.5q-44 -240 -229 -371q8 -8 32.5 -30.5t34 -31t33 -27t39.5 -26t44 -19.5t54.5 -17t64 -9t79.5 -4q67 0 125.5 24t98 62t70.5 81t49 84t28 67.5t12 34.5v2l49 -17q-54 -174 -169 -276.5t-269 -102.5q-46 0 -86 4.5t-69 9.5t-59.5 19 t-47 21t-43 28.5t-35.5 29t-37 34.5t-35 34q-130 -77 -289 -77q-146 0 -225.5 48t-79.5 122zM-109 -143q0 -59 66 -95t190 -36q58 0 127 16q40 36 72 111q-65 62 -124 93t-142 31q-88 0 -138.5 -31.5t-50.5 -88.5z" />
<glyph unicode="M" horiz-adv-x="2736" d="M47 197l41 -4q-3 -32 -4 -63q0 -169 104 -282q62 -68 151 -106.5t185 -38.5q84 0 149 12t128 44t116.5 80t115 129.5t122 183.5t139.5 249l369 670q-100 2 -189.5 15t-135.5 25t-117 34q-88 29 -161 44t-171 15q-172 0 -280.5 -112.5t-108.5 -290.5h-41q0 197 120 320.5 t310 123.5q71 0 137 -9.5t105.5 -19.5t101.5 -30q78 -25 125.5 -37t143.5 -24.5t210 -12.5l86 -1106l41 57q172 236 298 401t244 306t205.5 223.5t164 128t137.5 45.5v-41q-65 0 -162 -69q-14 -43 -50 -159t-89.5 -289t-94.5 -304q-62 -190 -70 -330q-1 -20 0 -39 q0 -111 42 -174q43 0 81 17.5t55 34.5l17 18l27 -35q-3 -3 -8 -8.5t-23 -19t-38 -23.5t-52 -18.5t-65 -8.5q-106 0 -174 46q-67 45 -93 127q-20 64 -20 145q0 23 1 45q7 108 46 235l92 304q-163 -205 -436 -582q-18 -24 -112 -153t-150 -205l-37 10l-80 991l-164 -299 q-81 -152 -144 -257.5t-126.5 -189.5t-119.5 -134t-123 -83t-135.5 -45t-158.5 -12q-104 0 -201 42t-165 116q-115 128 -115 310q0 33 4 67z" />
<glyph unicode="N" horiz-adv-x="2635" d="M43 184l39 -6q-2 -27 -2 -53q0 -161 96 -272q58 -66 143 -102t179 -36q249 0 437 163.5t406 570.5l349 634q-211 4 -420 72q-164 53 -316 53q-164 0 -267 -106.5t-103 -276.5h-39q0 187 114.5 305.5t294.5 118.5q68 0 131.5 -9.5t100 -19t96.5 -28.5q76 -23 120 -34 t138 -22.5t205 -11.5l328 -891q67 105 136 221t114.5 198t96 167.5t88 142.5t81.5 110t85.5 83.5t91.5 48t107 17.5v-41q-57 0 -108 -22.5t-100 -72t-92.5 -108.5t-99.5 -151.5t-106.5 -181t-127 -217.5t-148.5 -241q55 -134 88 -202q59 -115 107.5 -164t123.5 -49 q41 0 75 15.5t53.5 37.5t33 43.5t18.5 36.5l5 16h45q-1 -9 -4.5 -23t-24 -51t-51 -65t-93 -51t-143.5 -23q-173 0 -279 85t-179 257l-285 756l-207 -377q-223 -418 -418 -586t-458 -168q-99 0 -192.5 40.5t-158.5 109.5q-107 120 -107 298q0 30 3 62z" />
<glyph unicode="O" horiz-adv-x="1531" d="M182 356q0 241 106 442.5t293 321.5t416 129l2 -41q-97 -3 -179 -36.5t-141.5 -88t-106.5 -129.5t-77 -156.5t-49.5 -173t-27.5 -176t-8 -169.5q0 -96 22 -173t57.5 -125.5t83 -81t94.5 -46t95 -13.5q113 0 223 47.5t198 129.5t155.5 185t104 220.5t36.5 230.5 q0 203 -88.5 314.5t-249.5 111.5q-99 0 -180 -39t-131.5 -103.5t-77.5 -144.5t-27 -165q0 -79 24.5 -139t56 -89t70 -46.5t58 -21t29.5 -3.5l-2 -41q-8 0 -30.5 4t-67.5 24.5t-82.5 53.5t-67 101t-29.5 157q0 74 18.5 144.5t56 133.5t91 110.5t128.5 75t163 27.5 q179 0 279 -122.5t100 -342.5q0 -154 -60.5 -308t-164.5 -277.5t-258.5 -201t-327.5 -77.5q-248 0 -387.5 150t-139.5 417z" />
<glyph unicode="P" horiz-adv-x="1966" d="M215 635q0 261 244 417t696 187q96 215 358 215v-53q-52 -7 -71 -41t-33 -113q137 -2 243.5 -29.5t172 -69.5t107.5 -100t58.5 -116.5t16.5 -124.5q0 -129 -47.5 -234t-122.5 -173t-180.5 -118.5t-206.5 -76.5t-217 -41v-4q-44 -240 -229 -371q83 -76 184 -119t258 -43 v-45q-170 0 -279.5 48.5t-199.5 133.5q-130 -77 -289 -77q-146 0 -225.5 48t-79.5 122q0 71 58 115t175 44q95 0 160.5 -30t126.5 -88q26 84 41 168l12 75h-86v45h94l156 889q10 72 29 123q-423 -32 -654 -179t-231 -384q0 -106 74 -180q33 -32 79.5 -54.5t87 -31 t80.5 -14.5t60 -4t24 1v-43q-240 0 -358 115q-86 80 -86 211zM422 -143q0 -56 65 -93.5t156 -37.5q94 0 148.5 26.5t85.5 100.5q-65 62 -124.5 93t-142.5 31q-88 0 -138 -31.5t-50 -88.5zM1243 211q110 16 204.5 41.5t191 73t163.5 110.5t109.5 158.5t42.5 212.5 q0 181 -136 289t-413 112q-71 -529 -162 -997z" />
<glyph unicode="Q" horiz-adv-x="1595" d="M20 -457q0 107 132 184.5t321 77.5q194 0 422 -90q269 200 446 469t177 523q0 243 -129 372t-371 129q-78 0 -157 -30.5t-157.5 -102t-138.5 -175.5t-97.5 -265t-37.5 -356q0 -63 9 -113t22 -81.5t34 -54t38 -33.5t42.5 -16.5t38.5 -6.5t33 -1q58 0 118 35.5t107.5 95.5 t78 145.5t30.5 178.5q0 139 -74 213q-14 14 -31 25t-32.5 18t-31 12t-28 7t-22 3.5t-14.5 1.5l-5 1v41q14 0 35 -2t71 -22t87 -56q86 -86 86 -242q0 -95 -30.5 -185t-86 -163.5t-144.5 -118.5t-196 -45q-188 0 -290.5 112.5t-102.5 317.5q0 82 16 168t50 174.5t83 170 t119.5 153t154.5 124t193 83t230 30.5q256 0 397 -142t141 -400q0 -257 -175.5 -529.5t-444.5 -478.5q73 -31 202.5 -98t216.5 -100t167 -33q60 0 112 18.5t82 42.5t53.5 53.5t31 44t9.5 21.5l39 -10q-21 -58 -64.5 -102t-94.5 -69.5t-115.5 -41.5t-121 -21.5t-118.5 -5.5 q-94 0 -178 13t-163.5 41t-128 49t-128.5 61q-283 -164 -526 -164q-97 0 -144 42t-47 103zM68 -457q0 -47 41 -75.5t112 -28.5q218 0 473 145q-118 57 -210.5 86t-202.5 29q-82 0 -147.5 -41t-65.5 -115z" />
<glyph unicode="R" horiz-adv-x="1957" d="M168 635q0 293 306 452.5t865 159.5q145 0 256 -17.5t183.5 -48t118 -76.5t64.5 -98.5t19 -117.5q0 -156 -111.5 -272.5t-293.5 -180.5q239 -496 315 -621q68 -113 122 -140q31 -15 87 -15q64 0 114.5 39.5t70.5 107.5h51q-31 -102 -107 -157.5t-215 -55.5 q-162 0 -267 77t-177 233l-221 479q-82 -8 -121 -8q-5 -29 -18 -103t-21 -112q-21 -112 -78.5 -204t-135.5 -149.5t-166.5 -88.5t-176.5 -31v39q45 2 74.5 7.5t56 21t42.5 36.5t31.5 61.5t27 89t24.5 124.5l196 1132q-420 -35 -648 -181t-228 -382q0 -106 74 -180 q33 -32 79.5 -54.5t87 -31t80.5 -14.5t60 -4t24 1v-43q-240 0 -358 115q-86 80 -86 211zM1235 420q144 4 273.5 43.5t220.5 103t144.5 148t53.5 174.5q0 313 -569 319z" />
<glyph unicode="S" horiz-adv-x="1454" d="M166 -53q0 89 41 168.5t123 132.5t188 53q134 0 207 -70q66 -60 66 -155q0 -89 -56.5 -160.5t-140.5 -71.5q-95 0 -150 58q-26 26 -40 62.5t-15.5 58.5t0.5 26l39 -2q0 -8 0.5 -21.5t12 -45t32.5 -52.5q40 -43 121 -43q68 0 113 59t45 132q0 79 -54 127q-59 59 -180 59 q-71 0 -131.5 -27t-99.5 -72t-60.5 -101t-21.5 -115q0 -145 110 -238q66 -58 134.5 -82t183.5 -24q215 0 334.5 87.5t119.5 233.5q0 77 -27.5 140t-73.5 107t-102 83t-115.5 78t-112 81t-94 102.5t-58.5 133.5q-186 55 -246 232q-22 67 -22 140q0 75 24 155q46 158 152 237 l22 -33q-96 -70 -138 -216q-21 -74 -21 -143q0 -66 20 -128q51 -150 203 -201q-4 23 -4 70q0 179 92 317.5t243.5 210.5t333.5 72q184 0 295 -100q94 -88 94 -222q0 -78 -35.5 -147.5t-109.5 -115.5t-172 -46q-77 0 -131 31q-35 -27 -103.5 -61.5t-144.5 -53.5 q43 -40 117.5 -93t133.5 -96.5t117 -99t91 -125.5t33 -151q0 -233 -181.5 -378.5t-482.5 -145.5q-254 0 -395 123q-123 105 -123 266zM710 872q4 -60 33.5 -112.5t77.5 -85.5q78 18 147 51t107 59q-45 41 -69.5 101.5t-24.5 126.5q0 91 45.5 150t126.5 59q66 0 101.5 -38.5 t35.5 -111.5q0 -72 -40 -147.5t-109 -137.5q45 -20 94 -20q86 0 151 41.5t96 102.5t31 130q0 115 -81 193q-99 90 -269 90q-93 0 -172.5 -27.5t-132.5 -73.5t-90 -104q-38 -58 -50 -122q-9 -47 -10 -92zM1022 1012q0 -60 21.5 -114.5t62.5 -88.5q61 43 102 117t41 145 q0 113 -98 113q-61 0 -95 -47.5t-34 -124.5z" />
<glyph unicode="T" horiz-adv-x="1925" d="M94 219h47v-29t7 -70.5t21.5 -100t47.5 -105.5t79 -100t123.5 -70.5t174.5 -28.5q160 0 253.5 129t166.5 451q41 171 74.5 284t72.5 205.5t83 145.5t99 84t127 41q-42 16 -79 32q-70 29 -109 43.5t-107.5 35t-140.5 29.5t-155 9q-114 0 -207 -30t-152.5 -78.5 t-100.5 -114t-58 -133.5t-17 -139q0 -61 13 -114t34.5 -90.5t50 -68.5t59.5 -50.5t62.5 -34.5t60 -22t50 -11.5t34.5 -5.5l13 -1l-12 -45q-6 0 -24.5 2.5t-58.5 13t-81 27.5t-86.5 51t-80.5 78.5t-58 115t-23 155.5q0 82 21.5 159t68 146t113.5 120.5t164.5 82t214.5 30.5 q112 0 217 -20t164 -41t147 -58q6 -2 33.5 -13l35 -14t32.5 -12t35 -12t33 -10.5t36.5 -10t35.5 -7t39.5 -6.5t39 -3.5t42.5 -1.5q74 0 133.5 17.5t96 43.5t64 62t40 66t20 63.5t8.5 47t1 22.5h45q0 -7 -1 -21.5t-9.5 -51.5t-23 -72t-45 -76.5t-72 -72t-108.5 -51 t-149 -20.5q-119 0 -235 37q-31 -43 -66 -112.5t-99.5 -252t-127.5 -427.5q-38 -148 -86 -249t-122.5 -176.5t-182.5 -111t-256 -35.5q-104 0 -190.5 31t-145.5 84t-98 123q-40 70 -56 150q-12 58 -12 118q0 22 2 45z" />
<glyph unicode="U" horiz-adv-x="1839" d="M174 766q0 212 130.5 346.5t336.5 134.5q77 0 145.5 -10t107 -21t101.5 -32q72 -26 120.5 -40t143.5 -27t211 -13v-43q-153 0 -245 14q-24 -103 -71.5 -284t-66 -276.5t-18.5 -180.5q0 -116 69 -180t175 -64q59 0 110.5 24t86.5 62.5t57 74t37 71.5l241 1040h43 l-286 -1231q-19 -75 -19 -102q0 -36 18.5 -61t61.5 -25q28 0 53 14.5t36 29.5l11 15l29 -25q-2 -3 -5 -8t-14.5 -17.5t-25 -22t-36.5 -17.5t-48 -8q-63 0 -93 34.5t-30 84.5q0 16 6 50t12 59l7 26l10 47q-25 -38 -58 -74t-77.5 -71t-101.5 -56.5t-117 -21.5q-188 0 -289 99 t-101 269q0 72 13.5 157.5t29 149.5t56 218.5t65.5 257.5l-14 6q-84 31 -159 47t-181 16q-187 0 -304.5 -121t-117.5 -315h-45z" />
<glyph unicode="V" horiz-adv-x="2054" d="M219 664q0 269 176 426t477 157q69 0 246 -14q86 -9 134 -11q20 -1 44 -2q33 0 72 2q68 4 127.5 22t120.5 52l24 -39q-128 -69 -276 -79q-112 -135 -192 -359t-80 -440q0 -115 22.5 -195.5t65 -123t92.5 -60.5t114 -18q103 0 195.5 57.5t161.5 142.5q98 126 166 280.5 t98.5 298.5t40.5 289q5 72 4 136q0 64 -4 120q-10 112 -31 197l43 10q22 -86 32 -200q5 -56 4 -119q0 -67 -5 -144q-10 -149 -41.5 -297.5t-101 -307.5t-170.5 -289q-254 -328 -561 -328q-74 0 -134 23.5t-98.5 61.5t-64.5 89t-37 104t-11 109q0 136 34 274t82 241.5 t110 199.5t108 151.5t86 94.5q-58 0 -180 12q-12 1 -100 7.5t-140 6.5q-286 0 -448 -142.5t-162 -395.5q0 -70 17.5 -130t43.5 -100t61 -73t67 -52t64.5 -32.5t49 -18t26.5 -6.5h1l-10 -43q-4 0 -22.5 4.5t-52 18.5t-71 34.5t-76.5 57t-70 81.5t-51 112.5t-20 146.5z" />
<glyph unicode="W" horiz-adv-x="2727" d="M217 659q0 270 178 429t482 159q122 0 247 -16q71 -5 91.5 -6.5t78.5 -3.5q20 -1 36 -1q32 0 52 3q28 4 75 11.5t87 23t82 38.5l23 -36q-133 -77 -293 -84q-129 -124 -218 -410t-89 -610q0 -84 15.5 -149.5t40 -105t57.5 -65t64.5 -34.5t65.5 -9q50 0 94 13.5t85.5 43.5 t66.5 52t66 63q-33 98 -33 264q0 249 71.5 490.5t190.5 395t246 153.5q61 0 93 -33.5t32 -118.5q0 -175 -112.5 -462.5t-287.5 -526.5q18 -157 100.5 -233t209.5 -76q232 0 419 446q92 222 126 468q17 126 17 239q0 108 -16 206q-32 199 -123 291l31 31q107 -107 139 -327 q15 -101 14 -207q1 -125 -19 -257q-38 -246 -126 -462q-117 -280 -271 -416.5t-353 -136.5q-203 0 -297 162q-29 48 -35 61q-105 -108 -218.5 -165.5t-260.5 -57.5q-88 0 -155 33t-105 90t-57 124.5t-19 143.5q0 160 41.5 320t97.5 275.5t132 226.5t124 166.5t96 103.5 q-69 0 -176 14q-23 1 -72.5 4.5t-90.5 5.5t-80 2q-287 0 -451 -144.5t-164 -398.5q0 -67 16.5 -125.5t41 -98.5t59 -73t64 -52t63.5 -34.5t50 -20t30 -8.5q2 0 3 -1h1l-6 -43q-3 0 -21 4.5t-52.5 18.5t-72 34.5t-77.5 57t-71.5 81.5t-52 113t-20.5 147zM1798 199 q31 45 53 82q134 209 220 446t86 389q0 107 -78 107q-29 0 -68 -17q-25 -24 -49 -60.5t-55 -115t-54 -179.5t-39 -264t-16 -358v-30z" />
<glyph unicode="X" horiz-adv-x="1613" d="M-92 -360h47q10 -89 48 -119.5t114 -30.5t164.5 50.5t173 136.5t167.5 195.5t152.5 233.5t123.5 244.5t84 233.5t30 196q0 126 -18.5 211.5t-55 131t-82 63.5t-108.5 18q-67 0 -134 -20t-130.5 -64.5t-112 -108t-78 -156.5t-29.5 -204q0 -73 18 -135.5t46.5 -103.5 t63 -73.5t69 -50.5t63 -29.5t46.5 -14.5l18 -4l-15 -39l-4 1q-16 4 -31.5 8.5t-53.5 21t-68.5 37t-68.5 57t-64 79.5t-44 107.5t-18 138.5q0 263 152.5 429.5t396.5 166.5q451 0 451 -428q0 -85 -9 -173.5t-16.5 -133t-11.5 -55.5q55 160 134 322.5t174.5 308.5t196.5 259.5 t207 180.5t199 67q116 0 162.5 -50t46.5 -148h-47q-10 89 -48 119t-114 30q-84 0 -187.5 -72.5t-201.5 -188.5t-192.5 -263.5t-165 -294t-113.5 -284.5t-43 -232q0 -109 19.5 -185t57.5 -117.5t85 -59t110 -17.5q109 0 213 55v-47q-108 -51 -235 -51q-469 0 -469 467 q0 101 16 197q-125 -298 -271.5 -525.5t-303 -357t-297.5 -129.5q-116 0 -162.5 50t-46.5 149z" />
<glyph unicode="Y" horiz-adv-x="1460" d="M217 651q0 263 152.5 429.5t396.5 166.5q451 0 451 -428q0 -85 -9 -165.5t-16.5 -114.5t-11.5 -47q65 141 128 262.5t138.5 252.5t152 232t157.5 184t167 127.5t168 44.5q116 0 162.5 -50t46.5 -148h-47q-10 89 -48 119t-114 30q-102 0 -219.5 -89t-225 -232t-212 -325.5 t-187 -366t-143.5 -357.5q-110 -314 -178 -520h-275q14 31 37.5 86t83.5 212t106 300.5t83.5 317t37.5 296.5q0 168 -67 252t-189 84q-67 0 -133.5 -20t-130 -64.5t-112 -108t-78 -156.5t-29.5 -204q0 -73 18 -135.5t46.5 -103.5t63 -73.5t69 -50.5t63 -29.5t46.5 -14.5 l18 -4l-15 -39l-4 1q-16 4 -31.5 8.5t-53.5 21t-68.5 37t-68.5 57t-64 79.5t-44 107.5t-18 138.5z" />
<glyph unicode="Z" horiz-adv-x="1490" d="M43 -86q7 112 71.5 174t170.5 62q45 0 88.5 -7t64.5 -13l21 -7l682 690q-79 21 -181.5 73t-181 99t-169 84t-158.5 37q-84 0 -136 -45v-29q0 -55 21 -99t50.5 -68.5t59.5 -40.5t51 -22l21 -5l-10 -35l-8 2q-9 2 -22.5 6.5t-31 11.5t-37 18.5t-38.5 26t-36.5 35t-31 45 t-21.5 57t-8 68.5q0 135 81 210t229 75q61 0 115.5 -12t109 -40.5t84.5 -47.5t88 -60q67 -47 103 -69.5t98.5 -45t122.5 -22.5q57 0 101 10t65.5 24t35 28t16.5 24l3 10l49 2q0 -44 -7 -85t-28.5 -85t-54.5 -76.5t-90 -53.5t-131 -21q-38 0 -76 6l-684 -694q67 -26 146 -72 t145.5 -88.5t139 -83.5t153.5 -65.5t163 -24.5q121 0 168 47q11 49 11 86h43q0 -156 -83.5 -240t-254.5 -84q-75 3 -158.5 32.5t-154.5 71.5t-152 91t-152.5 90t-154.5 68.5t-158 27.5q-27 0 -48.5 -5.5t-33.5 -12.5t-20 -14.5t-11 -12.5l-2 -6h-47z" />
<glyph unicode="[" horiz-adv-x="581" d="M98 -293l287 1596h375l-4 -37h-129l-277 -1522h125l-4 -37h-373z" />
<glyph unicode="\" horiz-adv-x="1077" d="M266 1346l53 20l719 -1432l-53 -20z" />
<glyph unicode="]" horiz-adv-x="581" d="M0 -293l4 37h129l275 1522h-127l4 37h379l-291 -1596h-373z" />
<glyph unicode="^" horiz-adv-x="675" d="M45 545l334 368h55l197 -381l-51 -24l-181 348l-309 -346z" />
<glyph unicode="_" horiz-adv-x="1236" d="M211 -80l4 37h784l-4 -37h-784z" />
<glyph unicode="`" horiz-adv-x="296" d="M68 1155l53 21l108 -218l-53 -20z" />
<glyph unicode="a" horiz-adv-x="991" d="M121 297q0 234 114 367t297 133q149 0 199 -142q6 42 23 123q70 0 133 5t91 9l28 5l-142 -774q61 6 103 57l30 -25q-61 -73 -153 -73q-89 0 -139 40.5t-58 116.5q-89 -157 -229 -157q-135 0 -216 82.5t-81 232.5zM352 193q0 -92 23.5 -128t68.5 -36q33 0 65.5 20 t55.5 47.5t43.5 62t31.5 58t17 41.5q2 9 54 295q-6 78 -43 135t-93 57q-52 0 -95.5 -54t-70.5 -137.5t-42 -178t-15 -182.5z" />
<glyph unicode="b" horiz-adv-x="944" d="M94 -55l230 1341q-61 -6 -103 -57l-31 24q61 74 154 74q95 0 146 -47t51 -133q0 -17 -4 -53q-33 -184 -80 -439q86 140 221 140q138 0 212.5 -79.5t74.5 -215.5q0 -242 -131 -380t-340 -138q-129 0 -189 86l-172 -123h-39zM354 102q34 -65 125 -65q74 0 132.5 73 t90 197.5t31.5 276.5q0 94 -19.5 129t-62.5 35q-37 0 -73 -24.5t-61 -59t-44.5 -71t-29 -60t-9.5 -25.5h-4q-40 -205 -76 -406z" />
<glyph unicode="c" horiz-adv-x="829" d="M119 276q0 245 122 383t330 138q141 0 217 -71t76 -189q0 -73 -43.5 -112.5t-101.5 -39.5q-62 0 -105 43t-43 104q0 62 43.5 106t104.5 44q19 0 47 -8q-18 33 -58 52t-85 19q-39 0 -77 -18.5t-74 -60.5t-62.5 -102.5t-43 -152t-16.5 -202.5q0 -92 42 -136t108 -44 q61 0 113 24.5t83.5 58.5t54 71t31.5 59.5t9 25.5l36 -16q-2 -11 -7.5 -29t-32.5 -64.5t-64 -82.5t-108 -65t-160 -29q-165 0 -250.5 78.5t-85.5 215.5z" />
<glyph unicode="d" horiz-adv-x="985" d="M119 276q0 243 114 382t297 139q104 0 162 -64q25 -34 31 -49l111 602q-61 -6 -103 -57l-31 24q61 74 154 74q95 0 146 -47t51 -133q0 -17 -4 -53q-101 -564 -195 -1071q60 6 102 57l31 -25q-61 -73 -154 -73q-87 0 -137.5 39.5t-58.5 113.5q-89 -153 -229 -153 q-138 0 -212.5 79t-74.5 215zM350 193q0 -94 19.5 -129t62.5 -35q34 0 66.5 20.5t56 48t44.5 63t31 58t17 41.5l60 324q-2 28 -10 54t-26 55t-54.5 47t-86.5 18q-43 0 -86 -94t-68.5 -226t-25.5 -245z" />
<glyph unicode="e" horiz-adv-x="813" d="M119 276q0 244 121 382.5t323 138.5q260 0 260 -207q0 -129 -122 -195.5t-347 -68.5q-4 -74 -4 -117q0 -92 42 -136t108 -44q61 0 113 24.5t83.5 58.5t54 71t31.5 59.5t9 25.5l36 -16q-2 -11 -7.5 -29t-32.5 -64.5t-64 -82.5t-108 -65t-160 -29q-165 0 -250.5 78.5 t-85.5 215.5zM360 373q412 3 412 217q0 68 -39.5 111.5t-109.5 43.5q-88 0 -163 -94t-100 -278z" />
<glyph unicode="f" horiz-adv-x="622" d="M104 -143l158 884h-125l4 37h127l33 176q32 203 101 288t200 85q74 0 122 -55t48 -162q0 -54 -15 -117.5t-29.5 -103.5t-43.5 -111h78l-4 -37h-90q-70 -174 -70 -264h-37q0 106 68 264h-119q-72 -386 -158 -884h-248zM516 778h127q29 65 45 106.5t30.5 104.5t14.5 121 q0 74 -34 127t-83 53q-22 -82 -100 -512z" />
<glyph unicode="g" horiz-adv-x="952" d="M76 -209q0 62 43.5 104t138.5 42q61 0 123 -16t96 -31t96 -46l9 39l55 301q-91 -170 -238 -170q-278 0 -278 275q0 229 115 368.5t296 139.5q104 0 162 -64q17 -20 33 -55l18 100q70 0 132 5t89 9l27 5l-135 -756q-30 -157 -123 -258q27 -6 60 -6q36 0 68 14.5t45 28.5 l14 14l28 -24q-2 -3 -6 -7.5t-18 -16.5t-30.5 -21.5t-43.5 -17t-57 -7.5q-45 0 -93 10q-139 -127 -356 -127q-129 0 -199.5 44.5t-70.5 123.5zM119 -205q0 -65 59 -98t160 -33q164 0 221 141l-28 14t-30.5 15t-29 14t-31.5 14t-31 11t-35.5 10.5t-35 7.5t-39.5 5.5t-41 1.5 q-67 0 -103 -29.5t-36 -73.5zM352 225q0 -93 19 -125t63 -32t84.5 30t69.5 75.5t46.5 80.5t27.5 65l43 236v14q0 21 -2.5 41.5t-13 48.5t-28 48.5t-51 35.5t-78.5 15q-43 0 -85.5 -86t-68.5 -210t-26 -237z" />
<glyph unicode="h" horiz-adv-x="997" d="M100 0l228 1286q-61 -6 -103 -57l-30 24q61 74 153 74q95 0 146 -47t51 -133q0 -17 -4 -53l-86 -486q84 189 260 189q120 0 188 -68.5t68 -189.5q0 -63 -39 -244.5t-43 -271.5q24 0 49.5 14t39.5 29l13 14l31 -25q-2 -3 -5 -8t-17 -17.5t-32 -22t-49.5 -17.5t-68.5 -8 q-92 0 -139 43t-47 125q0 72 36.5 255.5t36.5 241.5q0 48 -20.5 68t-63.5 20q-70 0 -134 -94t-105 -256l-68 -385h-246z" />
<glyph unicode="i" horiz-adv-x="495" d="M150 152q0 28 4 60.5t14 86.5t14 76l68 366h-86l4 37h88q70 0 133 5t91 9l28 5l-141 -774q60 6 102 57l31 -25q-61 -73 -154 -73t-144.5 47t-51.5 123zM276 1098q0 62 43.5 105.5t104.5 43.5q62 0 105.5 -43.5t43.5 -105.5q0 -61 -43.5 -104.5t-105.5 -43.5t-105 43 t-43 105z" />
<glyph unicode="j" horiz-adv-x="468" d="M-143 -358l14 39q35 -19 74 -19q66 0 94 38t49 146q72 388 166 895h-88l4 37h88q70 0 133 5t91 9l28 5q-20 -110 -67 -367.5t-66 -368.5q-38 -219 -139.5 -328.5t-286.5 -109.5q-29 0 -52.5 4.5t-32.5 9.5zM281 1098q0 62 43 105.5t104 43.5q62 0 106 -44t44 -105 t-44 -104.5t-106 -43.5q-61 0 -104 43t-43 105z" />
<glyph unicode="k" horiz-adv-x="962" d="M98 0l232 1286q-61 -6 -103 -57l-30 24q61 74 153 74q95 0 146 -47t51 -133q0 -17 -4 -53q-48 -262 -103 -562q51 126 148 195.5t223 69.5q90 0 134 -43.5t44 -110.5q0 -62 -39 -102.5t-100 -40.5q-64 0 -97.5 35.5t-33.5 89.5q0 88 49 125q-195 -22 -313 -291q28 4 49 4 q80 0 135 -23.5t81 -60.5t40.5 -82t20 -90t13 -82t27 -60.5t53.5 -23.5q15 0 28 4t21 9.5t14 11.5t9 10l2 4l31 -25q-2 -3 -5 -8t-17 -17.5t-32 -22t-49.5 -17.5t-68.5 -8q-70 0 -119.5 21t-76 55t-44 76t-29 85t-24.5 79.5t-37.5 63t-60.5 33.5q-13 -67 -38.5 -201.5 t-35.5 -193.5h-244z" />
<glyph unicode="l" horiz-adv-x="569" d="M127 162q0 17 4 53l133 737q36 203 101.5 289t171.5 86q74 0 122 -55t48 -162q0 -77 -27.5 -167.5t-60 -160.5t-60 -154.5t-27.5 -150.5h-36q0 73 27 158.5t59 151.5t59 154.5t27 168.5q0 74 -34 127t-83 53q-2 -53 -70.5 -476.5t-136.5 -790.5q36 0 69.5 24.5t56 59.5 t40 70.5t25.5 60.5l8 24l37 -16q-3 -11 -8.5 -28.5t-27 -63t-48 -80.5t-73 -63.5t-99.5 -28.5q-95 0 -146 47t-51 133z" />
<glyph unicode="m" horiz-adv-x="1525" d="M133 0l135 756q-59 -6 -102 -58l-31 25q61 74 154 74q95 0 145.5 -47t50.5 -134v-6q37 88 94.5 137.5t147.5 49.5q114 0 181 -63t73 -175q39 113 98.5 175.5t163.5 62.5q120 0 188 -68.5t68 -189.5q0 -63 -39 -244.5t-43 -271.5q24 0 49.5 14t39.5 29l14 14l30 -25 q-2 -3 -5 -8t-17 -17.5t-32 -22t-49.5 -17.5t-68.5 -8q-92 0 -139 43t-47 125q0 72 37 255.5t37 241.5q0 48 -20.5 68t-63.5 20q-130 0 -219 -352q-5 -25 -18 -85t-20.5 -96t-15 -87t-8.5 -92q24 0 49.5 14t39.5 29l14 14l30 -25q-2 -3 -5 -8t-17 -17.5t-32 -22t-49.5 -17.5 t-68.5 -8q-92 0 -139 43t-47 125q0 72 37 255.5t37 241.5q0 48 -20.5 68t-63.5 20q-127 0 -213 -325l-74 -410h-246z" />
<glyph unicode="n" horiz-adv-x="1021" d="M127 723q61 74 154 74q95 0 145.5 -47t50.5 -134v-12q83 193 262 193q120 0 188 -68.5t68 -189.5q0 -63 -39 -244.5t-43 -271.5q24 0 49.5 14t39.5 29l14 14l31 -25q-2 -3 -5.5 -8t-17.5 -17.5t-31.5 -22t-49.5 -17.5t-69 -8q-92 0 -139 43t-47 125q0 72 37 255.5 t37 241.5q0 48 -20.5 68t-63.5 20q-67 0 -130 -88t-104 -241l-69 -383q62 6 104 57l31 -25q-61 -73 -154 -73t-144.5 47t-51.5 123q0 28 4.5 61.5t14.5 86.5t14 77l67 379q-59 -6 -102 -58z" />
<glyph unicode="o" d="M121 276q0 80 12 150t44.5 140t85 119.5t139 80.5t200.5 31q156 0 239 -79t83 -216q0 -152 -52.5 -267.5t-162.5 -184t-267 -68.5q-158 0 -239.5 78.5t-81.5 215.5zM352 193q0 -164 94 -164q63 0 119.5 74.5t91.5 204t35 278.5q0 87 -20.5 129.5t-71.5 42.5 q-94 0 -171 -156.5t-77 -408.5z" />
<glyph unicode="p" horiz-adv-x="980" d="M76 -303l192 1073q-60 -6 -102 -57l-31 24q61 74 154 74q90 0 140.5 -44t55.5 -124q89 154 230 154q138 0 212 -79.5t74 -215.5q0 -242 -131 -380t-340 -138q-95 0 -149 43l-62 -330h-243zM395 109q33 -78 129 -78q65 0 122 74.5t90.5 202.5t33.5 278q0 94 -19.5 129 t-62.5 35q-37 0 -73 -24.5t-61 -59t-44.5 -71t-29 -60t-9.5 -25.5h-2z" />
<glyph unicode="q" horiz-adv-x="952" d="M119 276q0 243 114 382t297 139q146 0 193 -123q3 16 10 50t10 54q70 0 133 5t91 9l28 5l-207 -1131q60 6 103 58l31 -25q-61 -74 -154 -74q-95 0 -146 47t-51 133q0 31 19 132q11 63 31 176q-83 -131 -215 -131q-138 0 -212.5 79t-74.5 215zM350 193q0 -94 19.5 -129 t62.5 -35q37 0 73 24.5t61 59t44.5 70.5t29 59.5t9.5 25.5l53 289v8q0 21 -2.5 41.5t-13 49.5t-27.5 50t-50.5 36.5t-78.5 15.5q-43 0 -86 -94t-68.5 -226t-25.5 -245z" />
<glyph unicode="r" horiz-adv-x="802" d="M131 0l135 756q-59 -6 -102 -58l-31 25q61 74 154 74q95 0 145.5 -47t50.5 -134v-12q47 100 105 146.5t135 46.5q80 0 119 -39.5t39 -124.5q0 -54 -28.5 -114t-62 -103.5t-62 -96.5t-28.5 -96h-49q0 49 27.5 105t60.5 99t60.5 97.5t27.5 100.5q0 74 -27.5 99.5 t-76.5 25.5q-35 0 -68.5 -18.5t-58.5 -45t-49.5 -64.5t-39.5 -69t-29 -67t-18.5 -50t-8.5 -26v-2l-74 -408h-246z" />
<glyph unicode="s" horiz-adv-x="753" d="M72 219q0 85 45 124.5t106 39.5q62 0 102 -40t40 -101q0 -63 -39.5 -106.5t-100.5 -43.5q-27 0 -55 8q45 -65 143 -65q106 0 154.5 74.5t48.5 224.5q0 74 -22 174t-25 125q-124 -128 -281 -156v49q147 33 277 168v8q0 50 14.5 97.5t28.5 69.5l14 22h49q0 -74 19 -135.5 t46.5 -106t54.5 -89t46 -106t19 -135.5q0 -145 -109.5 -241t-277.5 -96q-140 0 -218.5 69.5t-78.5 167.5z" />
<glyph unicode="t" horiz-adv-x="659" d="M139 741l4 37h105q8 49 27 150t28 153q70 0 133 4.5t91 9.5l28 5q-28 -144 -63 -322h253l-4 -37h-256q-102 -529 -102 -637q0 -31 17 -48t46 -17q52 0 99 47.5t74.5 107.5t42.5 123l36 -12q-76 -323 -313 -323q-99 0 -164 54t-65 148q0 99 84 557h-101z" />
<glyph unicode="u" horiz-adv-x="1021" d="M115 723q2 3 5 8t17 18t32 22.5t49.5 17.5t68.5 8q92 0 139 -43t47 -125q0 -72 -37 -256t-37 -242q0 -48 20.5 -68t63.5 -20q60 0 116 69t97 193l86 473q70 0 132 5t89 9l27 5l-137 -774q60 6 102 57l31 -25q-61 -73 -154 -73t-143.5 45t-52.5 127q-86 -172 -254 -172 q-120 0 -188 68.5t-68 189.5q0 63 39 244.5t43 271.5q-24 0 -49.5 -14.5t-39.5 -29.5l-14 -14z" />
<glyph unicode="v" d="M111 694q2 4 6.5 11t21 25t36.5 31.5t54.5 24.5t73.5 11q90 0 136 -49t46 -134q0 -68 -41 -226t-41 -234q0 -54 30 -90.5t85 -36.5q89 0 173.5 68.5t137 181t52.5 233.5q0 15 -4 43q-43 -53 -115 -53q-62 0 -105 43t-43 104q0 62 43.5 106t104.5 44q47 0 85.5 -28 t53.5 -71q2 -2 2 -4v-2q25 -58 25 -182q0 -57 -13.5 -122.5t-47 -139t-82.5 -131.5t-128.5 -96.5t-175.5 -38.5q-132 0 -214.5 81.5t-82.5 204.5q0 90 38 247t42 241q-32 -2 -63 -23.5t-45 -42.5l-15 -20z" />
<glyph unicode="w" horiz-adv-x="1411" d="M111 694q2 4 6.5 11t21 25t36.5 31.5t54.5 24.5t73.5 11q90 0 136 -49t46 -134q0 -68 -41 -226t-41 -234q0 -54 30 -90.5t85 -36.5q120 0 203 123q-23 61 -23 118q0 90 38 247t42 241q-32 -2 -63 -23.5t-45 -42.5l-15 -20l-30 24q2 4 6.5 11t21 25t36.5 31.5t54.5 24.5 t73.5 11q90 0 136 -49t46 -134q0 -68 -40.5 -226t-40.5 -234q0 -54 30 -90.5t84 -36.5q89 0 171.5 68.5t132.5 181t50 233.5q0 15 -4 43q-43 -53 -114 -53q-62 0 -105 43t-43 104q0 62 43.5 106t104.5 44q47 0 85.5 -28t53.5 -71q2 -2 2 -4v-2q25 -58 25 -182 q0 -58 -12.5 -123t-45 -138.5t-80.5 -131.5t-126.5 -96.5t-174.5 -38.5q-164 0 -245 118q-96 -118 -269 -118q-132 0 -214.5 81.5t-82.5 204.5q0 90 38 247t42 241q-32 -2 -63 -23.5t-45 -42.5l-15 -20z" />
<glyph unicode="x" horiz-adv-x="970" d="M115 131q0 100 93 171t230 85l-112 281q-13 33 -30 48t-50 15q-25 0 -47.5 -17.5t-32.5 -34.5l-10 -17l-31 18q12 21 19.5 32.5t25 30t36.5 28.5t51 18t71 8q100 0 155 -41t84 -111l84 -209q127 12 199 64h-2q-62 0 -105 43t-43 104q0 62 43.5 106t104.5 44t105 -44 t44 -106q0 -104 -95.5 -174.5t-231.5 -83.5l106 -260q13 -33 31 -48t51 -15q25 0 47 17t31 35l10 17l33 -18q-12 -21 -19.5 -32.5t-25 -30t-36.5 -28.5t-51 -18t-71 -8q-178 0 -241 152l-78 188q-122 -12 -195 -61h2q62 0 105 -43.5t43 -104.5q0 -62 -43.5 -105.5 t-104.5 -43.5q-62 0 -105.5 44t-43.5 105z" />
<glyph unicode="y" horiz-adv-x="989" d="M113 -209q0 61 43 103.5t135 42.5q66 0 133 -26t98 -30l-4 -37q-36 3 -101 28.5t-126 25.5q-67 0 -101 -29.5t-34 -73.5q0 -64 58.5 -97.5t147.5 -33.5q119 0 179.5 69t83.5 187l51 283q-40 -90 -102 -139.5t-158 -49.5q-119 0 -183.5 68t-64.5 190q0 63 38 228.5 t42 255.5q-24 0 -49.5 -14.5t-39.5 -29.5l-14 -14l-30 25q2 3 5 8t17 18t32 22.5t49.5 17.5t68.5 8q92 0 139 -43t47 -125q0 -72 -39 -234.5t-39 -220.5q0 -98 82 -98q67 0 132 92.5t106 247.5l67 362q70 0 132 5t89 9l27 5l-129 -725q-37 -211 -171 -330t-347 -119 q-129 0 -199.5 44.5t-70.5 123.5z" />
<glyph unicode="z" horiz-adv-x="858" d="M84 0l537 725q-106 4 -190 18.5t-126 14.5q-61 0 -96 -34.5t-35 -90.5q0 -21 7 -43t13 -34l7 -11l-37 -15q-33 41 -33 107q0 70 46.5 115t123.5 45q53 0 163 -19.5t238 -19.5q144 2 209 18l-542 -723q74 -22 113 -27.5t124 -7.5q52 0 96 19t69.5 46t43.5 53.5t25 45.5 l6 19l35 -13q-7 -31 -24 -62.5t-48 -66t-84 -56t-119 -21.5q-82 0 -146 9t-96 19.5t-72 19.5t-79 9q-26 0 -49 -9.5t-33 -19.5l-10 -10h-37z" />
<glyph unicode="{" horiz-adv-x="595" d="M127 526q56 68 141 74l88 479q20 111 89 167.5t169 56.5q93 0 154 -74l-31 -25q-43 52 -102 58l-98 -572q-4 -30 -15 -54.5t-23.5 -38.5t-24.5 -23.5t-20 -13.5l-8 -3q2 -2 5 -6t11.5 -17.5t12.5 -29.5t7.5 -42.5t-3.5 -55.5l-112 -658q60 6 102 57l31 -24 q-61 -74 -154 -74q-95 0 -145.5 46.5t-50.5 133.5q0 18 4 54q12 111 106 618q-60 -6 -102 -57z" />
<glyph unicode="|" horiz-adv-x="368" d="M109 -252l268 1514h61l-268 -1514h-61z" />
<glyph unicode="}" horiz-adv-x="598" d="M6 -219l31 24q42 -51 102 -57l99 571q4 30 14.5 54.5t23 38.5t24.5 24t20 14l8 3q-2 2 -5 6t-11.5 17.5t-12.5 29.5t-7.5 42.5t3.5 55.5l113 658q-60 -6 -103 -58l-31 25q61 74 154 74q95 0 146 -47t51 -134q0 -17 -4 -53q-13 -111 -107 -618q60 6 102 57l31 -25 q-55 -67 -141 -73l-88 -480q-20 -110 -88.5 -166.5t-169.5 -56.5q-93 0 -154 74z" />
<glyph unicode="~" horiz-adv-x="1015" d="M190 530q4 11 12 29t37 64t62.5 81t89.5 64t117 29q45 0 76.5 -12t47.5 -32t26 -43.5t18 -47t18.5 -43.5t32 -32t53.5 -12q47 0 90.5 23t71.5 55.5t49.5 65t30.5 55.5l10 23h53q-3 -11 -10 -29.5t-34 -65.5t-59.5 -83t-88 -65.5t-119.5 -29.5q-59 0 -93 23t-47 56 t-24.5 66t-37 56t-72.5 23q-41 0 -81.5 -22.5t-69.5 -54.5t-51 -64t-33.5 -54.5t-10.5 -22.5h-64z" />
<glyph unicode="&#xa1;" horiz-adv-x="413" d="M113 -332l182 1000l55 -6l-178 -1002zM258 831q0 43 30.5 73t73.5 30t73 -30t30 -73t-30 -73.5t-73 -30.5t-73.5 30.5t-30.5 73.5z" />
<glyph unicode="&#xa2;" horiz-adv-x="841" d="M121 276q0 245 122 383t330 138h11l67 385h62l-70 -391q108 -18 165.5 -86t57.5 -168q0 -73 -43.5 -112.5t-101.5 -39.5q-62 0 -105 43t-43 104q0 62 43.5 106t104.5 44q19 0 47 -8q-18 33 -58 52t-85 19q-39 0 -77 -18.5t-74 -60.5t-62.5 -102.5t-43 -152t-16.5 -202.5 q0 -92 42 -136t108 -44q61 0 113 24.5t83.5 58.5t54 71t31.5 59.5t9 25.5l36 -16q-2 -10 -7 -26.5t-29 -60t-56.5 -78t-95.5 -66t-141 -37.5l-56 -316h-61l55 314q-156 4 -236.5 82t-80.5 212z" />
<glyph unicode="&#xa3;" horiz-adv-x="1583" d="M18 -143q0 71 58.5 115t175.5 44q95 0 160.5 -30t126.5 -88q26 84 41 168l63 366h-285l4 37h287l68 389q20 124 61.5 216.5t93 147t120.5 87.5t132.5 44t139.5 11q65 0 122 -13.5t109.5 -46t90.5 -81.5t60.5 -124t22.5 -169h-49q0 182 -87 277.5t-220 95.5 q-120 0 -193.5 -78t-95.5 -226q0 -3 -10 -68t-31.5 -196t-46.5 -266h559l-4 -37h-561q-6 -38 -51 -272q-44 -239 -230 -371q8 -8 32.5 -30.5t34 -31t33 -27t39.5 -26t44 -19.5t54.5 -17t64 -9t79.5 -4q67 0 125.5 24t98 62t70.5 81t49 84t28 67.5t12 34.5v2l49 -17 q-54 -174 -169 -276.5t-269 -102.5q-46 0 -86 4.5t-69 9.5t-59.5 19t-47 21t-43 28.5t-35.5 29t-37 34.5t-35 34q-130 -77 -288 -77q-146 0 -226 48t-80 122zM68 -143q0 -59 66 -95t190 -36q58 0 127 16q39 35 71 111q-65 62 -124 93t-142 31q-88 0 -138 -31.5t-50 -88.5z " />
<glyph unicode="&#xa4;" horiz-adv-x="1445" d="M117 362l4 37h201q0 96 14 176h-178l4 37h182q66 286 292 460.5t554 174.5q180 0 260 -64.5t80 -201.5q0 -41 -14.5 -84.5t-30.5 -71t-45 -71.5q-29 -47 -41.5 -68.5t-26.5 -61.5t-14 -75h-45q0 13 1.5 26.5t3.5 24.5t7 25.5t7 22.5t10 23.5t10.5 21t12.5 22.5t12 20.5 t13.5 22t12.5 20.5q28 43 41.5 66t26 60t12.5 73q0 34 -4.5 61t-22 60t-47.5 54.5t-86 36.5t-133 15q-45 0 -123 -8q-57 -17 -109 -43.5t-109.5 -74t-104 -109t-87 -153.5t-63.5 -204h496l-5 -37h-497q-15 -83 -21 -176h482l-5 -37h-479q-2 -29 -2 -83q0 -307 199 -406 q50 -6 102 -6q79 0 148.5 16.5t117 43.5t86 59t61.5 64.5t38.5 59.5t21.5 44l6 16l41 -16q-2 -7 -6 -18.5t-21.5 -46t-40.5 -65.5t-65.5 -68.5t-93.5 -65t-127.5 -46t-165.5 -18.5q-251 0 -392 139t-150 397h-205z" />
<glyph unicode="&#xa5;" horiz-adv-x="2072" d="M199 651q0 263 152.5 429.5t396.5 166.5q450 0 450 -428q0 -85 -9 -165.5t-16.5 -114.5t-11.5 -47q55 120 108 225t118 219.5t127 207.5t133 179t139 144.5t142 93t145 34.5q110 0 158.5 -47.5t54.5 -150.5h-52q-10 89 -48 118t-115 29q-89 0 -189 -70.5t-190.5 -181.5 t-186 -267t-172.5 -307t-153 -321h372l-4 -37h-385q-16 -35 -42.5 -99t-35.5 -85l-2 -2h428l-4 -37h-438q-49 -121 -80 -212t-53 -169.5t-29 -99.5h-274q96 216 188 481q-93 3 -178.5 21t-167.5 57.5t-142.5 96.5t-97 144.5t-36.5 194.5zM242 651q0 -87 25.5 -160t71 -123.5 t102.5 -89t125 -60.5t134 -32.5t134 -11.5q25 72 57 186h-332l4 37h338q80 283 80 471q0 168 -67 252t-189 84q-67 0 -133.5 -20t-130 -64.5t-112 -108t-78 -156.5t-29.5 -204z" />
<glyph unicode="&#xa6;" horiz-adv-x="387" d="M119 -252l114 651h62l-115 -651h-61zM281 659l106 603h62l-107 -603h-61z" />
<glyph unicode="&#xa7;" horiz-adv-x="946" d="M141 455q0 48 17 88.5t34 56.5l17 16l31 -22q-6 -7 -15 -19t-24 -49.5t-15 -74.5q0 -75 56 -128t141 -53q106 0 154.5 74.5t48.5 224.5q0 80 -31 183t-31 170q0 96 52 150t145 54q20 0 35.5 -1.5t20.5 -2.5l5 -2v-57q-6 1 -15.5 1.5t-33.5 -2t-43 -11t-34 -31t-15 -55.5 q0 -44 19 -85t46 -74t54 -67.5t46 -82t19 -101.5q0 -65 -24 -121q31 -51 47 -80.5t31.5 -86.5t15.5 -120q0 -145 -113 -241t-282 -96q-144 0 -216.5 68.5t-72.5 168.5q0 48 17 88.5t34 56.5l17 17l30 -23q-6 -7 -15 -19t-23.5 -49.5t-14.5 -74.5q0 -75 56 -127.5t141 -52.5 q105 0 153.5 74t48.5 225q0 44 -8 106q-94 -51 -217 -51q-144 0 -216.5 69t-72.5 169z" />
<glyph unicode="&#xa8;" horiz-adv-x="972" d="M203 1206q0 50 34.5 85.5t84.5 35.5q49 0 84.5 -35.5t35.5 -85.5q0 -51 -35 -85t-85 -34q-51 0 -85 34t-34 85zM530 1206q0 50 34.5 85.5t84.5 35.5q49 0 85 -35.5t36 -85.5t-35.5 -84.5t-85.5 -34.5q-51 0 -85 34t-34 85z" />
<glyph unicode="&#xa9;" horiz-adv-x="1396" d="M174 455q0 78 19 153q39 182 145.5 321.5t262.5 215.5t337 76q231 0 365.5 -123.5t134.5 -333.5q0 -77 -17 -152q-58 -276 -264.5 -445t-482.5 -169q-234 0 -367 122.5t-133 334.5zM238 471q0 -197 120.5 -310.5t329.5 -113.5q240 0 427.5 158.5t248.5 402.5 q14 63 14 142q0 192 -119 305.5t-335 113.5q-245 0 -431 -153.5t-241 -403.5q-14 -71 -14 -141zM432 502q0 53 14 108q18 84 57 159t96 134t135 94t167 35q95 0 162 -33.5t106 -113.5l-53 -31q-67 131 -227 131q-73 0 -138.5 -32t-113 -85.5t-81 -118.5t-50.5 -135 q-10 -44 -10 -104q0 -121 61 -197.5t174 -76.5q178 0 291 131l33 -33q-65 -73 -152.5 -111.5t-181.5 -38.5q-140 0 -214.5 90.5t-74.5 227.5z" />
<glyph unicode="&#xaa;" horiz-adv-x="772" d="M252 987q0 161 78.5 251.5t204.5 90.5q104 0 135 -98l16 86q48 0 91.5 3t62.5 6l20 3l-98 -530q44 3 72 39l20 -17q-42 -51 -106 -51q-60 0 -96 28t-40 79q-63 -107 -155 -107q-93 0 -149 57t-56 160zM412 915q0 -64 15.5 -88t47.5 -24q29 0 56.5 21.5t46 52.5t29 53.5 t14.5 34.5l36 194q-5 56 -30 95.5t-64 39.5q-46 0 -82 -63.5t-52.5 -148t-16.5 -167.5z" />
<glyph unicode="&#xab;" horiz-adv-x="880" d="M137 395l10 54q266 89 369 191q39 39 47 77h43q-10 -51 -56 -100t-113 -86.5t-128 -63.5t-125 -47q57 -23 106 -49t101 -63.5t77 -84.5t13 -96h-43q22 105 -181 213q-31 17 -120 55zM440 395l11 54q22 7 36.5 12.5t70.5 26.5t97.5 43.5t91 52t81 64.5t38.5 69h43 q-10 -51 -56 -100t-113 -86.5t-128 -63.5t-125 -47q57 -23 106 -49t101 -63.5t77 -84.5t13 -96h-43q22 105 -181 213q-31 17 -120 55z" />
<glyph unicode="&#xac;" horiz-adv-x="1323" d="M190 377l9 55h1081l-96 -577h-56l91 522h-1029z" />
<glyph unicode="&#xad;" horiz-adv-x="649" d="M184 377l4 37h416l-4 -37h-416z" />
<glyph unicode="&#xae;" horiz-adv-x="1396" d="M174 455q0 78 19 153q39 182 145.5 321.5t262.5 215.5t337 76q231 0 365.5 -123.5t134.5 -333.5q0 -77 -17 -152q-58 -276 -264.5 -445t-482.5 -169q-234 0 -367 122.5t-133 334.5zM238 471q0 -197 120.5 -310.5t329.5 -113.5q240 0 427.5 158.5t248.5 402.5 q14 63 14 142q0 192 -119 305.5t-335 113.5q-245 0 -431 -153.5t-241 -403.5q-14 -71 -14 -141zM455 215h57l68 332h270l96 -332h64q-15 50 -47 165t-50 171q102 18 170 86.5t84 150.5q23 98 -33.5 168t-179.5 70h-327q-28 -137 -85.5 -405.5t-86.5 -405.5zM592 592l82 385 h270q96 0 139 -55.5t25 -137.5q-19 -81 -82 -136.5t-160 -55.5h-274z" />
<glyph unicode="&#xb0;" horiz-adv-x="694" d="M250 975q0 54 9.5 101.5t33 93.5t60 78.5t95 52.5t132.5 20q110 0 167.5 -55.5t57.5 -151.5q0 -160 -85.5 -258t-246.5 -98q-111 0 -167 56.5t-56 160.5zM299 979q0 -180 176 -180q136 0 210.5 80t74.5 231q0 82 -47.5 127t-132.5 45q-129 0 -205 -74.5t-76 -228.5z" />
<glyph unicode="&#xb1;" horiz-adv-x="995" d="M119 41l8 51h784l-8 -51h-784zM184 467l9 51h354l49 279h61l-49 -279h369l-8 -51h-369l-51 -272h-62l52 272h-355z" />
<glyph unicode="&#xb2;" horiz-adv-x="641" d="M219 803q59 38 225 139q101 64 129.5 107.5t28.5 113.5q0 50 -29 83.5t-75 33.5q-38 0 -76.5 -30t-59 -58.5t-20.5 -34.5l-23 14q7 15 21 33.5t46 51t86 54t118 21.5q151 0 151 -131q0 -28 -8 -52.5t-30 -50.5t-42.5 -45.5t-65.5 -50t-77 -50.5t-98 -60l-135 -84h348 l69 162l23 -8l-74 -183h-424z" />
<glyph unicode="&#xb3;" horiz-adv-x="598" d="M176 682l29 -2q0 -53 37.5 -76.5t91.5 -23.5q108 0 195 69.5t87 167.5q0 68 -40 101.5t-107 33.5l-59 -6l-9 29q52 17 80.5 30t57.5 36t41 56.5t12 82.5q0 52 -30 78t-66 24q-33 0 -67.5 -24.5t-50.5 -44.5t-20 -27l-24 12q89 133 250 133q64 0 99.5 -30.5t35.5 -86.5 q0 -41 -21 -79t-56.5 -67t-72 -50.5t-77.5 -38.5q67 -4 106 -37q53 -41 53 -123q0 -78 -48 -140.5t-120 -95t-149 -32.5q-158 0 -158 131z" />
<glyph unicode="&#xb4;" horiz-adv-x="296" d="M68 958l108 218l53 -21l-108 -217z" />
<glyph unicode="&#xb5;" horiz-adv-x="1128" d="M147 -184q32 176 64 343t48 248.5t29.5 156.5t19 115.5t7.5 76.5q-24 0 -49.5 -14.5t-39.5 -29.5l-13 -14l-31 25q2 3 5 8t17 18t32 22.5t49.5 17.5t68.5 8q92 0 139.5 -43t47.5 -125q0 -70 -38 -248.5t-38 -245.5q0 -92 86 -92q60 0 116 69t97 193l86 473q70 0 132 5 t89 9l27 5l-137 -774q60 6 102 57l31 -25q-61 -73 -154 -73t-144 45t-53 127q-86 -172 -254 -172q-18 0 -34 3.5t-23 6.5l-6 4l-31 -180h-248z" />
<glyph unicode="&#xb6;" horiz-adv-x="1157" d="M178 686q0 249 226 405t612 156q3 20 10 63t12.5 76.5t5.5 34.5l41 -8q0 -1 -5.5 -33.5t-12.5 -73.5t-10 -59h16q111 0 230 -14v-41l-109 12q-11 -98 -64.5 -441t-107.5 -613q-21 -112 -78.5 -204.5t-135 -150t-165.5 -88.5t-176 -31v39q67 4 131.5 21t127 52t113 84.5 t89 122t55.5 159.5q51 266 103 600.5t67 451.5q-12 0 -39 1t-41 1h-20q-92 -622 -160 -985q-22 -114 -71 -196.5t-123.5 -133t-162 -77.5t-198.5 -37v43q66 0 128.5 12.5t127 44t115.5 79.5t90 124.5t55 173.5l4 25q-141 -14 -263 4t-215.5 66t-147.5 134t-54 201z" />
<glyph unicode="&#xb7;" horiz-adv-x="497" d="M184 487q0 62 43.5 106t104.5 44t105 -44t44 -106q0 -61 -43.5 -104t-105.5 -43t-105 43t-43 104z" />
<glyph unicode="&#xb8;" horiz-adv-x="561" d="M90 -238q0 67 51 107.5t150 40.5l18 94h37l-22 -133h-33q-71 0 -113.5 -29.5t-42.5 -81.5q0 -98 148 -98q47 0 89 13t60 27l19 13l20 -34q-7 -6 -20 -16t-62.5 -26t-107.5 -16q-191 0 -191 139z" />
<glyph unicode="&#xb9;" horiz-adv-x="417" d="M233 778l158 482l-100 -21l-8 27l313 63l-197 -551h-166z" />
<glyph unicode="&#xba;" horiz-adv-x="690" d="M252 973q0 55 8.5 102.5t31 95.5t58.5 82t95.5 55t136.5 21q108 0 164.5 -54t56.5 -149q0 -160 -85 -258t-245 -98q-108 0 -164.5 54t-56.5 149zM412 915q0 -112 63 -112q67 0 118.5 113.5t51.5 269.5q0 59 -14.5 88t-48.5 29q-65 0 -117.5 -107.5t-52.5 -280.5z" />
<glyph unicode="&#xbb;" horiz-adv-x="880" d="M121 127q10 51 56 100t113 86.5t128 63.5t125 47q-57 23 -106 49t-101 63.5t-77 84.5t-13 96h43q-22 -105 181 -213q37 -20 120 -55l-10 -54q-266 -89 -369 -191q-39 -40 -47 -77h-43zM424 127q10 51 56 100t113 86.5t128 63.5t125 47q-57 23 -106 49t-101 63.5t-77 84.5 t-13 96h43q-22 -105 181 -213q37 -20 120 -55l-10 -54q-266 -89 -369 -191q-39 -40 -47 -77h-43z" />
<glyph unicode="&#xbc;" horiz-adv-x="1189" d="M223 778h180l207 576l-338 -70l13 -39l96 21zM242 -70l727 1444l39 -16l-725 -1444zM512 -12h408l-91 -260l45 -2l95 262h164v145h-113l158 445l-666 -555v-35zM709 133l376 318l-112 -318h-264z" />
<glyph unicode="&#xbd;" horiz-adv-x="1153" d="M225 778h181l206 576l-338 -70l13 -39l96 21zM244 -70l723 1444q7 -3 22.5 -7t22.5 -7l-727 -1446zM602 23l10 -35h441l80 194l-35 15l-72 -168h-324l115 73q65 39 100 61t80 52t67 51t44 48t30.5 53t8.5 55q0 139 -160 139q-55 0 -104 -16.5t-78.5 -38t-54.5 -49.5 t-34 -41.5t-14 -24.5l39 -22q0 6 20 36t57.5 61.5t74.5 31.5q43 0 71.5 -33t28.5 -80q0 -64 -31.5 -109.5t-127.5 -109.5l-52 -31z" />
<glyph unicode="&#xbe;" horiz-adv-x="1382" d="M166 692q0 -145 166 -145q126 0 228 79t102 199q0 83 -56 129q-46 31 -88 39q87 38 150 99t63 137q0 59 -38 92t-107 33q-165 0 -262 -146l36 -18q1 3 8 12t21 24.5t30 29.5t37.5 24t41.5 10q34 2 62 -22.5t28 -75.5q0 -48 -12 -81.5t-41.5 -56t-58.5 -35.5t-83 -30 l13 -43q34 8 65 8q64 0 103.5 -32.5t39.5 -98.5q0 -97 -86.5 -165t-195.5 -68q-52 0 -87.5 23t-35.5 77zM434 -70l725 1444q7 -3 21.5 -7t21.5 -7l-725 -1446zM705 -12h409l-90 -260l43 -2l94 262h164v145h-113l160 445l-667 -555v-35zM903 133l377 318q-20 -56 -58 -158.5 t-57 -159.5h-262z" />
<glyph unicode="&#xbf;" horiz-adv-x="944" d="M92 -25q0 49 12 99q15 57 40.5 107.5t63.5 95.5t69 75.5t79 71.5q73 64 124.5 122.5t90.5 135.5l50 -25q-29 -60 -70 -113.5t-72.5 -82.5t-85.5 -74q-85 -69 -143 -141.5t-90 -175.5q-8 -36 -8 -78q0 -120 70 -189t210 -69q86 0 160.5 30.5t126.5 82.5t86.5 116.5 t48.5 136.5h59q-35 -180 -167.5 -302t-321.5 -122q-158 0 -245 83t-87 216zM535 831q0 43 30.5 73t73.5 30t72.5 -30t29.5 -73t-29.5 -73.5t-72.5 -30.5t-73.5 30.5t-30.5 73.5z" />
<glyph unicode="&#xc0;" horiz-adv-x="2353" d="M109 254q0 107 35.5 209.5t101 185.5t169.5 134t230 51q215 0 338 -138q30 -39 41 -55q108 -45 252 -156q95 -77 158 -118q15 25 40.5 72t36.5 67q51 93 78 141t79 133.5t87 130.5t91 111t102.5 98.5t111 69.5t127.5 47.5t140 8.5t159 -25l-10 -39q-50 13 -104 20 q-29 -110 -69 -282.5t-97 -485.5t-70 -518q26 0 51.5 14t38.5 28l12 15l31 -24q-2 -3 -6 -8t-18 -18t-30 -22.5t-43 -17.5t-56 -8q-110 0 -170 49t-60 150q0 51 15 182q-102 -31 -177 -31q-136 0 -274 84q-62 -108 -116 -189t-127.5 -164.5t-147 -136.5t-168.5 -86.5 t-199 -33.5q-284 0 -442 172q-141 157 -141 383zM150 254q0 -103 34 -194.5t97 -159.5q148 -160 411 -160q82 0 157.5 21.5t141 63.5t121.5 93t111 122.5t98.5 138t93.5 153.5q-74 48 -164 121q-109 84 -196 129q35 -84 35 -179q0 -71 -21.5 -139t-60.5 -123t-102 -89 t-138 -34q-96 0 -156.5 57.5t-60.5 129.5q0 52 18 92t42 60t52 33t43 16.5t19 3.5l4 -41q-4 0 -16 -2.5t-33.5 -13t-40.5 -27t-33 -48.5t-14 -73q0 -58 48.5 -102t127.5 -44q88 0 154 51t97.5 127.5t31.5 165.5q0 110 -52 203q-111 43 -223 43q-175 0 -268 -136 q-13 -20 -33 -62l-39 12l1 3q50 116 153 176q82 48 186 48q93 0 182 -26l-4 6q-114 123 -309 123q-116 0 -212.5 -47.5t-156.5 -125t-93 -172.5t-33 -194zM1470 344q68 -40 131 -60.5t143 -18.5t163 36q51 355 184 860q-56 -26 -108 -65.5t-101.5 -96t-88 -106.5t-87 -130.5 t-78 -132.5t-80.5 -145zM2098 1544l53 21l108 -218l-53 -20z" />
<glyph unicode="&#xc1;" horiz-adv-x="2353" d="M109 254q0 -226 141 -383q158 -172 442 -172q104 0 199 33.5t168.5 86.5t147 136.5t127.5 164.5t116 189q138 -84 274 -84q75 0 177 31q-15 -131 -15 -182q0 -101 60 -150t170 -49q29 0 55.5 7.5t43.5 18.5t30 22t19 19l5 7l-31 24q-5 -6 -13.5 -15.5t-35.5 -25.5 t-53 -16q13 205 70 518t97 485.5t69 282.5q54 -7 104 -20l10 39q-82 23 -159 25t-140 -8.5t-127.5 -47.5t-111 -69.5t-102.5 -98.5t-91 -111t-87 -130.5t-79 -133.5t-78 -141q-11 -20 -36.5 -67t-40.5 -72q-63 41 -158 118q-144 111 -252 156q-11 16 -41 55 q-123 138 -338 138q-126 0 -230 -51t-169.5 -134t-101 -185.5t-35.5 -209.5zM150 254q0 99 33 194t93 172.5t156.5 125t212.5 47.5q195 0 309 -123l4 -6q-89 26 -182 26q-69 0 -128 -21.5t-94 -49t-63 -64t-38 -56t-16 -33.5l-1 -3l39 -12l1 3q46 110 147 161q69 34 153 34 q112 0 223 -43q52 -93 52 -203q0 -89 -31.5 -165.5t-97.5 -127.5t-154 -51q-79 0 -127.5 44t-48.5 102q0 41 14 73t33 48.5t40.5 27t33.5 13t16 2.5l-4 41q-4 0 -19 -3.5t-43 -16.5t-52 -33t-42 -60t-18 -92q0 -72 60.5 -129.5t156.5 -57.5q75 0 138 34t102 89t60.5 123 t21.5 139q0 95 -35 179q87 -45 196 -129q90 -73 164 -121q-50 -87 -93.5 -153.5t-98.5 -138t-111 -122.5t-121.5 -93t-141 -63.5t-157.5 -21.5q-263 0 -411 160q-63 68 -97 159.5t-34 194.5zM1470 344l78 141q51 93 80.5 145t78 132.5t87 130.5t88 106.5t101.5 96t108 65.5 q-133 -505 -184 -860q-83 -34 -163 -36t-143 18.5t-131 60.5zM2222 1348l109 217l53 -21l-109 -217z" />
<glyph unicode="&#xc2;" horiz-adv-x="2353" d="M109 254q0 107 35.5 209.5t101 185.5t169.5 134t230 51q215 0 338 -138q30 -39 41 -55q108 -45 252 -156q95 -77 158 -118q15 25 40.5 72t36.5 67q51 93 78 141t79 133.5t87 130.5t91 111t102.5 98.5t111 69.5t127.5 47.5t140 8.5t159 -25l-10 -39q-50 13 -104 20 q-29 -110 -69 -282.5t-97 -485.5t-70 -518q26 0 51.5 14t38.5 28l12 15l31 -24q-2 -3 -6 -8t-18 -18t-30 -22.5t-43 -17.5t-56 -8q-110 0 -170 49t-60 150q0 51 15 182q-102 -31 -177 -31q-136 0 -274 84q-62 -108 -116 -189t-127.5 -164.5t-147 -136.5t-168.5 -86.5 t-199 -33.5q-284 0 -442 172q-141 157 -141 383zM150 254q0 -103 34 -194.5t97 -159.5q148 -160 411 -160q82 0 157.5 21.5t141 63.5t121.5 93t111 122.5t98.5 138t93.5 153.5q-74 48 -164 121q-109 84 -196 129q35 -84 35 -179q0 -71 -21.5 -139t-60.5 -123t-102 -89 t-138 -34q-96 0 -156.5 57.5t-60.5 129.5q0 52 18 92t42 60t52 33t43 16.5t19 3.5l4 -41q-4 0 -16 -2.5t-33.5 -13t-40.5 -27t-33 -48.5t-14 -73q0 -58 48.5 -102t127.5 -44q88 0 154 51t97.5 127.5t31.5 165.5q0 110 -52 203q-111 43 -223 43q-175 0 -268 -136 q-13 -20 -33 -62l-39 12l1 3q50 116 153 176q82 48 186 48q93 0 182 -26l-4 6q-114 123 -309 123q-116 0 -212.5 -47.5t-156.5 -125t-93 -172.5t-33 -194zM1470 344q68 -40 131 -60.5t143 -18.5t163 36q51 355 184 860q-56 -26 -108 -65.5t-101.5 -96t-88 -106.5t-87 -130.5 t-78 -132.5t-80.5 -145zM1939 1364l334 368h55l197 -381l-51 -24l-181 348l-309 -346z" />
<glyph unicode="&#xc3;" horiz-adv-x="2353" d="M109 254q0 -226 141 -383q158 -172 442 -172q104 0 199 33.5t168.5 86.5t147 136.5t127.5 164.5t116 189q138 -84 274 -84q75 0 177 31q-15 -131 -15 -182q0 -101 60 -150t170 -49q29 0 55.5 7.5t43.5 18.5t30 22t19 19l5 7l-31 24q-5 -6 -13.5 -15.5t-35.5 -25.5 t-53 -16q13 205 70 518t97 485.5t69 282.5q54 -7 104 -20l10 39q-82 23 -159 25t-140 -8.5t-127.5 -47.5t-111 -69.5t-102.5 -98.5t-91 -111t-87 -130.5t-79 -133.5t-78 -141q-11 -20 -36.5 -67t-40.5 -72q-63 41 -158 118q-144 111 -252 156q-11 16 -41 55 q-123 138 -338 138q-126 0 -230 -51t-169.5 -134t-101 -185.5t-35.5 -209.5zM150 254q0 99 33 194t93 172.5t156.5 125t212.5 47.5q195 0 309 -123l4 -6q-89 26 -182 26q-69 0 -128 -21.5t-94 -49t-63 -64t-38 -56t-16 -33.5l-1 -3l39 -12l1 3q46 110 147 161q69 34 153 34 q112 0 223 -43q52 -93 52 -203q0 -89 -31.5 -165.5t-97.5 -127.5t-154 -51q-79 0 -127.5 44t-48.5 102q0 41 14 73t33 48.5t40.5 27t33.5 13t16 2.5l-4 41q-4 0 -19 -3.5t-43 -16.5t-52 -33t-42 -60t-18 -92q0 -72 60.5 -129.5t156.5 -57.5q75 0 138 34t102 89t60.5 123 t21.5 139q0 95 -35 179q87 -45 196 -129q90 -73 164 -121q-50 -87 -93.5 -153.5t-98.5 -138t-111 -122.5t-121.5 -93t-141 -63.5t-157.5 -21.5q-263 0 -411 160q-63 68 -97 159.5t-34 194.5zM1470 344l78 141q51 93 80.5 145t78 132.5t87 130.5t88 106.5t101.5 96t108 65.5 q-133 -505 -184 -860q-83 -34 -163 -36t-143 18.5t-131 60.5zM1726 1333q4 11 12 29t37 63.5t62.5 81t89.5 64t117 28.5q62 0 98 -23t49 -55.5t23.5 -64.5t34 -55t67.5 -23q47 0 90.5 23t71.5 55t49.5 64.5t30.5 55.5l10 23h53q-3 -11 -10 -29.5t-34 -65.5t-59.5 -82.5 t-88 -65t-119.5 -29.5q-59 0 -93 23t-47 55.5t-24.5 65.5t-37 56t-72.5 23q-41 0 -81.5 -22.5t-69.5 -54t-51 -63.5t-33.5 -54.5t-10.5 -22.5h-64z" />
<glyph unicode="&#xc4;" horiz-adv-x="2353" d="M109 254q0 107 35.5 209.5t101 185.5t169.5 134t230 51q215 0 338 -138q30 -39 41 -55q108 -45 252 -156q95 -77 158 -118q15 25 40.5 72t36.5 67q51 93 78 141t79 133.5t87 130.5t91 111t102.5 98.5t111 69.5t127.5 47.5t140 8.5t159 -25l-10 -39q-50 13 -104 20 q-29 -110 -69 -282.5t-97 -485.5t-70 -518q26 0 51.5 14t38.5 28l12 15l31 -24q-2 -3 -6 -8t-18 -18t-30 -22.5t-43 -17.5t-56 -8q-110 0 -170 49t-60 150q0 51 15 182q-102 -31 -177 -31q-136 0 -274 84q-62 -108 -116 -189t-127.5 -164.5t-147 -136.5t-168.5 -86.5 t-199 -33.5q-284 0 -442 172q-141 157 -141 383zM150 254q0 -103 34 -194.5t97 -159.5q148 -160 411 -160q82 0 157.5 21.5t141 63.5t121.5 93t111 122.5t98.5 138t93.5 153.5q-74 48 -164 121q-109 84 -196 129q35 -84 35 -179q0 -71 -21.5 -139t-60.5 -123t-102 -89 t-138 -34q-96 0 -156.5 57.5t-60.5 129.5q0 52 18 92t42 60t52 33t43 16.5t19 3.5l4 -41q-4 0 -16 -2.5t-33.5 -13t-40.5 -27t-33 -48.5t-14 -73q0 -58 48.5 -102t127.5 -44q88 0 154 51t97.5 127.5t31.5 165.5q0 110 -52 203q-111 43 -223 43q-175 0 -268 -136 q-13 -20 -33 -62l-39 12l1 3q50 116 153 176q82 48 186 48q93 0 182 -26l-4 6q-114 123 -309 123q-116 0 -212.5 -47.5t-156.5 -125t-93 -172.5t-33 -194zM1470 344q68 -40 131 -60.5t143 -18.5t163 36q51 355 184 860q-56 -26 -108 -65.5t-101.5 -96t-88 -106.5t-87 -130.5 t-78 -132.5t-80.5 -145zM1944 1446q0 50 34.5 85.5t84.5 35.5q49 0 84.5 -35.5t35.5 -85.5q0 -51 -35 -85t-85 -34q-51 0 -85 34t-34 85zM2271 1446q0 50 34.5 85.5t84.5 35.5t85.5 -35.5t35.5 -85.5t-35.5 -84.5t-85.5 -34.5q-51 0 -85 34t-34 85z" />
<glyph unicode="&#xc5;" horiz-adv-x="2353" d="M109 254q0 107 35.5 209.5t101 185.5t169.5 134t230 51q215 0 338 -138q30 -39 41 -55q108 -45 252 -156q95 -77 158 -118q15 25 40.5 72t36.5 67q51 93 78 141t79 133.5t87 130.5t91 111t102.5 98.5t111 69.5t127.5 47.5t140 8.5t159 -25l-10 -39q-50 13 -104 20 q-29 -110 -69 -282.5t-97 -485.5t-70 -518q26 0 51.5 14t38.5 28l12 15l31 -24q-2 -3 -6 -8t-18 -18t-30 -22.5t-43 -17.5t-56 -8q-110 0 -170 49t-60 150q0 51 15 182q-102 -31 -177 -31q-136 0 -274 84q-62 -108 -116 -189t-127.5 -164.5t-147 -136.5t-168.5 -86.5 t-199 -33.5q-284 0 -442 172q-141 157 -141 383zM150 254q0 -103 34 -194.5t97 -159.5q148 -160 411 -160q82 0 157.5 21.5t141 63.5t121.5 93t111 122.5t98.5 138t93.5 153.5q-74 48 -164 121q-109 84 -196 129q35 -84 35 -179q0 -71 -21.5 -139t-60.5 -123t-102 -89 t-138 -34q-96 0 -156.5 57.5t-60.5 129.5q0 52 18 92t42 60t52 33t43 16.5t19 3.5l4 -41q-4 0 -16 -2.5t-33.5 -13t-40.5 -27t-33 -48.5t-14 -73q0 -58 48.5 -102t127.5 -44q88 0 154 51t97.5 127.5t31.5 165.5q0 110 -52 203q-111 43 -223 43q-175 0 -268 -136 q-13 -20 -33 -62l-39 12l1 3q50 116 153 176q82 48 186 48q93 0 182 -26l-4 6q-114 123 -309 123q-116 0 -212.5 -47.5t-156.5 -125t-93 -172.5t-33 -194zM1470 344q68 -40 131 -60.5t143 -18.5t163 36q51 355 184 860q-56 -26 -108 -65.5t-101.5 -96t-88 -106.5t-87 -130.5 t-78 -132.5t-80.5 -145zM2148 1427q0 41 31 71t72 30t70.5 -30t29.5 -71t-29.5 -70.5t-70.5 -29.5q-42 0 -72.5 29.5t-30.5 70.5zM2189 1427q0 -25 18.5 -43t43.5 -18q26 0 44.5 18t18.5 43q0 26 -18.5 45t-44.5 19q-25 0 -43.5 -19t-18.5 -45z" />
<glyph unicode="&#xc6;" horiz-adv-x="2902" d="M109 254q0 107 35.5 209.5t101 185.5t169.5 134t230 51q215 0 338 -138q30 -39 41 -55q108 -45 252 -156q95 -77 158 -118q15 25 40.5 72t36.5 67q56 102 88 158.5t89 147t100 142t105.5 115.5t121.5 97.5t134 57t155 23.5q56 0 168.5 -19.5t196.5 -19.5q215 0 307 41 q12 74 12 113h47q0 -75 -27 -166.5t-60 -162t-60 -155.5t-27 -149h-45q0 73 26 152t66.5 171.5t57.5 153.5q-92 -35 -297 -35q-74 0 -127 5.5t-101 15t-67 12.5q-88 -326 -152 -680h655l-4 -37h-657q-55 -296 -80 -571q83 -2 164.5 15t141 39t155.5 44t199 27l-7 -41 q-92 -4 -181.5 -24.5t-150 -42.5t-152 -40t-189.5 -18q-120 0 -175 53.5t-55 145.5q0 51 15 182q-86 -31 -177 -31q-136 0 -274 84q-62 -108 -116 -189t-127.5 -164.5t-147 -136.5t-168.5 -86.5t-199 -33.5q-284 0 -442 172q-141 157 -141 383zM150 254q0 -103 34 -194.5 t97 -159.5q148 -160 411 -160q82 0 157.5 21.5t141 63.5t121.5 93t111 122.5t98.5 138t93.5 153.5q-74 48 -164 121q-109 84 -196 129q35 -84 35 -179q0 -71 -21.5 -139t-60.5 -123t-102 -89t-138 -34q-96 0 -156.5 57.5t-60.5 129.5q0 52 18 92t42 60t52 33t43 16.5t19 3.5 l4 -41q-4 0 -16 -2.5t-33.5 -13t-40.5 -27t-33 -48.5t-14 -73q0 -58 48.5 -102t127.5 -44q88 0 154 51t97.5 127.5t31.5 165.5q0 110 -52 203q-111 43 -223 43q-175 0 -268 -136q-13 -20 -33 -62l-39 12l1 3q50 116 153 176q82 48 186 48q93 0 182 -26l-4 6 q-114 123 -309 123q-116 0 -212.5 -47.5t-156.5 -125t-93 -172.5t-33 -194zM1470 344q68 -40 126.5 -61t132.5 -21q71 0 176 37q46 323 186 862q-85 -42 -160.5 -110.5t-151.5 -180t-109 -167t-105 -188.5q-12 -20 -17 -30z" />
<glyph unicode="&#xc7;" horiz-adv-x="1318" d="M188 397q0 181 62.5 338t175 270t275.5 177.5t356 64.5q180 0 260 -64.5t80 -201.5q0 -41 -14.5 -84.5t-30.5 -71t-45 -71.5q-29 -47 -41.5 -68.5t-26.5 -61.5t-14 -75h-45q0 13 1.5 26.5t3.5 24.5t7 25.5t7 22.5t10 23.5t10.5 21t12.5 22.5t12 20.5t13.5 22t12.5 20.5 q28 43 41.5 66t26 60t12.5 73q0 34 -4.5 61t-22 60t-47.5 54.5t-86 36.5t-133 15q-43 0 -125 -8q-72 -23 -135.5 -59.5t-133.5 -108.5t-119 -168t-81.5 -246.5t-32.5 -334.5q0 -307 199 -406q49 -6 102 -6q79 0 148.5 16.5t117 43.5t86 59t61.5 64.5t38.5 59.5t21.5 44l6 16 l41 -16q-2 -6 -5.5 -17.5t-20 -43.5t-38 -62t-61 -67t-87 -64t-118.5 -47.5t-153 -24.5l-8 -90h-29q-64 0 -98.5 -23.5t-34.5 -68.5q0 -46 30 -64t95 -18q43 0 80 12t53 24l16 11l19 -37q-6 -6 -18 -14.5t-56 -22.5t-96 -14q-170 0 -170 123q0 60 45 96.5t129 36.5l4 47 q-259 2 -400 150t-141 421z" />
<glyph unicode="&#xc8;" horiz-adv-x="1153" d="M133 229q0 75 28.5 138t76 105t99 69t109.5 43q-42 52 -67 110t-25 144q0 79 29.5 150.5t86.5 130.5t151.5 93.5t214.5 34.5q178 0 273 -62t95 -165q0 -52 -14.5 -99.5t-32 -78t-34.5 -73.5t-21 -85h-43q6 56 31.5 109t48 107t22.5 118q0 86 -87.5 139t-205.5 53 q-149 0 -243.5 -103t-94.5 -316q0 -56 7 -97t15 -54l7 -13q106 35 240 35q149 0 149 -82q0 -50 -53.5 -81.5t-153.5 -31.5q-158 0 -254 76q-23 -24 -33.5 -35.5t-32.5 -44.5t-33 -64.5t-20.5 -83.5t-9.5 -112q0 -78 45 -143t108.5 -98.5t125.5 -33.5q71 0 134.5 19.5 t109 49.5t84.5 69.5t63 75.5t42 71.5t25 54t9 25.5l41 -10q0 -3 -7.5 -23.5t-27 -57t-47 -77.5t-72.5 -83.5t-99 -76.5t-130.5 -56t-163.5 -22q-219 0 -342 93t-123 249zM575 592q2 -4 5 -9.5t17 -21t31 -27t47 -21t66 -9.5q82 0 124 21.5t42 49.5q0 50 -108 50 q-115 0 -224 -33zM717 1544l53 21l108 -218l-53 -20z" />
<glyph unicode="&#xc9;" horiz-adv-x="1153" d="M133 229q0 -156 123 -249t342 -93q87 0 163.5 22t130.5 56t99 76.5t72.5 83.5t47 77.5t27 57t7.5 23.5l-41 10q-2 -7 -9 -25.5t-25 -54t-42 -71.5t-63 -75.5t-84.5 -69.5t-109 -49.5t-134.5 -19.5q-62 0 -125.5 33.5t-108.5 98.5t-45 143q0 60 9.5 112t20.5 83.5t33 64.5 t32.5 44.5t33.5 35.5q96 -76 254 -76q100 0 153.5 31.5t53.5 81.5q0 82 -149 82q-134 0 -240 -35q-3 4 -8 13.5t-13 52t-8 98.5q0 213 94.5 316t243.5 103q118 0 205.5 -53t87.5 -139q0 -64 -22.5 -118t-48 -107t-31.5 -109h43q4 42 21 85t34.5 73.5t32 78t14.5 99.5 q0 103 -95 165t-273 62q-120 0 -214.5 -34.5t-151.5 -93.5t-86.5 -130.5t-29.5 -150.5q0 -86 25 -144t67 -110q-58 -16 -109.5 -43t-99 -69t-76 -105t-28.5 -138zM575 592q109 33 224 33q108 0 108 -50q0 -28 -42 -49.5t-124 -21.5q-36 0 -66 9t-47.5 22t-30 26t-17.5 22z M836 1348l108 217l53 -21l-108 -217z" />
<glyph unicode="&#xca;" horiz-adv-x="1153" d="M133 229q0 75 28.5 138t76 105t99 69t109.5 43q-42 52 -67 110t-25 144q0 79 29.5 150.5t86.5 130.5t151.5 93.5t214.5 34.5q178 0 273 -62t95 -165q0 -52 -14.5 -99.5t-32 -78t-34.5 -73.5t-21 -85h-43q6 56 31.5 109t48 107t22.5 118q0 86 -87.5 139t-205.5 53 q-149 0 -243.5 -103t-94.5 -316q0 -56 7 -97t15 -54l7 -13q106 35 240 35q149 0 149 -82q0 -50 -53.5 -81.5t-153.5 -31.5q-158 0 -254 76q-23 -24 -33.5 -35.5t-32.5 -44.5t-33 -64.5t-20.5 -83.5t-9.5 -112q0 -78 45 -143t108.5 -98.5t125.5 -33.5q71 0 134.5 19.5 t109 49.5t84.5 69.5t63 75.5t42 71.5t25 54t9 25.5l41 -10q0 -3 -7.5 -23.5t-27 -57t-47 -77.5t-72.5 -83.5t-99 -76.5t-130.5 -56t-163.5 -22q-219 0 -342 93t-123 249zM561 1364l334 368h55l197 -381l-51 -24l-181 348l-309 -346zM575 592q2 -4 5 -9.5t17 -21t31 -27 t47 -21t66 -9.5q82 0 124 21.5t42 49.5q0 50 -108 50q-115 0 -224 -33z" />
<glyph unicode="&#xcb;" horiz-adv-x="1153" d="M133 229q0 -156 123 -249t342 -93q87 0 163.5 22t130.5 56t99 76.5t72.5 83.5t47 77.5t27 57t7.5 23.5l-41 10q-2 -7 -9 -25.5t-25 -54t-42 -71.5t-63 -75.5t-84.5 -69.5t-109 -49.5t-134.5 -19.5q-62 0 -125.5 33.5t-108.5 98.5t-45 143q0 60 9.5 112t20.5 83.5t33 64.5 t32.5 44.5t33.5 35.5q96 -76 254 -76q100 0 153.5 31.5t53.5 81.5q0 82 -149 82q-134 0 -240 -35q-3 4 -8 13.5t-13 52t-8 98.5q0 213 94.5 316t243.5 103q118 0 205.5 -53t87.5 -139q0 -64 -22.5 -118t-48 -107t-31.5 -109h43q4 42 21 85t34.5 73.5t32 78t14.5 99.5 q0 103 -95 165t-273 62q-120 0 -214.5 -34.5t-151.5 -93.5t-86.5 -130.5t-29.5 -150.5q0 -86 25 -144t67 -110q-58 -16 -109.5 -43t-99 -69t-76 -105t-28.5 -138zM555 1446q0 50 34.5 85.5t84.5 35.5t85.5 -35.5t35.5 -85.5t-35.5 -84.5t-85.5 -34.5q-51 0 -85 34t-34 85z M575 592q109 33 224 33q108 0 108 -50q0 -28 -42 -49.5t-124 -21.5q-36 0 -66 9t-47.5 22t-30 26t-17.5 22zM883 1446q0 50 34 85.5t84 35.5q49 0 85 -35.5t36 -85.5t-35.5 -84.5t-85.5 -34.5q-51 0 -84.5 34t-33.5 85z" />
<glyph unicode="&#xcc;" horiz-adv-x="1251" d="M184 756q0 252 106.5 371.5t317.5 119.5q74 0 156.5 -21.5t156.5 -52t147.5 -61.5t154.5 -52.5t153 -21.5v-47q-48 0 -121 15q-3 -1 -8 -4.5t-21.5 -19t-33.5 -37.5t-42.5 -65t-50.5 -96.5t-54.5 -136t-57.5 -180.5h221l-4 -37h-227q-18 -62 -33 -129 q-28 -120 -51.5 -204.5t-53 -167t-62 -135t-74.5 -94.5t-93.5 -60.5t-115.5 -18.5q-54 0 -91.5 6.5t-48.5 12.5l-10 6l21 43q3 -3 11 -8t44 -13t86 -8q15 0 47 4l145 631q6 26 17.5 72.5t15.5 62.5h-223l4 37h227q79 301 158 439t186 153q-28 11 -110 47t-121.5 51t-106 31 t-124.5 16q-195 0 -292.5 -107t-97.5 -341h-47zM1039 1544l53 21l108 -218l-53 -20z" />
<glyph unicode="&#xcd;" horiz-adv-x="1251" d="M184 756h47q0 234 97.5 341t292.5 107q58 0 124.5 -16t106 -31t121.5 -51t110 -47q-107 -15 -186 -153t-158 -439h-227l-4 -37h223q-4 -16 -15.5 -62.5t-17.5 -72.5l-145 -631q-32 -4 -47 -4q-50 0 -85.5 7t-45.5 15l-10 7l-21 -43q29 -25 150 -25q64 0 115.5 18.5 t93.5 60.5t74.5 94.5t62 135t53 167t51.5 204.5q15 67 33 129h227l4 37h-221q28 98 57.5 180.5t55 136.5t49.5 96t43 65t33.5 37.5t22.5 19.5l7 4q73 -15 121 -15v47q-72 0 -153 21.5t-154.5 52t-147.5 61.5t-156.5 52.5t-156.5 21.5q-211 0 -317.5 -119.5t-106.5 -371.5z M1186 1348l108 217l54 -21l-109 -217z" />
<glyph unicode="&#xce;" horiz-adv-x="1251" d="M184 756q0 252 106.5 371.5t317.5 119.5q74 0 156.5 -21.5t156.5 -52t147.5 -61.5t154.5 -52.5t153 -21.5v-47q-48 0 -121 15q-3 -1 -8 -4.5t-21.5 -19t-33.5 -37.5t-42.5 -65t-50.5 -96.5t-54.5 -136t-57.5 -180.5h221l-4 -37h-227q-18 -62 -33 -129 q-28 -120 -51.5 -204.5t-53 -167t-62 -135t-74.5 -94.5t-93.5 -60.5t-115.5 -18.5q-54 0 -91.5 6.5t-48.5 12.5l-10 6l21 43q3 -3 11 -8t44 -13t86 -8q15 0 47 4l145 631q6 26 17.5 72.5t15.5 62.5h-223l4 37h227q79 301 158 439t186 153q-28 11 -110 47t-121.5 51t-106 31 t-124.5 16q-195 0 -292.5 -107t-97.5 -341h-47zM866 1364l334 368h55l197 -381l-51 -24l-181 348l-309 -346z" />
<glyph unicode="&#xcf;" horiz-adv-x="1251" d="M184 756h47q0 234 97.5 341t292.5 107q58 0 124.5 -16t106 -31t121.5 -51t110 -47q-107 -15 -186 -153t-158 -439h-227l-4 -37h223q-4 -16 -15.5 -62.5t-17.5 -72.5l-145 -631q-32 -4 -47 -4q-50 0 -85.5 7t-45.5 15l-10 7l-21 -43q29 -25 150 -25q64 0 115.5 18.5 t93.5 60.5t74.5 94.5t62 135t53 167t51.5 204.5q15 67 33 129h227l4 37h-221q28 98 57.5 180.5t55 136.5t49.5 96t43 65t33.5 37.5t22.5 19.5l7 4q73 -15 121 -15v47q-72 0 -153 21.5t-154.5 52t-147.5 61.5t-156.5 52.5t-156.5 21.5q-211 0 -317.5 -119.5t-106.5 -371.5z M868 1446q0 50 34.5 85.5t84.5 35.5q49 0 85 -35.5t36 -85.5t-35.5 -84.5t-85.5 -34.5q-51 0 -85 34t-34 85zM1196 1446q0 50 34.5 85.5t84.5 35.5q49 0 85 -35.5t36 -85.5t-35.5 -84.5t-85.5 -34.5q-51 0 -85 34t-34 85z" />
<glyph unicode="&#xd0;" horiz-adv-x="1986" d="M215 600q0 160 90.5 299.5t278.5 230.5q-133 114 -357 152l9 39q248 -45 387 -174q249 100 600 100q363 0 567.5 -163t204.5 -453q0 -115 -31 -224.5t-98 -209t-162 -174.5t-233.5 -119.5t-303.5 -44.5q-138 0 -256 32q-139 -100 -301 -100v39q80 2 115.5 21t62.5 83 q-67 29 -124.5 69.5t-92 77t-59.5 70.5t-35 52.5t-10 21.5l37 15q0 -2 9.5 -19.5t33 -49t55.5 -65.5t85.5 -72t115.5 -65q29 78 47 178l39 230h-168l4 37h170l137 786q-213 -17 -377 -84q80 -86 113 -190.5t25 -210.5q-14 -158 -107.5 -262.5t-222.5 -104.5q-116 0 -182 75 t-66 177zM254 600q0 -84 54.5 -148.5t154.5 -64.5q114 0 196.5 94t94.5 240q10 98 -24.5 198t-115.5 181q-125 -56 -208 -140t-117.5 -173t-34.5 -187zM950 -80q108 -24 217 -24q158 0 290 42.5t223 114t154 167t92.5 199t29.5 212.5q0 256 -176.5 408t-491.5 167 q-102 -662 -125 -792h346l-4 -37h-348q-13 -63 -27 -146q-38 -189 -180 -311z" />
<glyph unicode="&#xd1;" horiz-adv-x="2635" d="M43 184l39 -6q-18 -197 94 -325q58 -66 143 -102t179 -36q249 0 437 163.5t406 570.5l349 634q-211 4 -420 72q-164 53 -316 53q-164 0 -267 -106.5t-103 -276.5h-39q0 187 114.5 305.5t294.5 118.5q68 0 131.5 -9.5t100 -19t96.5 -28.5q76 -23 120 -34t138 -22.5 t205 -11.5l328 -891q67 105 136 221t114.5 198t96 167.5t88 142.5t81.5 110t85.5 83.5t91.5 48t107 17.5v-41q-57 0 -108 -22.5t-100 -72t-92.5 -108.5t-99.5 -151.5t-106.5 -181t-127 -217.5t-148.5 -241q55 -134 88 -202q59 -115 107.5 -164t123.5 -49q41 0 75 15.5 t53.5 37.5t33 43.5t18.5 36.5l5 16h45q-1 -9 -4.5 -23t-24 -51t-51 -65t-93 -51t-143.5 -23q-173 0 -279 85t-179 257l-285 756l-207 -377q-223 -418 -418 -586t-458 -168q-99 0 -192.5 40.5t-158.5 109.5q-125 140 -104 360zM1850 1251q4 11 12 29t36.5 64t62 81t89.5 64 t117 29q45 0 76.5 -12t47.5 -32t26 -43.5t18 -47t18.5 -43.5t32 -32t53.5 -12q47 0 90.5 23t71.5 55.5t49.5 65t31.5 55.5l9 23h54q-3 -11 -10.5 -29.5t-34 -65.5t-59.5 -83t-88.5 -65.5t-119.5 -29.5q-59 0 -93 23t-47 55.5t-24.5 65.5t-37 56t-72.5 23q-41 0 -81.5 -22.5 t-69.5 -54t-51 -63.5t-33.5 -54.5t-10.5 -22.5h-63z" />
<glyph unicode="&#xd2;" horiz-adv-x="1531" d="M182 356q0 241 106 442.5t293 321.5t416 129l2 -41q-97 -3 -179 -36.5t-141.5 -88t-106.5 -129.5t-77 -156.5t-49.5 -173t-27.5 -176t-8 -169.5q0 -96 22 -173t57.5 -125.5t83 -81t94.5 -46t95 -13.5q113 0 223 47.5t198 129.5t155.5 185t104 220.5t36.5 230.5 q0 203 -88.5 314.5t-249.5 111.5q-99 0 -180 -39t-131.5 -103.5t-77.5 -144.5t-27 -165q0 -79 24.5 -139t56 -89t70 -46.5t58 -21t29.5 -3.5l-2 -41q-8 0 -30.5 4t-67.5 24.5t-82.5 53.5t-67 101t-29.5 157q0 74 18.5 144.5t56 133.5t91 110.5t128.5 75t163 27.5 q179 0 279 -122.5t100 -342.5q0 -154 -60.5 -308t-164.5 -277.5t-258.5 -201t-327.5 -77.5q-248 0 -387.5 150t-139.5 417zM1014 1544l53 21l108 -218l-53 -20z" />
<glyph unicode="&#xd3;" horiz-adv-x="1531" d="M182 356q0 241 106 442.5t293 321.5t416 129l2 -41q-97 -3 -179 -36.5t-141.5 -88t-106.5 -129.5t-77 -156.5t-49.5 -173t-27.5 -176t-8 -169.5q0 -96 22 -173t57.5 -125.5t83 -81t94.5 -46t95 -13.5q113 0 223 47.5t198 129.5t155.5 185t104 220.5t36.5 230.5 q0 203 -88.5 314.5t-249.5 111.5q-99 0 -180 -39t-131.5 -103.5t-77.5 -144.5t-27 -165q0 -79 24.5 -139t56 -89t70 -46.5t58 -21t29.5 -3.5l-2 -41q-8 0 -30.5 4t-67.5 24.5t-82.5 53.5t-67 101t-29.5 157q0 74 18.5 144.5t56 133.5t91 110.5t128.5 75t163 27.5 q179 0 279 -122.5t100 -342.5q0 -154 -60.5 -308t-164.5 -277.5t-258.5 -201t-327.5 -77.5q-248 0 -387.5 150t-139.5 417zM1194 1347l108 218l53 -21l-108 -217z" />
<glyph unicode="&#xd4;" horiz-adv-x="1531" d="M182 356q0 -267 139.5 -417t387.5 -150q173 0 327.5 77.5t258.5 201t164.5 277.5t60.5 308q0 220 -100 342.5t-279 122.5q-88 0 -163 -27.5t-128.5 -75t-91 -110.5t-56 -133.5t-18.5 -144.5q0 -89 29.5 -157t67 -101t82.5 -53.5t67.5 -24.5t30.5 -4l2 41q-10 0 -29.5 3.5 t-58 21t-70 46.5t-56 89t-24.5 139q0 85 27 165t77.5 144.5t131.5 103.5t180 39q161 0 249.5 -111.5t88.5 -314.5q0 -113 -36.5 -230.5t-104 -220.5t-155.5 -185t-198 -129.5t-223 -47.5q-48 0 -95 13.5t-94.5 46t-83 81t-57.5 125.5t-22 173q0 85 8 169.5t27.5 176 t49.5 173t77 156.5t106.5 129.5t141.5 88t179 36.5l-2 41q-229 -9 -416 -129t-293 -321.5t-106 -442.5zM803 1364l334 369h55l197 -381l-52 -25l-180 348l-309 -346z" />
<glyph unicode="&#xd5;" horiz-adv-x="1531" d="M182 356q0 241 106 442.5t293 321.5t416 129l2 -41q-97 -3 -179 -36.5t-141.5 -88t-106.5 -129.5t-77 -156.5t-49.5 -173t-27.5 -176t-8 -169.5q0 -96 22 -173t57.5 -125.5t83 -81t94.5 -46t95 -13.5q113 0 223 47.5t198 129.5t155.5 185t104 220.5t36.5 230.5 q0 203 -88.5 314.5t-249.5 111.5q-99 0 -180 -39t-131.5 -103.5t-77.5 -144.5t-27 -165q0 -79 24.5 -139t56 -89t70 -46.5t58 -21t29.5 -3.5l-2 -41q-8 0 -30.5 4t-67.5 24.5t-82.5 53.5t-67 101t-29.5 157q0 74 18.5 144.5t56 133.5t91 110.5t128.5 75t163 27.5 q179 0 279 -122.5t100 -342.5q0 -154 -60.5 -308t-164.5 -277.5t-258.5 -201t-327.5 -77.5q-248 0 -387.5 150t-139.5 417zM615 1333q4 11 12 29t36.5 64t62 81t89.5 64t117 29q45 0 76.5 -12t47.5 -32t26 -43.5t18 -47t18.5 -43.5t32 -32t53.5 -12q47 0 90.5 23t71.5 55.5 t49.5 65t30.5 55.5l10 23h54q-3 -11 -10.5 -29.5t-34 -65.5t-59.5 -83t-88.5 -65.5t-119.5 -29.5q-59 0 -93 23t-47 55.5t-24.5 65.5t-37 56t-72.5 23q-41 0 -81.5 -22.5t-69.5 -54t-51 -63.5t-33.5 -54.5t-10.5 -22.5h-63z" />
<glyph unicode="&#xd6;" horiz-adv-x="1531" d="M182 356q0 -267 139.5 -417t387.5 -150q173 0 327.5 77.5t258.5 201t164.5 277.5t60.5 308q0 220 -100 342.5t-279 122.5q-88 0 -163 -27.5t-128.5 -75t-91 -110.5t-56 -133.5t-18.5 -144.5q0 -89 29.5 -157t67 -101t82.5 -53.5t67.5 -24.5t30.5 -4l2 41q-10 0 -29.5 3.5 t-58 21t-70 46.5t-56 89t-24.5 139q0 85 27 165t77.5 144.5t131.5 103.5t180 39q161 0 249.5 -111.5t88.5 -314.5q0 -113 -36.5 -230.5t-104 -220.5t-155.5 -185t-198 -129.5t-223 -47.5q-48 0 -95 13.5t-94.5 46t-83 81t-57.5 125.5t-22 173q0 85 8 169.5t27.5 176 t49.5 173t77 156.5t106.5 129.5t141.5 88t179 36.5l-2 41q-229 -9 -416 -129t-293 -321.5t-106 -442.5zM760 1452q0 50 34.5 85.5t84.5 35.5q49 0 84.5 -35.5t35.5 -85.5q0 -51 -35 -85t-85 -34q-51 0 -85 34t-34 85zM1087 1452q0 50 34.5 85.5t84.5 35.5t85.5 -35.5 t35.5 -85.5t-35.5 -84.5t-85.5 -34.5q-51 0 -85 34t-34 85z" />
<glyph unicode="&#xd7;" horiz-adv-x="718" d="M70 39l315 348l-184 356l51 25l180 -348l309 346l45 -35l-315 -348l184 -356l-51 -25l-180 348l-309 -346z" />
<glyph unicode="&#xd8;" horiz-adv-x="1531" d="M182 356q0 241 106 442.5t293 321.5t416 129l2 -41q-97 -3 -179 -36.5t-141.5 -88t-106.5 -129.5t-77 -156.5t-49.5 -173t-27.5 -176t-8 -169.5q0 -265 157 -377l226 456q-109 90 -109 269q0 74 18.5 144.5t56 133.5t91 110.5t128.5 75t163 27.5q18 0 26 -2l115 232 l41 -21l-106 -215q143 -26 223 -145.5t80 -313.5q0 -154 -60.5 -308t-164.5 -277.5t-258.5 -201t-327.5 -77.5q-63 0 -138 14l-116 -237l-43 18l112 232q-164 50 -253 189t-89 351zM608 -123q73 -37 154 -37q113 0 223 47.5t198 129.5t155.5 185t104 220.5t36.5 230.5 q0 183 -73.5 292.5t-207.5 129.5l-348 -706q25 -15 54.5 -24.5t45.5 -12.5l17 -2l-6 -39q-61 0 -130 41zM725 627q0 -153 88 -230l336 682h-8q-99 0 -180 -39t-131.5 -103.5t-77.5 -144.5t-27 -165z" />
<glyph unicode="&#xd9;" horiz-adv-x="1839" d="M174 766q0 212 130.5 346.5t336.5 134.5q77 0 145.5 -10t107 -21t101.5 -32q72 -26 120.5 -40t143.5 -27t211 -13v-43q-153 0 -245 14q-24 -103 -71.5 -284t-66 -276.5t-18.5 -180.5q0 -116 69 -180t175 -64q59 0 110.5 24t86.5 62.5t57 74t37 71.5l241 1040h43 l-286 -1231q-19 -75 -19 -102q0 -36 18.5 -61t61.5 -25q28 0 53 14.5t36 29.5l11 15l29 -25q-2 -3 -5 -8t-14.5 -17.5t-25 -22t-36.5 -17.5t-48 -8q-63 0 -93 34.5t-30 84.5q0 16 6 50t12 59l7 26l10 47q-25 -38 -58 -74t-77.5 -71t-101.5 -56.5t-117 -21.5q-188 0 -289 99 t-101 269q0 72 13.5 157.5t29 149.5t56 218.5t65.5 257.5l-14 6q-84 31 -159 47t-181 16q-187 0 -304.5 -121t-117.5 -315h-45zM1432 1544l53 21l108 -218l-53 -20z" />
<glyph unicode="&#xda;" horiz-adv-x="1839" d="M174 766h45q0 194 117.5 315t304.5 121q106 0 181 -16t159 -47l14 -6q-25 -103 -65.5 -257.5t-56 -218.5t-29 -149.5t-13.5 -157.5q0 -170 101 -269t289 -99q60 0 117 21.5t101.5 56.5t77.5 71t58 74l-10 -47q-25 -98 -25 -135q0 -50 30 -84.5t93 -34.5q25 0 47.5 7.5 t37 18t25 21.5t15.5 19l4 7l-29 25q-4 -7 -12 -16.5t-34 -26t-54 -16.5q-43 0 -61.5 25t-18.5 61q0 12 4.5 37.5t9.5 45.5l5 19l286 1231h-43l-241 -1040q-15 -36 -37 -71.5t-57 -74t-86.5 -62.5t-110.5 -24q-106 0 -175 64t-69 180q0 85 18.5 180.5t66 276.5t71.5 284 q92 -14 245 -14v43q-116 0 -211 13t-143.5 27t-120.5 40q-63 21 -101.5 32t-107 21t-145.5 10q-206 0 -336.5 -134.5t-130.5 -346.5zM1425 1348l109 217l53 -21l-108 -217z" />
<glyph unicode="&#xdb;" horiz-adv-x="1839" d="M174 766q0 212 130.5 346.5t336.5 134.5q77 0 145.5 -10t107 -21t101.5 -32q72 -26 120.5 -40t143.5 -27t211 -13v-43q-153 0 -245 14q-24 -103 -71.5 -284t-66 -276.5t-18.5 -180.5q0 -116 69 -180t175 -64q59 0 110.5 24t86.5 62.5t57 74t37 71.5l241 1040h43 l-286 -1231q-19 -75 -19 -102q0 -36 18.5 -61t61.5 -25q28 0 53 14.5t36 29.5l11 15l29 -25q-2 -3 -5 -8t-14.5 -17.5t-25 -22t-36.5 -17.5t-48 -8q-63 0 -93 34.5t-30 84.5q0 16 6 50t12 59l7 26l10 47q-25 -38 -58 -74t-77.5 -71t-101.5 -56.5t-117 -21.5q-188 0 -289 99 t-101 269q0 72 13.5 157.5t29 149.5t56 218.5t65.5 257.5l-14 6q-84 31 -159 47t-181 16q-187 0 -304.5 -121t-117.5 -315h-45zM1059 1360l334 368h55l197 -381l-51 -24l-181 348l-309 -346z" />
<glyph unicode="&#xdc;" horiz-adv-x="1839" d="M174 766h45q0 194 117.5 315t304.5 121q106 0 181 -16t159 -47l14 -6q-25 -103 -65.5 -257.5t-56 -218.5t-29 -149.5t-13.5 -157.5q0 -170 101 -269t289 -99q60 0 117 21.5t101.5 56.5t77.5 71t58 74l-10 -47q-25 -98 -25 -135q0 -50 30 -84.5t93 -34.5q25 0 47.5 7.5 t37 18t25 21.5t15.5 19l4 7l-29 25q-4 -7 -12 -16.5t-34 -26t-54 -16.5q-43 0 -61.5 25t-18.5 61q0 12 4.5 37.5t9.5 45.5l5 19l286 1231h-43l-241 -1040q-15 -36 -37 -71.5t-57 -74t-86.5 -62.5t-110.5 -24q-106 0 -175 64t-69 180q0 85 18.5 180.5t66 276.5t71.5 284 q92 -14 245 -14v43q-116 0 -211 13t-143.5 27t-120.5 40q-63 21 -101.5 32t-107 21t-145.5 10q-206 0 -336.5 -134.5t-130.5 -346.5zM1077 1446q0 50 34.5 85.5t84.5 35.5t85.5 -35.5t35.5 -85.5t-35.5 -84.5t-85.5 -34.5q-51 0 -85 34t-34 85zM1405 1446q0 50 34.5 85.5 t84.5 35.5t85.5 -35.5t35.5 -85.5t-35.5 -84.5t-85.5 -34.5q-51 0 -85 34t-34 85z" />
<glyph unicode="&#xdd;" horiz-adv-x="1460" d="M217 651q0 -74 18 -138.5t44 -107.5t63.5 -79.5t69 -57t68.5 -36.5t53.5 -21t31.5 -9l4 -1l15 39q-7 1 -18.5 3.5t-45 15t-64.5 29.5t-68 50t-64 74t-45.5 103.5t-18.5 135.5q0 111 29.5 204t78 156.5t112 108t130 64.5t133.5 20q122 0 189 -84t67 -252q0 -123 -36 -293 t-87 -324.5t-102 -292t-87 -220.5l-36 -82h275q68 206 178 520q61 174 143.5 357.5t187 366t212 325.5t225 232t219.5 89q76 0 114 -30t48 -119h47q0 98 -46.5 148t-162.5 50q-82 0 -168 -44.5t-167 -127.5t-157.5 -184t-152 -232t-138.5 -252.5t-128 -262.5q4 13 11.5 47 t16.5 114.5t9 165.5q0 428 -451 428q-244 0 -396.5 -166.5t-152.5 -429.5zM1294 1382l109 217l53 -20l-108 -217z" />
<glyph unicode="&#xde;" horiz-adv-x="1230" d="M-57 -262q57 0 99.5 19t66.5 42.5t42.5 72.5t25.5 79.5t18 92.5l1.5 7.5t1 7t1.5 7.5l176 1009q32 183 128.5 279.5t274.5 99.5v-53q-52 -7 -71 -41t-33 -113q137 -2 243.5 -29.5t172 -69.5t107.5 -100t58.5 -116.5t16.5 -124.5q0 -129 -47.5 -234t-122.5 -173 t-180.5 -118.5t-206.5 -76.5t-217 -41q-38 -208 -196 -342.5t-359 -134.5v51zM508 211q110 16 204.5 41.5t191 73t163.5 110.5t109.5 158.5t42.5 212.5q0 181 -136 289t-413 112q-71 -529 -162 -997z" />
<glyph unicode="&#xdf;" horiz-adv-x="968" d="M90 -55q106 610 139 792q13 70 30.5 122t49.5 99.5t76 78t110.5 48t153.5 17.5q165 0 257.5 -76t92.5 -203q0 -60 -16.5 -109t-43 -82t-63.5 -58t-73.5 -39t-77.5 -23q238 -42 238 -225q0 -63 -23 -117t-69 -96.5t-122 -67t-176 -24.5q-177 0 -264 92l-180 -129h-39z M352 117q54 -68 148 -68q98 0 156.5 81.5t58.5 193.5q0 43 -13.5 76t-36 51.5t-42.5 29t-41 15.5l-41 2l8 45q56 0 95 13.5t72 49t49.5 104.5t16.5 173q0 170 -120 170q-141 0 -187 -262z" />
<glyph unicode="&#xe0;" horiz-adv-x="991" d="M121 297q0 234 114 367t297 133q149 0 199 -142q6 42 23 123q70 0 133 5t91 9l28 5l-142 -774q61 6 103 57l30 -25q-61 -73 -153 -73q-89 0 -139 40.5t-58 116.5q-89 -157 -229 -157q-135 0 -216 82.5t-81 232.5zM352 193q0 -92 23.5 -128t68.5 -36q33 0 65.5 20 t55.5 47.5t43.5 62t31.5 58t17 41.5q2 9 54 295q-6 78 -43 135t-93 57q-52 0 -95.5 -54t-70.5 -137.5t-42 -178t-15 -182.5zM475 1155l53 21l109 -218l-53 -20z" />
<glyph unicode="&#xe1;" horiz-adv-x="991" d="M121 297q0 234 114 367t297 133q149 0 199 -142q6 42 23 123q70 0 133 5t91 9l28 5l-142 -774q61 6 103 57l30 -25q-61 -73 -153 -73q-89 0 -139 40.5t-58 116.5q-89 -157 -229 -157q-135 0 -216 82.5t-81 232.5zM352 193q0 -92 23.5 -128t68.5 -36q33 0 65.5 20 t55.5 47.5t43.5 62t31.5 58t17 41.5q2 9 54 295q-6 78 -43 135t-93 57q-52 0 -95.5 -54t-70.5 -137.5t-42 -178t-15 -182.5zM562 958l108 218l53 -21l-108 -217z" />
<glyph unicode="&#xe2;" horiz-adv-x="991" d="M121 297q0 234 114 367t297 133q149 0 199 -142q6 42 23 123q70 0 133 5t91 9l28 5l-142 -774q61 6 103 57l30 -25q-61 -73 -153 -73q-89 0 -139 40.5t-58 116.5q-89 -157 -229 -157q-135 0 -216 82.5t-81 232.5zM352 193q0 -92 23.5 -128t68.5 -36q33 0 65.5 20 t55.5 47.5t43.5 62t31.5 58t17 41.5q2 9 54 295q-6 78 -43 135t-93 57q-52 0 -95.5 -54t-70.5 -137.5t-42 -178t-15 -182.5zM375 928l334 368h55l197 -381l-51 -24l-181 348l-309 -346z" />
<glyph unicode="&#xe3;" horiz-adv-x="991" d="M121 297q0 234 114 367t297 133q149 0 199 -142q6 42 23 123q70 0 133 5t91 9l28 5l-142 -774q61 6 103 57l30 -25q-61 -73 -153 -73q-89 0 -139 40.5t-58 116.5q-89 -157 -229 -157q-135 0 -216 82.5t-81 232.5zM187 899q4 11 12 29t36.5 64t62 81t89.5 64t117 29 q45 0 76.5 -12t47.5 -32t26 -43.5t18 -47t18.5 -43.5t32 -32t53.5 -12q47 0 90.5 23t71.5 55.5t49.5 65t30.5 55.5l10 23h54q-3 -11 -10.5 -29.5t-34 -65.5t-59.5 -83t-88.5 -65.5t-119.5 -29.5q-59 0 -93 23t-47 55.5t-24.5 65.5t-37 56t-72.5 23q-41 0 -81.5 -22.5 t-69.5 -54t-51 -63.5t-33.5 -54.5t-10.5 -22.5h-63zM352 193q0 -92 23.5 -128t68.5 -36q33 0 65.5 20t55.5 47.5t43.5 62t31.5 58t17 41.5q2 9 54 295q-6 78 -43 135t-93 57q-52 0 -95.5 -54t-70.5 -137.5t-42 -178t-15 -182.5z" />
<glyph unicode="&#xe4;" horiz-adv-x="991" d="M121 297q0 234 114 367t297 133q149 0 199 -142q6 42 23 123q70 0 133 5t91 9l28 5l-142 -774q61 6 103 57l30 -25q-61 -73 -153 -73q-89 0 -139 40.5t-58 116.5q-89 -157 -229 -157q-135 0 -216 82.5t-81 232.5zM352 193q0 -92 23.5 -128t68.5 -36q33 0 65.5 20 t55.5 47.5t43.5 62t31.5 58t17 41.5q2 9 54 295q-6 78 -43 135t-93 57q-52 0 -95.5 -54t-70.5 -137.5t-42 -178t-15 -182.5zM355 1009q0 50 34.5 85.5t84.5 35.5q49 0 84.5 -35.5t35.5 -85.5q0 -51 -35 -85t-85 -34q-51 0 -85 34t-34 85zM682 1009q0 50 34.5 85.5t84.5 35.5 q49 0 85 -36t36 -85q0 -50 -35.5 -84.5t-85.5 -34.5q-51 0 -85 34t-34 85z" />
<glyph unicode="&#xe5;" horiz-adv-x="991" d="M121 297q0 234 114 367t297 133q149 0 199 -142q6 42 23 123q70 0 133 5t91 9l28 5l-142 -774q61 6 103 57l30 -25q-61 -73 -153 -73q-89 0 -139 40.5t-58 116.5q-89 -157 -229 -157q-135 0 -216 82.5t-81 232.5zM352 193q0 -92 23.5 -128t68.5 -36q33 0 65.5 20 t55.5 47.5t43.5 62t31.5 58t17 41.5q2 9 54 295q-6 78 -43 135t-93 57q-52 0 -95.5 -54t-70.5 -137.5t-42 -178t-15 -182.5zM549 991q0 41 31 71t72 30t70.5 -30t29.5 -71t-29.5 -70.5t-70.5 -29.5q-42 0 -72.5 29.5t-30.5 70.5zM590 991q0 -25 18.5 -43t43.5 -18 q26 0 44.5 18t18.5 43q0 26 -18.5 45t-44.5 19q-25 0 -43.5 -19t-18.5 -45z" />
<glyph unicode="&#xe6;" horiz-adv-x="1351" d="M121 297q0 234 114 367t297 133q173 0 209 -189q57 92 149.5 140.5t211.5 48.5q260 0 260 -207q0 -129 -122 -195.5t-347 -68.5q-4 -74 -4 -117q0 -92 41.5 -136t107.5 -44q61 0 113 24.5t83.5 58.5t54 71t31.5 59.5t9 25.5l37 -16q-2 -11 -8 -29t-32.5 -64.5t-64 -82.5 t-108.5 -65t-160 -29q-134 0 -216 52t-107 146q-94 -198 -252 -198q-135 0 -216 82.5t-81 232.5zM352 193q0 -92 23.5 -128t68.5 -36q41 0 79 27.5t65.5 70t43 72.5t25.5 57v20q0 160 54 277q-6 79 -43 135.5t-93 56.5q-52 0 -95.5 -54t-70.5 -137.5t-42 -178t-15 -182.5z M899 373q412 3 412 217q0 68 -40 111.5t-110 43.5q-88 0 -162.5 -94t-99.5 -278z" />
<glyph unicode="&#xe7;" horiz-adv-x="831" d="M119 276q0 245 122 383t330 138q141 0 217 -71t76 -189q0 -73 -43.5 -112.5t-101.5 -39.5q-62 0 -105 43t-43 104q0 62 43.5 106t104.5 44q19 0 47 -8q-18 33 -58 52t-85 19q-39 0 -77 -18.5t-74 -60.5t-62.5 -102.5t-43 -152t-16.5 -202.5q0 -92 42 -136t108 -44 q61 0 113 24.5t83.5 58.5t54 71t31.5 59.5t9 25.5l36 -16q-2 -11 -7.5 -29t-32.5 -64.5t-64 -82.5t-108 -65t-160 -29q-165 0 -250.5 78.5t-85.5 215.5zM260 -238q0 67 51 107.5t150 40.5l18 94h37l-22 -133h-33q-71 0 -113.5 -29.5t-42.5 -81.5q0 -98 148 -98q47 0 89 13 t60 27l19 13l20 -34q-7 -6 -20 -16t-62.5 -26t-107.5 -16q-191 0 -191 139z" />
<glyph unicode="&#xe8;" horiz-adv-x="813" d="M119 276q0 244 121 382.5t323 138.5q260 0 260 -207q0 -129 -122 -195.5t-347 -68.5q-4 -74 -4 -117q0 -92 42 -136t108 -44q61 0 113 24.5t83.5 58.5t54 71t31.5 59.5t9 25.5l36 -16q-2 -11 -7.5 -29t-32.5 -64.5t-64 -82.5t-108 -65t-160 -29q-165 0 -250.5 78.5 t-85.5 215.5zM360 373q412 3 412 217q0 68 -39.5 111.5t-109.5 43.5q-88 0 -163 -94t-100 -278zM453 1155l53 21l108 -218l-53 -20z" />
<glyph unicode="&#xe9;" horiz-adv-x="813" d="M119 276q0 244 121 382.5t323 138.5q260 0 260 -207q0 -129 -122 -195.5t-347 -68.5q-4 -74 -4 -117q0 -92 42 -136t108 -44q61 0 113 24.5t83.5 58.5t54 71t31.5 59.5t9 25.5l36 -16q-2 -11 -7.5 -29t-32.5 -64.5t-64 -82.5t-108 -65t-160 -29q-165 0 -250.5 78.5 t-85.5 215.5zM360 373q412 3 412 217q0 68 -39.5 111.5t-109.5 43.5q-88 0 -163 -94t-100 -278zM535 958l108 218l53 -21l-108 -217z" />
<glyph unicode="&#xea;" horiz-adv-x="813" d="M119 276q0 244 121 382.5t323 138.5q260 0 260 -207q0 -129 -122 -195.5t-347 -68.5q-4 -74 -4 -117q0 -92 42 -136t108 -44q61 0 113 24.5t83.5 58.5t54 71t31.5 59.5t9 25.5l36 -16q-2 -11 -7.5 -29t-32.5 -64.5t-64 -82.5t-108 -65t-160 -29q-165 0 -250.5 78.5 t-85.5 215.5zM289 928l334 368h55l196 -381l-51 -24l-180 348l-309 -346zM360 373q412 3 412 217q0 68 -39.5 111.5t-109.5 43.5q-88 0 -163 -94t-100 -278z" />
<glyph unicode="&#xeb;" horiz-adv-x="813" d="M119 276q0 244 121 382.5t323 138.5q260 0 260 -207q0 -129 -122 -195.5t-347 -68.5q-4 -74 -4 -117q0 -92 42 -136t108 -44q61 0 113 24.5t83.5 58.5t54 71t31.5 59.5t9 25.5l36 -16q-2 -11 -7.5 -29t-32.5 -64.5t-64 -82.5t-108 -65t-160 -29q-165 0 -250.5 78.5 t-85.5 215.5zM264 1009q0 50 34.5 85.5t84.5 35.5q49 0 84.5 -35.5t35.5 -85.5q0 -51 -35 -85t-85 -34q-51 0 -85 34t-34 85zM360 373q412 3 412 217q0 68 -39.5 111.5t-109.5 43.5q-88 0 -163 -94t-100 -278zM591 1009q0 50 34.5 85.5t84.5 35.5t85.5 -36t35.5 -85 q0 -50 -35.5 -84.5t-85.5 -34.5q-51 0 -85 34t-34 85z" />
<glyph unicode="&#xec;" horiz-adv-x="495" d="M150 162q0 17 4 53q10 54 96 526h-86l4 37h88q70 0 133 5t91 9l28 5l-141 -774q60 6 102 57l31 -25q-61 -73 -154 -73q-95 0 -145.5 46.5t-50.5 133.5zM258 1155l53 21l108 -218l-53 -20z" />
<glyph unicode="&#xed;" horiz-adv-x="495" d="M150 162q0 17 4 53q10 54 96 526h-86l4 37h88q70 0 133 5t91 9l28 5l-141 -774q60 6 102 57l31 -25q-61 -73 -154 -73q-95 0 -145.5 46.5t-50.5 133.5zM352 911l109 217l53 -20l-108 -217z" />
<glyph unicode="&#xee;" horiz-adv-x="495" d="M90 928l334 368h55l197 -381l-51 -24l-181 348l-309 -346zM150 162q0 17 4 53q10 54 96 526h-86l4 37h88q70 0 133 5t91 9l28 5l-141 -774q60 6 102 57l31 -25q-61 -73 -154 -73q-95 0 -145.5 46.5t-50.5 133.5z" />
<glyph unicode="&#xef;" horiz-adv-x="495" d="M104 1010q0 50 34 85t85 35q50 0 85.5 -35.5t35.5 -84.5q0 -50 -35.5 -84.5t-85.5 -34.5q-51 0 -85 34t-34 85zM150 162q0 17 4 53q10 54 96 526h-86l4 37h88q70 0 133 5t91 9l28 5l-141 -774q60 6 102 57l31 -25q-61 -73 -154 -73q-95 0 -145.5 46.5t-50.5 133.5z M432 1010q0 50 34 85t85 35q50 0 85.5 -35.5t35.5 -84.5q0 -50 -35.5 -84.5t-85.5 -34.5q-51 0 -85 34t-34 85z" />
<glyph unicode="&#xf0;" horiz-adv-x="880" d="M111 281q0 97 35 185t90 149.5t121 107.5t129 68t114 22v-43q-67 0 -127 -71.5t-95.5 -187t-35.5 -239.5q0 -215 164 -215q55 0 118 38.5t120 107t95 181t38 243.5q0 170 -68 284h-219l6 37h186q-88 105 -243 105v39q189 0 292 -144h181l-6 -37h-152q64 -119 64 -284 q0 -180 -67.5 -327.5t-187.5 -231.5t-268 -84q-133 0 -208.5 82.5t-75.5 214.5z" />
<glyph unicode="&#xf1;" horiz-adv-x="1021" d="M127 723q61 74 154 74q95 0 145.5 -47t50.5 -134v-12q83 193 262 193q120 0 188 -68.5t68 -189.5q0 -63 -39 -244.5t-43 -271.5q24 0 49.5 14t39.5 29l14 14l31 -25q-2 -3 -5.5 -8t-17.5 -17.5t-31.5 -22t-49.5 -17.5t-69 -8q-92 0 -139 43t-47 125q0 72 37 255.5 t37 241.5q0 48 -20.5 68t-63.5 20q-67 0 -130 -88t-104 -241l-69 -383q62 6 104 57l31 -25q-61 -73 -154 -73t-144.5 47t-51.5 123q0 28 4.5 61.5t14.5 86.5t14 77l67 379q-59 -6 -102 -58zM197 899q2 6 6 15.5t18.5 37t31.5 52.5t44.5 56t58 53t72 37t86.5 15q62 0 98 -23 t49 -55.5t23.5 -64.5t34 -55t67.5 -23q47 0 90.5 23t71.5 55t49.5 64.5t30.5 55.5l10 23h54q-3 -11 -10.5 -29.5t-34 -65.5t-59.5 -82.5t-88.5 -65t-119.5 -29.5q-59 0 -93 23t-47 55.5t-24.5 65.5t-37 56t-72.5 23q-41 0 -81.5 -22.5t-69.5 -54t-51 -63.5t-33.5 -54.5 t-10.5 -22.5h-63z" />
<glyph unicode="&#xf2;" d="M121 276q0 80 12 150t44.5 140t85 119.5t139 80.5t200.5 31q156 0 239 -79t83 -216q0 -152 -52.5 -267.5t-162.5 -184t-267 -68.5q-158 0 -239.5 78.5t-81.5 215.5zM352 193q0 -164 94 -164q63 0 119.5 74.5t91.5 204t35 278.5q0 87 -20.5 129.5t-71.5 42.5 q-94 0 -171 -156.5t-77 -408.5zM440 1155l54 21l108 -218l-53 -20z" />
<glyph unicode="&#xf3;" d="M121 276q0 80 12 150t44.5 140t85 119.5t139 80.5t200.5 31q156 0 239 -79t83 -216q0 -152 -52.5 -267.5t-162.5 -184t-267 -68.5q-158 0 -239.5 78.5t-81.5 215.5zM352 193q0 -164 94 -164q63 0 119.5 74.5t91.5 204t35 278.5q0 87 -20.5 129.5t-71.5 42.5 q-94 0 -171 -156.5t-77 -408.5zM543 958l108 218l54 -21l-109 -217z" />
<glyph unicode="&#xf4;" d="M121 276q0 80 12 150t44.5 140t85 119.5t139 80.5t200.5 31q156 0 239 -79t83 -216q0 -152 -52.5 -267.5t-162.5 -184t-267 -68.5q-158 0 -239.5 78.5t-81.5 215.5zM313 928l334 368h55l197 -381l-51 -24l-180 348l-310 -346zM352 193q0 -164 94 -164q63 0 119.5 74.5 t91.5 204t35 278.5q0 87 -20.5 129.5t-71.5 42.5q-94 0 -171 -156.5t-77 -408.5z" />
<glyph unicode="&#xf5;" d="M121 276q0 80 12 150t44.5 140t85 119.5t139 80.5t200.5 31q156 0 239 -79t83 -216q0 -152 -52.5 -267.5t-162.5 -184t-267 -68.5q-158 0 -239.5 78.5t-81.5 215.5zM199 899q2 6 6 15.5t18.5 37t31.5 52.5t44.5 56t58 53t72 37t86.5 15q62 0 98 -23t49 -55.5t23.5 -64.5 t34 -55t67.5 -23q47 0 90.5 23t71.5 55t49.5 64.5t30.5 55.5l10 23h54q-3 -11 -10.5 -29.5t-34 -65.5t-59.5 -82.5t-88.5 -65t-119.5 -29.5q-59 0 -93 23t-47 55.5t-24.5 65.5t-37 56t-72.5 23q-41 0 -81.5 -22.5t-69.5 -54t-51 -63.5t-33.5 -54.5t-10.5 -22.5h-63zM352 193 q0 -164 94 -164q63 0 119.5 74.5t91.5 204t35 278.5q0 87 -20.5 129.5t-71.5 42.5q-94 0 -171 -156.5t-77 -408.5z" />
<glyph unicode="&#xf6;" d="M121 276q0 80 12 150t44.5 140t85 119.5t139 80.5t200.5 31q156 0 239 -79t83 -216q0 -152 -52.5 -267.5t-162.5 -184t-267 -68.5q-158 0 -239.5 78.5t-81.5 215.5zM322 1010q0 50 34 85t84 35t85.5 -35.5t35.5 -84.5q0 -50 -35.5 -84.5t-85.5 -34.5q-51 0 -84.5 34 t-33.5 85zM352 193q0 -164 94 -164q63 0 119.5 74.5t91.5 204t35 278.5q0 87 -20.5 129.5t-71.5 42.5q-94 0 -171 -156.5t-77 -408.5zM649 1010q0 50 34 85t85 35q50 0 85.5 -35.5t35.5 -84.5q0 -50 -35.5 -84.5t-85.5 -34.5q-51 0 -85 34t-34 85z" />
<glyph unicode="&#xf7;" d="M127 377l4 37h784l-4 -37h-784zM328 131q0 62 43 106t104 44t105.5 -44.5t44.5 -105.5t-44 -104t-106 -43q-61 0 -104 43t-43 104zM410 647q0 62 43 106t104 44t105.5 -44.5t44.5 -105.5t-44 -104t-106 -43q-61 0 -104 43t-43 104z" />
<glyph unicode="&#xf8;" d="M121 276q0 80 12 150t44.5 140t85 119.5t139 80.5t200.5 31q41 0 94 -11l164 328l53 -20l-161 -322q85 -32 128.5 -102t43.5 -168q0 -152 -52.5 -267.5t-162.5 -184t-267 -68.5q-46 0 -84 6l-163 -326l-54 21l160 319q-180 61 -180 274zM352 193q0 -46 6 -76l308 608 q-23 33 -66 33q-94 0 -171 -156.5t-77 -408.5zM389 51q22 -22 57 -22q63 0 119.5 74.5t91.5 204t35 278.5q0 25 -4 61z" />
<glyph unicode="&#xf9;" horiz-adv-x="1021" d="M115 723q2 3 5 8t17 18t32 22.5t49.5 17.5t68.5 8q92 0 139 -43t47 -125q0 -72 -37 -256t-37 -242q0 -48 20.5 -68t63.5 -20q60 0 116 69t97 193l86 473q70 0 132 5t89 9l27 5l-137 -774q60 6 102 57l31 -25q-61 -73 -154 -73t-143.5 45t-52.5 127q-86 -172 -254 -172 q-120 0 -188 68.5t-68 189.5q0 63 39 244.5t43 271.5q-24 0 -49.5 -14.5t-39.5 -29.5l-14 -14zM484 1155l53 21l108 -218l-53 -20z" />
<glyph unicode="&#xfa;" horiz-adv-x="1021" d="M115 723q2 3 5 8t17 18t32 22.5t49.5 17.5t68.5 8q92 0 139 -43t47 -125q0 -72 -37 -256t-37 -242q0 -48 20.5 -68t63.5 -20q60 0 116 69t97 193l86 473q70 0 132 5t89 9l27 5l-137 -774q60 6 102 57l31 -25q-61 -73 -154 -73t-143.5 45t-52.5 127q-86 -172 -254 -172 q-120 0 -188 68.5t-68 189.5q0 63 39 244.5t43 271.5q-24 0 -49.5 -14.5t-39.5 -29.5l-14 -14zM573 958l109 218l53 -21l-108 -217z" />
<glyph unicode="&#xfb;" horiz-adv-x="1021" d="M115 723q2 3 5 8t17 18t32 22.5t49.5 17.5t68.5 8q92 0 139 -43t47 -125q0 -72 -37 -256t-37 -242q0 -48 20.5 -68t63.5 -20q60 0 116 69t97 193l86 473q70 0 132 5t89 9l27 5l-137 -774q60 6 102 57l31 -25q-61 -73 -154 -73t-143.5 45t-52.5 127q-86 -172 -254 -172 q-120 0 -188 68.5t-68 189.5q0 63 39 244.5t43 271.5q-24 0 -49.5 -14.5t-39.5 -29.5l-14 -14zM350 928l334 368h55l197 -381l-51 -24l-180 348l-310 -346z" />
<glyph unicode="&#xfc;" horiz-adv-x="1021" d="M115 723q2 3 5 8t17 18t32 22.5t49.5 17.5t68.5 8q92 0 139 -43t47 -125q0 -72 -37 -256t-37 -242q0 -48 20.5 -68t63.5 -20q60 0 116 69t97 193l86 473q70 0 132 5t89 9l27 5l-137 -774q60 6 102 57l31 -25q-61 -73 -154 -73t-143.5 45t-52.5 127q-86 -172 -254 -172 q-120 0 -188 68.5t-68 189.5q0 63 39 244.5t43 271.5q-24 0 -49.5 -14.5t-39.5 -29.5l-14 -14zM342 1009q0 50 34.5 85.5t84.5 35.5q49 0 84.5 -35.5t35.5 -85.5q0 -51 -35 -85t-85 -34q-51 0 -85 34t-34 85zM669 1009q0 50 34.5 85.5t84.5 35.5t85.5 -36t35.5 -85 q0 -50 -35.5 -84.5t-85.5 -34.5q-51 0 -85 34t-34 85z" />
<glyph unicode="&#xfd;" horiz-adv-x="989" d="M113 -209q0 61 43 103.5t135 42.5q66 0 133 -26t98 -30l-4 -37q-36 3 -101 28.5t-126 25.5q-67 0 -101 -29.5t-34 -73.5q0 -64 58.5 -97.5t147.5 -33.5q119 0 179.5 69t83.5 187l51 283q-40 -90 -102 -139.5t-158 -49.5q-119 0 -183.5 68t-64.5 190q0 63 38 228.5 t42 255.5q-24 0 -49.5 -14.5t-39.5 -29.5l-14 -14l-30 25q2 3 5 8t17 18t32 22.5t49.5 17.5t68.5 8q92 0 139 -43t47 -125q0 -72 -39 -234.5t-39 -220.5q0 -98 82 -98q67 0 132 92.5t106 247.5l67 362q70 0 132 5t89 9l27 5l-129 -725q-37 -211 -171 -330t-347 -119 q-129 0 -199.5 44.5t-70.5 123.5zM584 958l108 218l53 -21l-108 -217z" />
<glyph unicode="&#xfe;" horiz-adv-x="940" d="M55 -281l230 1342q-61 -6 -103 -57l-30 24q61 74 153 74q95 0 146 -47t51 -133q0 -18 -4 -54q-14 -77 -37 -198q89 125 213 125q138 0 212.5 -79.5t74.5 -215.5q0 -242 -131.5 -380t-340.5 -138q-92 0 -145 43q-23 -119 -57 -306h-232zM356 94q33 -57 119 -57 q74 0 132.5 73t90 197.5t31.5 276.5q0 94 -19.5 129t-62.5 35q-116 0 -213 -224z" />
<glyph unicode="&#xff;" horiz-adv-x="989" d="M113 -209q0 61 43 103.5t135 42.5q66 0 133 -26t98 -30l-4 -37q-36 3 -101 28.5t-126 25.5q-67 0 -101 -29.5t-34 -73.5q0 -64 58.5 -97.5t147.5 -33.5q119 0 179.5 69t83.5 187l51 283q-40 -90 -102 -139.5t-158 -49.5q-119 0 -183.5 68t-64.5 190q0 63 38 228.5 t42 255.5q-24 0 -49.5 -14.5t-39.5 -29.5l-14 -14l-30 25q2 3 5 8t17 18t32 22.5t49.5 17.5t68.5 8q92 0 139 -43t47 -125q0 -72 -39 -234.5t-39 -220.5q0 -98 82 -98q67 0 132 92.5t106 247.5l67 362q70 0 132 5t89 9l27 5l-129 -725q-37 -211 -171 -330t-347 -119 q-129 0 -199.5 44.5t-70.5 123.5zM332 1010q0 50 34 85t85 35q49 0 84.5 -35t35.5 -85q0 -51 -35 -85t-85 -34q-51 0 -85 34t-34 85zM659 1010q0 50 34 85t85 35q50 0 85.5 -35.5t35.5 -84.5q0 -50 -35.5 -84.5t-85.5 -34.5q-51 0 -85 34t-34 85z" />
<glyph unicode="&#x152;" horiz-adv-x="2232" d="M182 356q0 241 106 442.5t293 321.5t416 129l2 -41q-97 -3 -179 -36.5t-141.5 -88t-106.5 -129.5t-77 -156.5t-49.5 -173t-27.5 -176t-8 -169.5q0 -96 22 -173t57.5 -125.5t83 -81t94.5 -46t95 -13.5q123 0 240.5 56t214.5 153v25q0 148 49 404t112 503q-89 98 -237 98 q-99 0 -180 -39t-131.5 -103.5t-77.5 -144.5t-27 -165q0 -79 24.5 -139t56 -89t70 -46.5t58 -21t29.5 -3.5l-2 -41q-8 0 -30.5 4t-67.5 24.5t-82.5 53.5t-67 101t-29.5 157q0 74 18.5 144.5t56 133.5t91 110.5t128.5 75t163 27.5q153 0 248 -92l51 191q100 30 276 30 q45 0 134 -19.5t175 -19.5q189 0 281 41q12 74 12 113h47q0 -75 -27 -166.5t-60 -162t-60 -155.5t-27 -149h-45q0 73 26 152t66.5 171.5t57.5 153.5q-88 -35 -268 -35q-104 0 -187.5 18.5t-134.5 20.5q-91 -333 -154 -686h656l-4 -37h-658q-55 -300 -80 -571q83 -2 164.5 15 t141 39t155.5 44t199 27l-6 -41q-92 -4 -181.5 -24.5t-150.5 -42.5t-152.5 -40t-189.5 -18q-178 0 -219 125q-224 -211 -518 -211q-248 0 -387.5 150t-139.5 417z" />
<glyph unicode="&#x153;" horiz-adv-x="1366" d="M121 276q0 80 12 150t44.5 140t85 119.5t139 80.5t200.5 31q163 0 246 -86q109 86 268 86q260 0 260 -207q0 -129 -122 -195.5t-347 -68.5q-4 -27 -4 -97q0 -114 40 -157t110 -43q61 0 113 24.5t83 58.5t53.5 71t31.5 59.5t9 25.5l37 -16q-2 -11 -7.5 -29t-32.5 -64.5 t-64 -82.5t-108 -65t-160 -29q-179 0 -265 92q-119 -92 -301 -92q-158 0 -239.5 78.5t-81.5 215.5zM352 193q0 -164 94 -164q63 0 119.5 74.5t91.5 204t35 278.5q0 87 -20.5 129.5t-71.5 42.5q-94 0 -171 -156.5t-77 -408.5zM913 373q412 3 412 217q0 68 -39.5 111.5 t-109.5 43.5q-208 0 -263 -372z" />
<glyph unicode="&#x178;" horiz-adv-x="1460" d="M217 651q0 263 152.5 429.5t396.5 166.5q451 0 451 -428q0 -85 -9 -165.5t-16.5 -114.5t-11.5 -47q65 141 128 262.5t138.5 252.5t152 232t157.5 184t167 127.5t168 44.5q116 0 162.5 -50t46.5 -148h-47q-10 89 -48 119t-114 30q-102 0 -219.5 -89t-225 -232t-212 -325.5 t-187 -366t-143.5 -357.5q-110 -314 -178 -520h-275q14 31 37.5 86t83.5 212t106 300.5t83.5 317t37.5 296.5q0 168 -67 252t-189 84q-67 0 -133.5 -20t-130 -64.5t-112 -108t-78 -156.5t-29.5 -204q0 -73 18 -135.5t46.5 -103.5t63 -73.5t69 -50.5t63 -29.5t46.5 -14.5 l18 -4l-15 -39l-4 1q-16 4 -31.5 8.5t-53.5 21t-68.5 37t-68.5 57t-64 79.5t-44 107.5t-18 138.5zM955 1417q0 50 34.5 85.5t84.5 35.5q49 0 84.5 -35.5t35.5 -85.5q0 -51 -35 -85t-85 -34q-51 0 -85 34t-34 85zM1282 1417q0 50 34.5 85.5t84.5 35.5q49 0 85 -36t36 -85 q0 -50 -35.5 -84.5t-85.5 -34.5q-51 0 -85 34t-34 85z" />
<glyph unicode="&#x2c6;" horiz-adv-x="675" d="M45 969l334 368h55l197 -381l-51 -24l-181 348l-309 -346z" />
<glyph unicode="&#x2dc;" horiz-adv-x="1030" d="M68 1292q4 11 12 29t36.5 64t62 81t89.5 64t117 29q45 0 76.5 -12t47.5 -32t26 -43.5t18 -47t18.5 -43.5t32 -32t53.5 -12q47 0 90.5 23t71.5 55.5t49.5 65t31.5 55.5l9 23h54q-3 -11 -10.5 -29.5t-34 -65.5t-59.5 -83t-88.5 -65.5t-119.5 -29.5q-59 0 -93 23t-47 56 t-24.5 65.5t-37 55.5t-72.5 23q-41 0 -81.5 -22.5t-69.5 -54.5t-51 -63.5t-33.5 -54t-10.5 -22.5h-63z" />
<glyph unicode="&#x2000;" horiz-adv-x="866" />
<glyph unicode="&#x2001;" horiz-adv-x="1733" />
<glyph unicode="&#x2002;" horiz-adv-x="866" />
<glyph unicode="&#x2003;" horiz-adv-x="1733" />
<glyph unicode="&#x2004;" horiz-adv-x="577" />
<glyph unicode="&#x2005;" horiz-adv-x="433" />
<glyph unicode="&#x2006;" horiz-adv-x="288" />
<glyph unicode="&#x2007;" horiz-adv-x="288" />
<glyph unicode="&#x2008;" horiz-adv-x="216" />
<glyph unicode="&#x2009;" horiz-adv-x="346" />
<glyph unicode="&#x200a;" horiz-adv-x="96" />
<glyph unicode="&#x2010;" horiz-adv-x="1017" d="M184 377l4 37h785l-4 -37h-785z" />
<glyph unicode="&#x2011;" horiz-adv-x="1017" d="M184 377l4 37h785l-4 -37h-785z" />
<glyph unicode="&#x2012;" horiz-adv-x="1017" d="M184 377l4 37h785l-4 -37h-785z" />
<glyph unicode="&#x2013;" horiz-adv-x="1120" d="M184 377l4 37h887l-4 -37h-887z" />
<glyph unicode="&#x2014;" horiz-adv-x="1325" d="M184 377l4 37h1092l-4 -37h-1092z" />
<glyph unicode="&#x2018;" horiz-adv-x="421" d="M258 1176q0 46 20.5 98t60.5 104t108 97t153 69l18 -43q-59 -19 -107 -45t-74.5 -50t-45 -45t-25.5 -33l-6 -13q19 8 48 8q62 0 104.5 -42.5t42.5 -104.5t-43 -106t-104 -44q-62 0 -106 44t-44 106z" />
<glyph unicode="&#x2019;" horiz-adv-x="380" d="M254 1069q59 19 107 45t74.5 50t45 45t25.5 33l6 13q-19 -8 -47 -8q-61 0 -104.5 43.5t-43.5 104.5q0 62 43.5 105.5t104.5 43.5t105 -44t44 -105q0 -46 -20.5 -98t-60.5 -104.5t-108 -97.5t-153 -69z" />
<glyph unicode="&#x201a;" horiz-adv-x="489" d="M61 -195q59 19 107 45.5t74.5 50t45 45t24.5 34.5l7 12q-19 -8 -47 -8q-62 0 -104.5 43t-42.5 104q0 62 43 106t104 44q62 0 106 -44.5t44 -105.5q0 -46 -20.5 -98t-60.5 -104.5t-108 -97.5t-153 -69z" />
<glyph unicode="&#x201c;" horiz-adv-x="804" d="M258 1176q0 46 20.5 98t60.5 104t108 97t153 69l18 -43q-59 -19 -107 -45t-74.5 -50t-45 -45t-25.5 -33l-6 -13q19 8 48 8q62 0 104.5 -42.5t42.5 -104.5t-43 -106t-104 -44q-62 0 -106 44t-44 106zM641 1176q0 46 20.5 98t60.5 104t108 97t153 69l18 -43 q-59 -19 -107 -45t-74.5 -50t-45 -45t-24.5 -33l-7 -13q19 8 48 8q61 0 104 -42.5t43 -104.5t-43 -106t-104 -44t-105.5 44t-44.5 106z" />
<glyph unicode="&#x201d;" horiz-adv-x="763" d="M254 1069q59 19 107 45t74.5 50t45 45t25.5 33l6 13q-19 -8 -47 -8q-61 0 -104.5 43.5t-43.5 104.5q0 62 43.5 105.5t104.5 43.5t105 -44t44 -105q0 -46 -20.5 -98t-60.5 -104.5t-108 -97.5t-153 -69zM637 1069q59 19 107 45t74.5 50t45 45t24.5 33l7 13q-19 -8 -47 -8 q-62 0 -105 43.5t-43 104.5q0 62 43.5 105.5t104.5 43.5q62 0 105.5 -44t43.5 -105q0 -46 -20.5 -98t-60.5 -104.5t-108 -97.5t-153 -69z" />
<glyph unicode="&#x201e;" horiz-adv-x="972" d="M61 -195q59 19 107 45.5t74.5 50t45 45t24.5 34.5l7 12q-19 -8 -47 -8q-62 0 -104.5 43t-42.5 104q0 62 43 106t104 44q62 0 106 -44.5t44 -105.5q0 -46 -20.5 -98t-60.5 -104.5t-108 -97.5t-153 -69zM547 -195q59 19 107 45.5t74.5 50t45 45t24.5 34.5l7 12 q-19 -8 -47 -8q-62 0 -105 43t-43 104q0 62 43.5 106t104.5 44t105 -44t44 -106q0 -46 -20.5 -98t-60.5 -104.5t-108 -97.5t-153 -69z" />
<glyph unicode="&#x2022;" horiz-adv-x="636" d="M219 487q0 75 53.5 130t128.5 55t130 -55t55 -130t-55 -128.5t-130 -53.5t-128.5 53.5t-53.5 128.5z" />
<glyph unicode="&#x2026;" horiz-adv-x="1439" d="M125 131q0 62 43 106t104 44q62 0 106 -44.5t44 -105.5t-44 -104t-106 -43t-104.5 43t-42.5 104zM602 131q0 62 43.5 106t104.5 44t105 -44t44 -106q0 -61 -43.5 -104t-105.5 -43t-105 43t-43 104zM1079 131q0 62 43.5 106t104.5 44t105 -44t44 -106q0 -61 -43.5 -104 t-105.5 -43t-105 43t-43 104z" />
<glyph unicode="&#x202f;" horiz-adv-x="346" />
<glyph unicode="&#x2039;" horiz-adv-x="577" d="M137 395l10 54q266 89 369 191q39 39 47 77h43q-10 -51 -56 -100t-113 -86.5t-128 -63.5t-125 -47q57 -23 106 -49t101 -63.5t77 -84.5t13 -96h-43q22 105 -181 213q-31 17 -120 55z" />
<glyph unicode="&#x203a;" horiz-adv-x="577" d="M121 127q10 51 56 100t113 86.5t128 63.5t125 47q-57 23 -106 49t-101 63.5t-77 84.5t-13 96h43q-22 -105 181 -213q37 -20 120 -55l-10 -54q-266 -89 -369 -191q-39 -40 -47 -77h-43z" />
<glyph unicode="&#x205f;" horiz-adv-x="433" />
<glyph unicode="&#x20ac;" horiz-adv-x="1445" d="M117 362l4 37h201q0 96 14 176h-178l4 37h182q66 286 292 460.5t554 174.5q180 0 260 -64.5t80 -201.5q0 -41 -14.5 -84.5t-30.5 -71t-45 -71.5q-29 -47 -41.5 -68.5t-26.5 -61.5t-14 -75h-45q0 13 1.5 26.5t3.5 24.5t7 25.5t7 22.5t10 23.5t10.5 21t12.5 22.5t12 20.5 t13.5 22t12.5 20.5q28 43 41.5 66t26 60t12.5 73q0 34 -4.5 61t-22 60t-47.5 54.5t-86 36.5t-133 15q-45 0 -123 -8q-57 -17 -109 -43.5t-109.5 -74t-104 -109t-87 -153.5t-63.5 -204h496l-5 -37h-497q-15 -83 -21 -176h482l-5 -37h-479q-2 -29 -2 -83q0 -307 199 -406 q50 -6 102 -6q79 0 148.5 16.5t117 43.5t86 59t61.5 64.5t38.5 59.5t21.5 44l6 16l41 -16q-2 -7 -6 -18.5t-21.5 -46t-40.5 -65.5t-65.5 -68.5t-93.5 -65t-127.5 -46t-165.5 -18.5q-251 0 -392 139t-150 397h-205z" />
<glyph unicode="&#x2122;" horiz-adv-x="1814" d="M236 750h51q2 -1 0 -14t3 -36t10.5 -49.5t22 -53.5t38 -49t58.5 -36t83 -14q75 0 118 62.5t78 221.5q43 176 89.5 263t113.5 116q-2 2 -4 2q-135 58 -254 58q-68 0 -119.5 -21t-80 -55.5t-42.5 -74.5t-14 -83q0 -52 20 -90.5t48.5 -56.5t56.5 -29t48 -13l20 -1l-11 -47 q-7 0 -25.5 3t-55.5 17t-68.5 37t-55.5 70.5t-24 109.5q0 112 78.5 196.5t224.5 84.5q78 0 146.5 -16.5t109 -36t92.5 -36t101 -16.5q47 0 82 17t51 38t25.5 48t10.5 39t1 20h47q0 -8 -1.5 -23t-13.5 -50.5t-32.5 -63t-65 -50t-104.5 -22.5q-71 0 -117 14q-59 -84 -135 -387 q-41 -148 -117 -221t-221 -73q-134 0 -203.5 89.5t-62.5 211.5zM748 446v43q74 2 128.5 30.5t113.5 103t132 213.5l195 362h39l41 -536v4q201 274 337 417.5t214 143.5v-45q-38 0 -82 -29q-94 -260 -124 -365.5t-30 -193.5q0 -52 14 -72q17 2 35 11.5t27 18.5l10 9l31 -35 q-5 -6 -14.5 -14.5t-38 -22.5t-56.5 -14q-157 0 -157 174q0 20 3 43t5 37t9.5 43.5t9.5 35.5t13 42l11 35q-53 -69 -316 -432l-36 6l-35 469l-62 -111q-115 -216 -201 -293.5t-216 -77.5z" />
<glyph unicode="&#x25fc;" horiz-adv-x="798" d="M0 0v799h799v-799h-799z" />
</font>
</defs>
</svg>
