<?xml version="1.0" standalone="no"?>
<!DOCTYPE svg PUBLIC "-//W3C//DTD SVG 1.1//EN" "http://www.w3.org/Graphics/SVG/1.1/DTD/svg11.dtd" >
<svg xmlns="http://www.w3.org/2000/svg">
<metadata></metadata>
<defs>
<font id="print_boldregular" horiz-adv-x="946" >
<font-face units-per-em="2048" ascent="1546" descent="-502" />
<missing-glyph horiz-adv-x="608" />
<glyph unicode="&#xfb02;" horiz-adv-x="1222" d="M100 659q0 28 19 47t45 19h84v270q0 113 66.5 174.5t181.5 61.5q61 0 137.5 -36.5t105.5 -86.5v2q11 -22 11 -39q0 -25 -19 -44t-45 -19q-27 0 -57 30v-2q-66 66 -131 66q-51 0 -86 -23.5t-35 -70.5v-283h153q25 0 44.5 -19.5t19.5 -46.5q0 -26 -19.5 -44.5t-44.5 -18.5 h-153v-545q0 -25 -19.5 -44t-46.5 -19q-26 0 -44.5 19t-18.5 44v545h-84q-26 0 -45 18.5t-19 44.5zM981 51v1112q0 24 19.5 44t46.5 20t45 -20t18 -44v-1112q0 -25 -18 -44t-45 -19t-46.5 19t-19.5 44z" />
<glyph horiz-adv-x="2048" />
<glyph horiz-adv-x="2048" />
<glyph unicode="&#xd;" horiz-adv-x="2048" />
<glyph unicode=" "  horiz-adv-x="608" />
<glyph unicode="&#x09;" horiz-adv-x="608" />
<glyph unicode="&#xa0;" horiz-adv-x="608" />
<glyph unicode="!" horiz-adv-x="376" d="M100 74q0 33 23.5 56.5t58.5 23.5q31 0 55.5 -24t24.5 -56q0 -33 -24.5 -57.5t-55.5 -24.5q-35 0 -58.5 24t-23.5 58zM117 289v882q0 26 19 46t46 20q23 0 43.5 -20.5t20.5 -45.5v-882q0 -27 -20 -47.5t-44 -20.5q-27 0 -46 20t-19 48z" />
<glyph unicode="&#x22;" horiz-adv-x="542" d="M106 860v307q0 28 19 47t45 19q28 0 47 -19t19 -47v-307q0 -26 -19 -44.5t-47 -18.5q-26 0 -45 18.5t-19 44.5zM307 860v307q0 28 18 47t46 19t46.5 -19t18.5 -47v-307q0 -26 -18.5 -44.5t-46.5 -18.5q-27 0 -45.5 18.5t-18.5 44.5z" />
<glyph unicode="#" horiz-adv-x="937" d="M111 780q0 24 18.5 44t44.5 20h55l23 88h-78q-26 0 -44.5 18t-18.5 43q0 28 18.5 47t44.5 19h109l28 121l-2 -2q3 23 21.5 37t42.5 14q26 0 44.5 -19t18.5 -45q0 -16 -20 -98v-8h155l29 121l-2 -2q3 23 21 37t40 14q28 0 47 -19t19 -45q0 -5 -4 -22l-10 -42.5t-9 -41.5 h27q26 0 45 -19t19 -47q0 -25 -19 -43t-45 -18h-55l-23 -88h78q26 0 45 -20t19 -44q0 -28 -18.5 -46.5t-45.5 -18.5h-108l-29 -119l2 2q-4 -25 -22 -39t-42 -14q-26 0 -44.5 18.5t-18.5 44.5q0 17 22 107h-155l-31 -119l2 2q-4 -25 -21 -39t-40 -14q-28 0 -47 18.5t-19 44.5 q0 5 4 22.5t10 43t9 41.5h-27q-26 0 -44.5 18.5t-18.5 46.5zM362 844h156l23 88h-158z" />
<glyph unicode="$" horiz-adv-x="997" d="M111 346q0 26 20 45t45 19q28 0 44.5 -17.5t19.5 -42.5q0 -3 1 -12.5t1 -13.5q0 -17 2 -27q15 -104 102 -160q27 -18 60 -28v483q-62 21 -110.5 47t-92.5 64t-68 92.5t-24 122.5q0 126 84 215t208 104q4 78 66 78q70 0 66 -84q121 -26 192.5 -118.5t71.5 -219.5 q0 -27 -19 -44.5t-45 -17.5q-32 0 -45 13.5t-18 40.5q-4 20 -4 33l-4 36q-30 115 -129 142v-412q63 -25 116 -58.5t99.5 -78.5t73 -105.5t26.5 -128.5q0 -143 -88.5 -235.5t-226.5 -106.5v-159q0 -24 -19.5 -44t-46.5 -20q-23 0 -43 20.5t-20 43.5v163q-136 28 -215.5 128 t-79.5 243zM240 918q0 -120 166 -189v377q-71 -14 -118.5 -66t-47.5 -122zM535 100q85 11 135.5 67.5t50.5 147.5q0 145 -186 230v-445z" />
<glyph unicode="%" horiz-adv-x="1497" d="M121 881q0 48 11.5 98t35 97.5t57 85t81 60.5t102.5 23q88 0 155 -59.5t98 -141t31 -163.5q0 -83 -31 -165t-98 -142t-155 -60q-90 0 -157.5 60t-98.5 141.5t-31 165.5zM250 881q0 -52 16 -104.5t53.5 -93t88.5 -40.5q50 0 86.5 40.5t52.5 93t16 104.5t-16 104 t-52.5 91.5t-86.5 39.5q-51 0 -88.5 -39.5t-53.5 -91.5t-16 -104zM397 41q0 10 38 95t105.5 226.5t126.5 264.5t135 279.5t97 201.5l33 72q16 37 59 37q26 0 44 -19t18 -47q0 -26 -516 -1104l-19 -37q-14 -33 -55 -33q-25 0 -45.5 19t-20.5 45zM750 311q0 83 31 164.5 t98 141t155 59.5q90 0 157.5 -59.5t98.5 -140.5t31 -165q0 -62 -18.5 -125t-53 -117.5t-91 -89t-124.5 -34.5q-67 0 -122.5 34.5t-90 89t-53 117.5t-18.5 125zM877 311q0 -52 16.5 -104.5t53.5 -92.5t87 -40t87.5 40t54 92.5t16.5 104.5q0 51 -16.5 103.5t-54 93.5t-87.5 41 t-87 -41t-53.5 -93.5t-16.5 -103.5z" />
<glyph unicode="&#x26;" horiz-adv-x="1589" d="M123 240q0 55 21.5 108.5t52 94.5t78.5 85.5t86 72.5t90 63q-123 160 -123 299q0 86 47 154t120 103t156 35q119 0 195 -68.5t76 -187.5q0 -36 -10 -70.5t-23 -61.5t-39 -57t-45 -49t-54.5 -46.5t-54 -40.5l-55.5 -39q154 -163 471 -379q62 111 62 227q0 37 -19 119 q-2 6 -2 16q0 25 19.5 44.5t46.5 19.5t45 -25t25 -64.5t9 -63.5t2 -46q0 -151 -81 -299l47 -26q80 -49 116 -76q27 -27 27 -53q0 -25 -18.5 -45.5t-44.5 -20.5t-203 119h2h-4q-98 -104 -241.5 -155.5t-295.5 -51.5q-65 0 -128 10.5t-125.5 34t-113.5 66.5t-79 102 q-35 82 -35 152zM252 236q0 -63 32.5 -110.5t86.5 -72.5t111.5 -37t119.5 -12q125 0 239 36.5t193 113.5q-328 220 -499 409q-56 -37 -96 -67t-88 -74t-73.5 -91.5t-25.5 -94.5zM457 965q0 -101 98 -232q45 30 64 43.5t60 46t60.5 56t36.5 56.5t17 64q0 61 -39 94t-103 33 q-76 0 -135 -44.5t-59 -116.5z" />
<glyph unicode="'" horiz-adv-x="339" d="M98 860v307q0 28 19 47t47 19q27 0 45 -19t18 -47v-307q0 -27 -18 -45t-45 -18q-28 0 -47 18.5t-19 44.5z" />
<glyph unicode="(" horiz-adv-x="630" d="M104 401q0 155 25 314q9 50 21.5 103t39.5 124.5t59 125.5t82 92t107 38q25 0 45.5 -20t20.5 -43q0 -27 -20.5 -46.5t-45.5 -19.5q-38 0 -72 -45.5t-56.5 -116t-35.5 -124t-20 -99.5q-21 -141 -21 -283q0 -138 21 -282q7 -45 20 -98.5t35.5 -124t56.5 -116.5t72 -46 q25 0 45.5 -19t20.5 -43q0 -27 -20 -46t-46 -19q-55 0 -103.5 37t-81 90t-59.5 124t-41 125t-24 107q-25 156 -25 311z" />
<glyph unicode=")" horiz-adv-x="630" d="M104 -328q0 25 19.5 43.5t46.5 18.5q36 0 70 46.5t56.5 115t36 125.5t19.5 98q23 138 23 282q0 148 -23 283q-6 41 -19.5 98.5t-36 125.5t-56.5 114.5t-70 46.5q-28 0 -47 19t-19 47q0 24 19.5 43.5t46.5 19.5q57 0 106 -38t81.5 -92t59 -125.5t39 -124.5t21.5 -103 q27 -153 27 -314t-27 -311q-9 -51 -23 -106.5t-41 -125.5t-59.5 -123.5t-81 -90.5t-102.5 -37q-28 0 -47 18.5t-19 46.5z" />
<glyph unicode="*" horiz-adv-x="843" d="M109 709q0 33 26 53l164 112l-164 109q-26 19 -26 53q0 28 18.5 47t44.5 19q4 0 10.5 -2t15 -6.5l17 -9t20.5 -12t21 -13.5t22.5 -15.5t22 -15.5t22.5 -16l21 -15v148q0 27 19 46t45 19q28 0 46.5 -18.5t18.5 -46.5v-156q132 101 166 101q28 0 47 -18t19 -46 q0 -32 -29 -55l-146 -99q12 -8 146 -98q29 -23 29 -53q0 -28 -19 -47t-47 -19q-27 0 -166 101v-154q0 -28 -18.5 -46.5t-46.5 -18.5q-26 0 -45 18.5t-19 46.5v146q-146 -103 -172 -103t-44.5 19t-18.5 45z" />
<glyph unicode="+" horiz-adv-x="909" d="M111 647q0 27 18 45.5t45 18.5h199v198q0 28 18.5 47t46.5 19q26 0 45 -19t19 -47v-198h198q28 0 47 -19t19 -45q0 -25 -19.5 -45t-46.5 -20h-198v-199q0 -25 -19 -44.5t-45 -19.5q-27 0 -46 19.5t-19 44.5v199h-199q-27 0 -45 19.5t-18 45.5z" />
<glyph unicode="," horiz-adv-x="397" d="M98 -106q2 23 22.5 67.5t22.5 56.5q-24 24 -24 58q0 31 25.5 56.5t56.5 25.5t55 -24t27 -54v-17q0 -43 -41.5 -126t-77.5 -93q-25 -8 -47 8.5t-19 41.5z" />
<glyph unicode="-" horiz-adv-x="743" d="M106 653q0 26 19 45t47 19h375q26 0 43.5 -18.5t17.5 -45.5q0 -26 -17.5 -45.5t-43.5 -19.5h-375q-27 0 -46.5 20t-19.5 45z" />
<glyph unicode="." horiz-adv-x="376" d="M100 74q0 33 23.5 56.5t58.5 23.5q31 0 55.5 -24t24.5 -56q0 -33 -24.5 -57.5t-55.5 -24.5q-35 0 -58.5 24t-23.5 58z" />
<glyph unicode="/" horiz-adv-x="700" d="M106 41q0 11 154.5 528.5t181.5 599.5q3 22 21 37t41 15q28 0 46.5 -18.5t18.5 -45.5q0 -12 -148 -505.5t-188 -622.5q-4 -22 -22.5 -37t-40.5 -15q-26 0 -45 19t-19 45z" />
<glyph unicode="0" horiz-adv-x="1110" d="M104 616q0 171 63 336t189 248q83 55 179 55q95 0 178 -55q126 -83 189 -248t63 -336q0 -108 -24.5 -215t-83.5 -210t-144 -160q-85 -56 -178 -56q-94 0 -179 56q-85 57 -144 160t-83.5 210t-24.5 215zM233 616q0 -142 48.5 -277.5t146.5 -199.5q46 -35 107 -35 q60 0 106 35q98 64 146.5 199.5t48.5 277.5q0 133 -51 270t-144 206q-53 34 -106 34q-54 0 -107 -34q-93 -69 -144 -206t-51 -270z" />
<glyph unicode="1" horiz-adv-x="866" d="M227 1057q0 35 27 53q37 29 100 70t84 41q28 0 47 -19t19 -45v-1026h39q28 0 46.5 -18.5t18.5 -46.5q0 -24 -19 -44t-46 -20h-207q-26 0 -45 20t-19 44q0 28 19 46.5t45 18.5h39v901q-68 -41 -84 -41q-28 0 -46 19t-18 47z" />
<glyph unicode="2" horiz-adv-x="962" d="M100 877q0 151 105.5 258.5t257.5 107.5q150 0 256 -107.5t106 -258.5q0 -53 -10 -101t-24.5 -84.5t-42 -72.5t-50.5 -60t-62 -53.5t-64.5 -46.5t-69.5 -45q-49 -31 -73 -46.5t-63 -46.5t-59.5 -56t-40 -61.5t-26.5 -76.5h508q28 0 46.5 -18.5t18.5 -45.5q0 -25 -19 -45 t-46 -20h-578l-25 2l-20 16l-19 23l-2 24q0 52 10.5 99t25.5 82.5t43 72t51 60.5t62 54t64 46.5t68 44.5q51 32 80 52t69.5 55.5t62.5 67.5t38 78t16 97q0 100 -66.5 171t-164.5 71t-166 -70t-68 -167q0 -28 -18 -47t-45 -19q-28 0 -47 19t-19 47z" />
<glyph unicode="3" horiz-adv-x="1009" d="M102 346q0 26 19 45t45 19q28 0 46.5 -19t18.5 -45q0 -103 75.5 -174.5t178.5 -71.5q104 0 180 71.5t76 174.5q0 102 -76 173t-180 71q-26 0 -44.5 18.5t-18.5 44.5q0 28 18.5 47t46.5 19q88 0 157 57.5t69 143.5t-68.5 143t-157.5 57q-91 0 -159 -56.5t-68 -143.5 q0 -28 -18.5 -46t-46.5 -18q-27 0 -45.5 18.5t-18.5 45.5q0 142 106.5 235.5t249.5 93.5q91 0 172 -41t132 -117.5t51 -170.5q0 -81 -39 -150t-105 -115q79 -52 125.5 -133.5t46.5 -175.5q0 -157 -113.5 -266t-271.5 -109q-157 0 -270 109t-113 266z" />
<glyph unicode="4" horiz-adv-x="983" d="M102 651l93 537q3 22 21 37.5t42 15.5q29 0 49 -20t17 -54l-80 -462h336v473q0 27 18 45t45 18q26 0 46 -18t20 -45v-473h71q28 0 47 -19t19 -47q0 -25 -19.5 -44.5t-46.5 -19.5h-71v-516q0 -27 -20 -46t-46 -19t-44.5 18.5t-18.5 46.5v516h-414q-27 0 -45.5 21t-18.5 55 z" />
<glyph unicode="5" horiz-adv-x="972" d="M102 381v10q0 55 13 74q16 24 57 24q27 0 43 -21t16 -46q0 -4 -1 -12t-1 -11v-18q0 -110 67 -191t173 -81q74 0 130 50.5t82 121t26 143.5t-26 144t-82 122t-130 51q-112 0 -213 -98q-22 -22 -53 -18q-31 -3 -55 18t-21 51l53 461q3 25 21.5 41t44.5 16h495q26 0 46 -19 t20 -46q0 -26 -20.5 -45t-45.5 -19h-438q-5 -41 -16 -121t-17 -147q102 55 199 55q85 0 156.5 -41t116 -106.5t69.5 -143t25 -155.5t-25 -156t-69.5 -142.5t-116 -105t-156.5 -40.5q-107 0 -192 57t-130 148t-45 196z" />
<glyph unicode="6" horiz-adv-x="1013" d="M109 326q-31 199 49.5 428t236.5 374q90 83 207 117h10q25 0 44.5 -18.5t19.5 -44.5q0 -49 -43 -62q-4 -2 -15 -5t-14 -5q-30 -11 -39 -18q-96 -53 -168 -149t-114 -214q91 66 206 66q108 0 197.5 -57.5t138.5 -151t49 -199.5q0 -165 -110.5 -285t-274.5 -120 q-146 0 -252 99t-128 245zM233 387q0 -110 74 -193t182 -83q110 0 183 82.5t73 193.5q0 112 -73 195.5t-183 83.5q-108 0 -182 -84t-74 -195z" />
<glyph unicode="7" horiz-adv-x="962" d="M100 1147q0 25 19 45t45 20h598q26 0 44.5 -20t18.5 -45q0 -10 -95.5 -266.5t-190.5 -503.5q-21 -55 -65.5 -172.5t-65.5 -173.5v2q-7 -21 -25 -33t-37 -12q-28 0 -46.5 18.5t-18.5 46.5q0 8 74 207.5t181 483.5t128 339h-498q-27 0 -46.5 19.5t-19.5 44.5z" />
<glyph unicode="8" horiz-adv-x="1009" d="M102 350q0 102 43.5 183.5t126.5 130.5q-65 46 -103 114t-38 148q0 141 107 235t249 94q91 0 172 -41.5t132 -118t51 -169.5q0 -80 -38.5 -149t-103.5 -115q78 -50 124 -133.5t46 -178.5q0 -156 -113.5 -264.5t-271.5 -108.5q-157 0 -270 109t-113 264zM231 350 q0 -102 75.5 -173t178.5 -71q104 0 180 71t76 173q0 103 -76 174.5t-180 71.5q-103 0 -178.5 -71.5t-75.5 -174.5zM260 926q0 -87 68 -144t159 -57q88 0 157 57.5t69 143.5t-68.5 143t-157.5 57q-91 0 -159 -56.5t-68 -143.5z" />
<glyph unicode="9" horiz-adv-x="1009" d="M102 872q0 155 113 264t270 109q167 0 276 -113.5t109 -279.5q0 -198 -91.5 -398t-237.5 -358l-21 -21l-20.5 -20.5t-17 -16.5t-19 -17t-17.5 -13.5t-20 -13.5q-15 -12 -37 -12q-28 0 -46.5 18.5t-18.5 44.5q0 27 20 47l49 47l53 49q153 166 232 361q-80 -49 -193 -49 q-157 0 -270 107.5t-113 264.5zM231 872q0 -104 75.5 -174.5t178.5 -70.5q105 0 180.5 70.5t75.5 174.5q0 103 -75.5 172.5t-180.5 69.5q-103 0 -178.5 -70t-75.5 -172z" />
<glyph unicode=":" horiz-adv-x="376" d="M100 72q0 34 23.5 58t58.5 24q31 0 55.5 -24.5t24.5 -57.5q0 -31 -24.5 -56.5t-55.5 -25.5q-34 0 -58 25t-24 57zM100 614q0 33 23.5 56.5t58.5 23.5q31 0 55.5 -24t24.5 -56q0 -33 -24.5 -57.5t-55.5 -24.5q-35 0 -58.5 24t-23.5 58z" />
<glyph unicode=";" horiz-adv-x="397" d="M102 -84q35 71 41 102q-24 24 -24 58q0 31 25.5 56.5t56.5 25.5t55 -24t27 -54v-17q0 -48 -39.5 -133.5t-79.5 -85.5q-26 0 -44 20.5t-18 51.5zM119 614q0 32 25.5 56t56.5 24t56.5 -24t25.5 -56q0 -33 -25.5 -57.5t-56.5 -24.5t-56.5 24.5t-25.5 57.5z" />
<glyph unicode="&#x3c;" horiz-adv-x="788" d="M106 655q0 33 27 54l418 278q24 12 37 12q26 0 44.5 -20t18.5 -45q0 -33 -28 -53l-342 -228q34 -23 155.5 -104.5t186.5 -126.5q28 -19 28 -51q0 -28 -18.5 -47t-44.5 -19q-21 0 -37 10l-416 279q-29 21 -29 61z" />
<glyph unicode="=" horiz-adv-x="909" d="M111 559q0 28 18 47t45 19h526q28 0 47 -19t19 -47q0 -25 -19.5 -44t-46.5 -19h-526q-27 0 -45 19t-18 44zM111 758q0 26 18 45.5t45 19.5h526q27 0 46.5 -20t19.5 -45q0 -26 -19 -45t-47 -19h-526q-27 0 -45 18.5t-18 45.5z" />
<glyph unicode="&#x3e;" horiz-adv-x="788" d="M106 371q0 35 29 51q44 29 111 74t122.5 82t110.5 75q-156 101 -346 228q-27 20 -27 53q0 25 19.5 45t46.5 20q21 0 37 -12q143 -95 414 -278q28 -17 28 -54q0 -41 -28 -61l-414 -279q-16 -10 -37 -10q-28 0 -47 19t-19 47z" />
<glyph unicode="?" horiz-adv-x="987" d="M111 889q0 161 103 258.5t267 97.5q151 0 255 -94t104 -244q0 -51 -12.5 -95t-29 -74.5t-49.5 -64t-57 -52.5t-69 -52l-23 -18q-65 -50 -90 -103t-25 -137v-8q0 -20 -1 -30t-6.5 -24.5t-19.5 -21t-36 -6.5q-66 0 -66 76v14q0 109 40 190.5t126 151.5q30 24 31 25 q41 29 62 47t47 46.5t37.5 61t11.5 72.5q0 96 -67 153.5t-165 57.5q-104 0 -171.5 -59.5t-67.5 -159.5q0 -29 -15 -49.5t-47 -20.5q-28 0 -47.5 17.5t-19.5 44.5zM336 72q0 33 25.5 57.5t56.5 24.5q35 0 58.5 -24t23.5 -58q0 -32 -24 -57t-58 -25q-31 0 -56.5 25.5 t-25.5 56.5z" />
<glyph unicode="@" horiz-adv-x="1761" d="M125 371q0 269 155 485t410 309q125 41 234 41q185 0 333 -84t231 -232t83 -331q0 -172 -60.5 -322t-187.5 -245q-98 -71 -188 -84l2 2q-16 -4 -33 -4q-55 0 -85 33.5t-30 89.5v28q-105 -82 -227 -82q-132 0 -216.5 93t-84.5 227q0 102 51 196.5t141.5 154t194.5 59.5 q135 0 219 -97l4 31q5 55 70 55q23 0 40 -24t17 -49l-80 -582q-2 0 -2 -2q77 20 141 75.5t103.5 129t60.5 156t21 161.5q0 224 -147 371t-371 147q-88 0 -189 -33q-217 -80 -349 -263.5t-132 -411.5q0 -176 81 -320t224.5 -226.5t319.5 -82.5q34 0 57 2q233 23 352 174 q18 27 51 27q26 0 45 -19t19 -45q0 -19 -8 -37q-73 -113 -221 -172t-297 -59q-158 0 -297.5 59t-239 160t-157.5 242t-58 299zM590 295q0 -79 48 -135t124 -56q106 0 183 87t77 194q0 80 -48 135t-126 55q-105 0 -181.5 -86.5t-76.5 -193.5z" />
<glyph unicode="A" horiz-adv-x="1126" d="M102 51q0 12 169 528t212 644q6 22 24 33.5t40 11.5q48 0 63 -45q3 -13 16 -53.5t39 -117.5t46 -141q280 -833 280 -860q0 -25 -20 -45t-45 -20q-21 0 -39.5 13t-24.5 34l-135 416h-360q-24 -75 -70.5 -212.5t-67.5 -203.5q-7 -22 -24 -34.5t-37 -12.5q-27 0 -46.5 20 t-19.5 45zM410 580h272l-135 419z" />
<glyph unicode="B" horiz-adv-x="950" d="M109 57v1133q0 25 19 45t46 20h262q130 0 217.5 -99t87.5 -230q0 -68 -28 -135t-76 -115q88 -47 137 -131t49 -187q0 -154 -111.5 -262t-265.5 -108h-270q-27 0 -47 22.5t-20 46.5zM240 119h206q100 0 173 69.5t73 169.5q0 99 -73.5 168.5t-172.5 69.5h-206v-477z M240 727h194q77 0 126.5 59.5t49.5 139.5t-49.5 140t-124.5 60h-196v-399z" />
<glyph unicode="C" horiz-adv-x="1042" d="M100 625q0 110 25 218.5t85 213.5t146 164q88 55 181 55q91 0 174.5 -58t142.5 -143q15 -21 36 -63t21 -60q0 -27 -20 -46t-45 -19q-42 0 -62 39q-103 219 -247 219q-54 0 -107 -37q-100 -65 -149.5 -202t-49.5 -281q0 -134 52 -273.5t147 -208.5q53 -34 107 -34 q144 0 247 219q18 37 62 37q25 0 45 -19.5t20 -44.5q0 -31 -57 -125q-59 -85 -141.5 -142t-175.5 -57q-96 0 -181 56q-87 57 -147 162t-84.5 213t-24.5 217z" />
<glyph unicode="D" horiz-adv-x="995" d="M109 53v1133q0 24 20 45.5t47 21.5h279q60 0 114 -24t94.5 -62.5t75 -90.5t57 -103t38.5 -105q32 -117 32 -247q0 -129 -32 -246q-20 -68 -52 -131.5t-78 -122t-111 -94t-138 -35.5h-256q-12 -4 -25 -4q-26 0 -45.5 20t-19.5 45zM240 123h215q48 0 91.5 27.5t75 71.5 t53.5 91.5t34 96.5q26 111 26 211q0 103 -26 213q-13 49 -34.5 96.5t-53 92t-75 72t-91.5 27.5h-215v-999z" />
<glyph unicode="E" horiz-adv-x="882" d="M109 59v1129q0 25 19 45t46 20h518q27 0 46.5 -20t19.5 -45q0 -28 -19 -47t-47 -19h-452v-389h282q26 0 46 -20t20 -45q0 -27 -19.5 -46.5t-46.5 -19.5h-282v-477h452q28 0 47 -19t19 -47q0 -25 -19.5 -45t-46.5 -20h-518q-27 0 -46 20t-19 45z" />
<glyph unicode="F" horiz-adv-x="882" d="M109 57v1129q0 28 18.5 46.5t46.5 18.5h518q28 0 47 -18.5t19 -46.5t-19 -47t-47 -19h-452v-389h282q27 0 46.5 -19t19.5 -46t-19.5 -46.5t-46.5 -19.5h-282v-543q0 -25 -20 -45t-46 -20q-27 0 -46 20t-19 45z" />
<glyph unicode="G" horiz-adv-x="1110" d="M102 629q0 110 24 218t83.5 213t146.5 163q92 55 183 55t174.5 -58t142.5 -143q55 -92 55 -123q0 -25 -20 -45t-45 -20q-43 0 -60 39l-16 35l-27 43q-37 60 -91 100.5t-113 40.5q-49 0 -109 -35q-95 -70 -147 -209.5t-52 -273.5q0 -135 52 -275.5t147 -210.5 q55 -32 109 -32q52 0 99.5 28.5t81.5 75.5t58 98t39 105q16 62 23 145h-207q-28 0 -47 19t-19 47q0 25 19.5 45t46.5 20h276q25 0 45.5 -20t20.5 -45q0 -109 -25 -217.5t-85 -213.5t-146 -163q-83 -55 -180 -55t-183 55q-86 58 -145.5 163t-84 213.5t-24.5 217.5z" />
<glyph unicode="H" horiz-adv-x="935" d="M109 55v1135q0 28 18.5 46.5t46.5 18.5t47 -18.5t19 -46.5v-465h428v465q0 28 18.5 46.5t46.5 18.5t47 -18.5t19 -46.5v-1135q0 -25 -19.5 -45t-46.5 -20t-46 20t-19 45v539h-428v-539q0 -25 -19.5 -45t-46.5 -20t-46 20t-19 45z" />
<glyph unicode="I" horiz-adv-x="544" d="M92 72q0 28 19 46.5t47 18.5h41v971h-41q-28 0 -47 19t-19 47q0 25 19.5 45t46.5 20h213q25 0 45 -20t20 -45q0 -27 -20 -46.5t-45 -19.5h-41v-971h41q25 0 45 -19t20 -46q0 -25 -20 -45.5t-45 -20.5h-213q-27 0 -46.5 20.5t-19.5 45.5z" />
<glyph unicode="J" horiz-adv-x="1112" d="M102 330q0 25 19 45t45 20q27 0 46 -20t19 -45q0 -92 69.5 -155.5t162.5 -63.5q128 0 180.5 73.5t52.5 212.5v717h-88q-28 0 -46.5 19t-18.5 47t18.5 46.5t46.5 18.5h303q28 0 47 -18.5t19 -46.5t-19 -47t-47 -19h-84q1 -24 1 -60.5t-0.5 -92t-0.5 -89.5v-475 q0 -415 -364 -415q-147 0 -254 100.5t-107 247.5z" />
<glyph unicode="K" horiz-adv-x="1003" d="M111 57v1135q0 25 18.5 45t44.5 20q27 0 46.5 -20t19.5 -45v-457q387 402 479 496q19 26 53 26q27 0 46.5 -20t19.5 -45q0 -24 -21 -45l-373 -387l74 -115q301 -480 342 -562q12 -24 12 -30q0 -25 -20 -45t-43 -20q-35 0 -57 30l-402 644q-92 -97 -110 -115v-490 q0 -28 -19 -46.5t-47 -18.5q-26 0 -44.5 18.5t-18.5 46.5z" />
<glyph unicode="L" horiz-adv-x="882" d="M109 66v1124q0 28 18.5 46.5t46.5 18.5q27 0 46.5 -19t19.5 -46v-1059h452q27 0 46.5 -20t19.5 -45q0 -28 -19 -47t-47 -19h-518q-28 0 -46.5 19t-18.5 47z" />
<glyph unicode="M" horiz-adv-x="1216" d="M113 53v1131q0 28 18.5 46.5t46.5 18.5q21 0 41.5 -16t26.5 -37v2l344 -938q23 62 152.5 412.5t195.5 533.5v-2q16 45 63 45q26 0 46 -19t20 -46v-1131q0 -27 -20 -46t-46 -19q-28 0 -46.5 18.5t-18.5 46.5v762q-276 -752 -279 -760q-5 -24 -23 -40.5t-42 -16.5 q-20 0 -37.5 12.5t-24.5 34.5v-2q-55 150 -139 376t-147 400v-766q0 -28 -19 -46.5t-47 -18.5t-46.5 18.5t-18.5 46.5z" />
<glyph unicode="N" horiz-adv-x="937" d="M109 53v1137q0 25 19 44t46 19q39 0 57 -34l439 -881v854q0 28 18.5 46.5t46.5 18.5t47 -18.5t19 -46.5v-1135q0 -25 -19.5 -45t-46.5 -20q-35 0 -57 37q-105 213 -438 878v-854q0 -28 -19 -46.5t-47 -18.5t-46.5 18.5t-18.5 46.5z" />
<glyph unicode="O" horiz-adv-x="1110" d="M102 625q0 110 24 218t83.5 213t146.5 163q86 55 183 55t180 -55q128 -86 192 -253.5t64 -340.5q0 -109 -25 -217.5t-85 -213.5t-146 -163q-85 -56 -180 -56t-183 56q-86 58 -145.5 163t-84 213.5t-24.5 217.5zM231 625q0 -142 50 -280.5t149 -203.5q46 -35 109 -35 q60 0 106 35q100 65 149.5 203t49.5 281q0 134 -52 273.5t-147 209.5q-60 35 -106 35q-49 0 -109 -35q-95 -70 -147 -209.5t-52 -273.5z" />
<glyph unicode="P" horiz-adv-x="919" d="M109 53v1135q0 27 19 46t46 19h248q154 0 262.5 -108t108.5 -262q0 -152 -108.5 -260.5t-262.5 -108.5h-182v-461q0 -25 -19.5 -45t-46.5 -20t-46 20t-19 45zM240 645h182q100 0 170 69t70 169t-70 169.5t-170 69.5h-182v-477z" />
<glyph unicode="Q" horiz-adv-x="1110" d="M102 623q0 161 67.5 332.5t186.5 261.5q83 55 183 55q97 0 180 -55q120 -90 188 -261.5t68 -332.5q0 -113 -28 -229.5t-83 -207.5q86 -108 86 -141q0 -28 -18.5 -46.5t-46.5 -18.5q-41 0 -56 30l-53 70q-107 -107 -237 -107q-95 0 -183 56q-86 58 -145.5 163t-84 213.5 t-24.5 217.5zM231 623q0 -140 50.5 -278.5t148.5 -205.5q46 -35 109 -35q81 0 159 78q-94 126 -94 152q0 25 19.5 45t46.5 20q31 0 51 -26l53 -74q70 140 70 324q0 134 -52 273.5t-147 209.5q-54 35 -106 35q-55 0 -109 -35q-95 -70 -147 -209.5t-52 -273.5z" />
<glyph unicode="R" horiz-adv-x="911" d="M109 55v1125q0 28 18.5 46.5t46.5 18.5h248q154 0 262.5 -107.5t108.5 -260.5q0 -120 -59.5 -211t-166.5 -127l45 -88q199 -364 199 -394q0 -28 -19 -46.5t-47 -18.5q-15 0 -32 10.5t-25 24.5q-145 273 -254 481q-29 -2 -92 -2q-12 0 -34 1t-32 1h-36v-453 q0 -28 -19 -46.5t-47 -18.5t-46.5 18.5t-18.5 46.5zM240 641h182q99 0 170.5 69t71.5 167q0 99 -71.5 168t-170.5 69h-182v-473z" />
<glyph unicode="S" horiz-adv-x="983" d="M100 354q0 27 20.5 46.5t45.5 19.5q29 0 45 -17t18 -45q0 -4 1 -14.5t1 -13.5q0 -12 5 -29q12 -102 104 -158q57 -41 145 -41q105 0 171.5 60t66.5 162q0 53 -25 98t-68 77.5t-89.5 55t-100.5 39.5q-59 19 -100.5 36.5t-90 47t-78.5 63.5t-50.5 85.5t-20.5 113.5 q0 140 102.5 235t243.5 95q155 0 256 -100t101 -255q0 -27 -19.5 -46t-46.5 -19q-52 0 -63 55l-2 2q-2 6 -2 37q-1 4 -2 13t-2 15t-2 9q-22 74 -76.5 115.5t-132.5 42.5h-9h-6q-84 1 -146 -55q-64 -58 -65 -144q0 -38 16 -70.5t37.5 -53.5t59.5 -41t66 -30.5t73 -25.5 q373 -125 373 -395q0 -159 -104 -256t-263 -97q-171 0 -279 106.5t-108 276.5z" />
<glyph unicode="T" horiz-adv-x="950" d="M98 1174q0 28 19 46.5t47 18.5h594q27 0 46 -19t19 -46q0 -28 -19.5 -47t-45.5 -19h-232v-1047q0 -28 -18.5 -46.5t-46.5 -18.5t-47 18.5t-19 46.5v1047h-231q-28 0 -47 19t-19 47z" />
<glyph unicode="U" horiz-adv-x="1034" d="M111 344v850q0 26 19 46t46 20q26 0 46 -20.5t20 -45.5v-850q0 -113 71.5 -174t188.5 -61q118 0 189 60t71 175v850q0 25 20 45.5t45 20.5q27 0 46.5 -20.5t19.5 -45.5v-850q0 -174 -108 -270.5t-283 -96.5q-172 0 -281.5 98t-109.5 269z" />
<glyph unicode="V" horiz-adv-x="1126" d="M102 1188q0 26 19 45.5t47 19.5q24 0 41.5 -13.5t21.5 -37.5l316 -969q207 645 315 975q6 21 24.5 33t39.5 12q25 0 45 -19.5t20 -45.5q0 -5 -258 -805q-79 -233 -123 -377q-16 -45 -63 -45q-21 0 -39.5 12t-24.5 33q-32 96 -206.5 634.5t-174.5 547.5z" />
<glyph unicode="W" horiz-adv-x="1720" d="M111 1190q0 25 19 44t46 19q20 0 38 -14t26 -35l266 -940l264 940q15 49 64 49q22 0 39.5 -12.5t23.5 -36.5l266 -940q22 78 119.5 418.5t147.5 521.5v-4q3 22 21.5 37.5t41.5 15.5q26 0 44.5 -19t18.5 -44q0 -13 -147 -537t-182 -645l2 6q-5 -23 -23 -38t-43 -15 q-21 0 -38.5 13t-24.5 34l-266 942l-265 -942q-7 -21 -24.5 -34t-38.5 -13q-22 0 -40 13t-24 34q-24 75 -177.5 621.5t-153.5 560.5z" />
<glyph unicode="X" horiz-adv-x="991" d="M100 61q0 7 12.5 34t35.5 70.5t47 88t57.5 103t56 99t52.5 92t38 66.5l7 9q-87 150 -196.5 347.5t-109.5 213.5q0 28 19 46.5t47 18.5q42 0 59 -39l-4 7q48 -87 130 -230.5t130 -230.5l258 461q17 32 58 32q25 0 45 -19t20 -46q0 -8 -18 -44t-52 -98t-63.5 -114.5 t-73.5 -129.5t-61 -108l2 2q-8 -16 -21 -36.5t-20 -32.5q47 -79 63 -111h-2q26 -46 99.5 -172.5t110 -194.5t36.5 -84q0 -27 -20 -46t-45 -19q-35 0 -58 27l-258 466q-38 -68 -126.5 -223t-133.5 -237l2 2q-19 -35 -57 -35q-28 0 -47 18.5t-19 46.5z" />
<glyph unicode="Y" horiz-adv-x="978" d="M100 1188q0 25 19.5 45t46.5 20q38 0 57 -36q51 -98 131 -246.5t121 -225.5q35 67 122 227.5t128 239.5q7 19 23.5 30t35.5 11q27 0 46.5 -20t19.5 -45q0 -8 -16.5 -44t-49 -98.5t-60.5 -115t-71.5 -134t-60.5 -114.5l-51 -96v-529q0 -28 -19 -46.5t-47 -18.5t-46.5 18.5 t-18.5 46.5v531q-1 2 -10 16t-13 21v-2q-82 150 -184.5 348.5t-102.5 216.5z" />
<glyph unicode="Z" horiz-adv-x="993" d="M100 76q0 17 194.5 358t360.5 623l29 49h-498q-27 0 -46 20t-19 45q0 28 18.5 47t46.5 19h613q28 0 46.5 -19t18.5 -47q0 -17 -197.5 -362.5t-359.5 -618.5q-6 -10 -12.5 -22t-15.5 -27h499q27 0 46.5 -20t19.5 -45q0 -28 -19 -47t-47 -19h-612q-28 0 -47 19t-19 47z" />
<glyph unicode="[" horiz-adv-x="544" d="M68 -315v1466q0 28 18.5 47t44.5 19h262q28 0 46 -19t18 -47q0 -25 -18.5 -44.5t-45.5 -19.5h-196v-1337h196q27 0 45.5 -19.5t18.5 -45.5q0 -27 -18.5 -45.5t-45.5 -18.5h-262q-26 0 -44.5 19t-18.5 45z" />
<glyph unicode="\" horiz-adv-x="622" d="M68 41q0 10 149.5 511.5t185.5 616.5q5 22 23 37t41 15q25 0 44 -19t19 -45q0 -8 -335 -1134q-16 -46 -62 -46q-27 0 -46 18.5t-19 45.5z" />
<glyph unicode="]" horiz-adv-x="544" d="M68 -315q0 25 18.5 45t44.5 20h199v1337h-199q-26 0 -44.5 19.5t-18.5 44.5q0 28 18.5 47t44.5 19h262q28 0 46 -19t18 -47v-1466q0 -27 -18.5 -45.5t-45.5 -18.5h-262q-26 0 -44.5 19t-18.5 45z" />
<glyph unicode="^" horiz-adv-x="696" d="M70 713q0 8 19 51.5t47.5 105t56.5 119.5t52.5 109t28.5 59q18 35 62 35q43 0 59 -35q28 -53 116.5 -239.5t88.5 -204.5q0 -26 -18.5 -45t-44.5 -19q-37 0 -58 35l-143 301l-146 -301q-12 -35 -55 -35q-27 0 -46 18.5t-19 45.5z" />
<glyph unicode="_" horiz-adv-x="794" d="M-4 0h799v-102h-799v102z" />
<glyph unicode="`" horiz-adv-x="530" d="M102 1204q0 20 21.5 35.5t48.5 15.5q32 0 55 -20l179 -131q26 -13 26 -41q0 -19 -21 -35t-49 -16t-49 18l-190 139q-21 14 -21 35z" />
<glyph unicode="a" d="M100 344q0 94 43.5 178t123.5 136.5t177 52.5q128 0 228 -90v14q0 25 18.5 45t44.5 20q27 0 46.5 -20t19.5 -45v-578q0 -28 -19 -46.5t-47 -18.5q-26 0 -44.5 18.5t-18.5 46.5v9q-105 -91 -228 -91q-97 0 -177 52.5t-123.5 137t-43.5 179.5zM229 344q0 -96 61.5 -168 t153.5 -72q93 0 153 71.5t60 168.5q0 96 -60.5 167t-152.5 71q-91 0 -153 -71.5t-62 -166.5z" />
<glyph unicode="b" d="M111 51v1112q0 24 18.5 44t44.5 20q27 0 46.5 -20t19.5 -44v-547q46 40 107 65.5t120 25.5q97 0 177 -52.5t123.5 -136.5t43.5 -178q0 -149 -98.5 -259t-245.5 -110q-125 0 -227 92v-12q0 -25 -19.5 -44t-46.5 -19q-26 0 -44.5 19t-18.5 44zM252 340q0 -96 61.5 -168 t153.5 -72q91 0 153 72.5t62 167.5q0 94 -62 166t-153 72q-92 0 -153.5 -72t-61.5 -166z" />
<glyph unicode="c" horiz-adv-x="872" d="M100 344q0 146 98 256.5t244 110.5q142 0 248 -109q19 -15 33 -40t14 -46q0 -28 -18.5 -46.5t-46.5 -18.5q-35 0 -49 22q-30 50 -78 79.5t-103 29.5q-91 0 -152 -71.5t-61 -166.5q0 -97 61 -168.5t152 -71.5q52 0 100.5 27.5t71.5 71.5v-2q20 39 60 39q28 0 47.5 -19 t19.5 -47q0 -20 -12 -35q-47 -75 -122.5 -119.5t-164.5 -44.5q-97 0 -176.5 52.5t-122.5 137t-43 179.5z" />
<glyph unicode="d" d="M100 342q0 94 43.5 178t123.5 136.5t177 52.5q137 0 228 -91v547q0 24 18.5 44t44.5 20q27 0 46.5 -20t19.5 -44v-1110q0 -28 -19 -46.5t-47 -18.5q-26 0 -44.5 18.5t-18.5 46.5v8q-104 -90 -228 -90q-97 0 -177 52.5t-123.5 137t-43.5 179.5zM229 342q0 -96 61.5 -168 t153.5 -72q93 0 153 71.5t60 168.5q0 96 -60.5 167t-152.5 71q-91 0 -153 -71.5t-62 -166.5z" />
<glyph unicode="e" horiz-adv-x="923" d="M100 344q0 94 43.5 178t123.5 136.5t177 52.5t177 -52.5t123.5 -136.5t43.5 -178q0 -27 -19 -46t-46 -19h-483q19 -76 74.5 -125.5t129.5 -49.5q119 0 187 95q23 30 53 30q28 0 47 -18.5t19 -44.5q0 -11 -11 -33q-43 -77 -123 -117.5t-172 -40.5q-97 0 -177 52.5 t-123.5 137t-43.5 179.5zM240 408h409q-20 74 -75.5 124t-129.5 50q-72 0 -127.5 -50t-76.5 -124z" />
<glyph unicode="f" horiz-adv-x="882" d="M100 659q0 28 19 47t45 19h84v270q0 113 66.5 174.5t181.5 61.5q61 0 137.5 -36.5t105.5 -86.5v2q11 -22 11 -39q0 -25 -19 -44t-45 -19q-27 0 -57 30v-2q-66 66 -131 66q-51 0 -86 -23.5t-35 -70.5v-283h153q25 0 44.5 -19.5t19.5 -46.5q0 -26 -19.5 -44.5t-44.5 -18.5 h-153v-545q0 -25 -19.5 -44t-46.5 -19q-26 0 -44.5 19t-18.5 44v545h-84q-26 0 -45 18.5t-19 44.5z" />
<glyph unicode="g" horiz-adv-x="935" d="M100 346q0 94 43.5 178t123.5 136.5t177 52.5q121 0 218 -84v4q0 27 20 46t45 19q27 0 45.5 -19t18.5 -46v-758q0 -18 -15 -63q-33 -68 -97.5 -115.5t-137.5 -61.5v3q-37 -9 -84 -9q-62 0 -150.5 30.5t-126.5 74.5q-16 19 -16 43q0 26 19 44.5t44 18.5q21 0 49 -22 q89 -62 181 -62q31 0 61 6q127 25 144 113v186q-90 -84 -218 -84q-97 0 -177 52.5t-123.5 137t-43.5 179.5zM229 346q0 -95 62 -167.5t153 -72.5q92 0 152.5 72t60.5 168t-60.5 167t-152.5 71q-91 0 -153 -71.5t-62 -166.5z" />
<glyph unicode="h" horiz-adv-x="833" d="M109 53v1110q0 24 18.5 44t44.5 20q27 0 46.5 -20t19.5 -44v-524q84 70 184 70q129 0 206 -94.5t77 -223.5v-338q0 -27 -20 -46t-46 -19q-27 0 -45.5 19t-18.5 46v338q0 77 -40.5 133t-112.5 56q-99 0 -141.5 -62.5t-42.5 -185.5v-17v-262q0 -28 -19 -46.5t-47 -18.5 q-26 0 -44.5 18.5t-18.5 46.5z" />
<glyph unicode="i" horiz-adv-x="376" d="M106 842q0 34 23.5 58t58.5 24q31 0 55.5 -24.5t24.5 -57.5q0 -32 -24.5 -56t-55.5 -24q-35 0 -58.5 23.5t-23.5 56.5zM123 53v576q0 25 19 45t46 20q24 0 44 -20t20 -45v-576q0 -25 -20 -45t-44 -20q-27 0 -46 20t-19 45z" />
<glyph unicode="j" horiz-adv-x="389" d="M-55 -303q0 27 17 43.5t44 19.5q62 7 82 31v-2q39 44 39 131v709q0 25 19.5 45t46.5 20q23 0 43 -20t20 -45v-715q0 -120 -64.5 -201.5t-181.5 -81.5q-25 0 -45 19.5t-20 46.5zM111 842q0 34 23.5 58t58.5 24q32 0 55.5 -24t23.5 -58q0 -32 -23.5 -56t-55.5 -24 q-35 0 -58.5 23.5t-23.5 56.5z" />
<glyph unicode="k" horiz-adv-x="745" d="M106 51v1112q0 24 19.5 44t46.5 20t45.5 -20t18.5 -44v-714l294 239q21 17 41 17q25 0 45.5 -19.5t20.5 -44.5q0 -31 -23 -51q-201 -167 -213 -176l238 -328q6 -12 6 -35q0 -28 -17.5 -45.5t-45.5 -17.5q-38 0 -54 26l-2 4q-41 58 -112.5 157.5t-112.5 156.5 q-10 -8 -33 -26t-32 -25v-230q0 -25 -18.5 -44t-45.5 -19t-46.5 19t-19.5 44z" />
<glyph unicode="l" horiz-adv-x="339" d="M98 51v1112q0 24 19.5 44t46.5 20t45 -20t18 -44v-1112q0 -25 -18 -44t-45 -19t-46.5 19t-19.5 44z" />
<glyph unicode="m" horiz-adv-x="1335" d="M119 53v580q0 28 17.5 46.5t45.5 18.5q25 0 44 -16.5t20 -40.5q81 68 184 68q148 0 227 -125q42 58 104 91.5t134 33.5q129 0 206 -93.5t77 -222.5v-340q0 -27 -20 -46t-44 -19q-28 0 -46.5 18.5t-18.5 46.5v340q0 76 -41 131.5t-113 55.5q-47 0 -84 -25t-57.5 -65 t-30.5 -84.5t-10 -90.5v-262q0 -27 -19.5 -46t-44.5 -19q-28 0 -46.5 18.5t-18.5 46.5v340q0 76 -41 131.5t-113 55.5q-96 0 -142 -71q-43 -67 -42 -175v-15v-10v-256q0 -28 -18 -46.5t-46 -18.5t-45.5 18.5t-17.5 46.5z" />
<glyph unicode="n" horiz-adv-x="831" d="M109 55v580q0 28 18.5 46.5t44.5 18.5q24 0 42.5 -15.5t23.5 -39.5q81 68 182 68q129 0 205.5 -94.5t76.5 -223.5v-338q0 -27 -20 -46t-45 -19q-27 0 -45.5 19t-18.5 46v338q0 78 -40.5 133.5t-112.5 55.5q-93 0 -137.5 -75t-44.5 -190v-264q0 -28 -19 -46.5t-47 -18.5 q-26 0 -44.5 18.5t-18.5 46.5z" />
<glyph unicode="o" horiz-adv-x="923" d="M100 346q0 94 43.5 178t123.5 136.5t177 52.5t177 -52.5t123.5 -136.5t43.5 -178q0 -149 -98.5 -259t-245.5 -110t-245.5 110t-98.5 259zM229 346q0 -96 61.5 -168t153.5 -72q93 0 153 71.5t60 168.5q0 94 -60.5 165t-152.5 71q-91 0 -153 -71t-62 -165z" />
<glyph unicode="p" d="M111 -309v944q0 25 18.5 45t44.5 20q27 0 46.5 -20t19.5 -45v-14q46 40 107 65t120 25q97 0 177 -52.5t123.5 -136.5t43.5 -178q0 -95 -43.5 -179.5t-123.5 -137t-177 -52.5q-122 0 -227 91v-375q0 -28 -19 -46t-47 -18q-26 0 -44.5 18.5t-18.5 45.5zM252 344 q0 -97 61 -168.5t154 -71.5q92 0 153.5 72t61.5 168q0 95 -62 166.5t-153 71.5q-93 0 -154 -71.5t-61 -166.5z" />
<glyph unicode="q" d="M100 344q0 94 43.5 178t123.5 136.5t177 52.5q128 0 228 -90v14q0 25 18.5 45t44.5 20q27 0 46.5 -20t19.5 -45v-944q0 -28 -19 -46t-47 -18q-27 0 -45 18.5t-18 45.5v375q-105 -91 -228 -91q-97 0 -177 52.5t-123.5 137t-43.5 179.5zM229 344q0 -96 61.5 -168t153.5 -72 q93 0 153 71.5t60 168.5q0 96 -60.5 167t-152.5 71q-91 0 -153 -71.5t-62 -166.5z" />
<glyph unicode="r" horiz-adv-x="577" d="M104 55v578q0 27 19 46t45 19q28 0 46.5 -18.5t18.5 -46.5v-12q87 77 185 77q24 0 44.5 -18t20.5 -45q0 -59 -57 -66q-88 -20 -140.5 -93t-52.5 -167v-254q0 -28 -18.5 -46.5t-46.5 -18.5q-26 0 -45 19t-19 46z" />
<glyph unicode="s" horiz-adv-x="821" d="M98 207q0 20 2 32t8.5 25t21 19t38.5 6q30 0 44.5 -23t14.5 -47q0 -117 170 -117q63 0 114.5 27.5t51.5 79.5q0 22 -14 38t-44.5 27.5t-56.5 18t-71 14.5q-125 27 -166 46q-104 48 -105 155q0 45 18.5 80.5t46.5 57t66.5 35.5t75 19t74.5 5q43 0 83 -6.5t78.5 -23 t66.5 -41t45.5 -64t17.5 -89.5q0 -26 -21.5 -43.5t-46.5 -17.5q-29 0 -44 17.5t-17 43.5q-3 36 -23 56q-31 38 -139 38q-151 0 -151 -65q0 -26 42 -42.5t119 -31.5q39 -8 61 -13t57.5 -16t56.5 -21t47 -27.5t39.5 -38t23.5 -49t10 -62.5q0 -58 -27 -104.5t-71 -74.5 t-94.5 -42.5t-102.5 -14.5q-45 0 -86.5 7.5t-80.5 25t-68 43.5t-46.5 67t-17.5 91z" />
<glyph unicode="t" horiz-adv-x="620" d="M68 633q0 25 19 45t46 20h98v166q0 28 19 47t45 19q28 0 46.5 -19t18.5 -47v-166h105q26 0 44.5 -20t18.5 -45q0 -26 -18.5 -45t-44.5 -19h-105v-520q0 -25 -19 -44t-46 -19q-26 0 -45 19t-19 44v520h-98q-27 0 -46 18.5t-19 45.5z" />
<glyph unicode="u" horiz-adv-x="831" d="M98 291v338q0 25 19.5 45t46.5 20q26 0 44.5 -20t18.5 -45v-338q0 -78 41 -134.5t113 -56.5q182 0 182 314v215q0 25 19 45t45 20q25 0 45 -20t20 -45v-580q0 -27 -19.5 -45t-45.5 -18q-25 0 -43.5 17t-20.5 40q-82 -72 -182 -72q-130 0 -206.5 94.5t-76.5 225.5z" />
<glyph unicode="v" horiz-adv-x="823" d="M98 633q0 28 19 46.5t47 18.5q21 0 37 -12.5t22 -30.5l174 -444q27 72 85.5 221.5t86.5 222.5q6 18 23 30.5t37 12.5q28 0 46.5 -18.5t18.5 -46.5q0 -11 -96 -264t-137 -357v6q-14 -45 -64 -45q-46 0 -65 39q-234 597 -234 621z" />
<glyph unicode="w" horiz-adv-x="1257" d="M106 637q0 28 19 46.5t47 18.5q21 0 37 -12t22 -33v2q25 -70 73.5 -202.5t82.5 -231.5q25 73 78 217.5t78 216.5v-4q13 47 63 47q46 0 62 -43l155 -432q19 54 73.5 203.5t82.5 228.5v-2q16 45 61 45q26 0 45 -19t19 -46q0 -8 -96 -281t-119 -336v5q-12 -45 -66 -45 q-17 0 -27 2t-20 11t-16 27l-154 429l-153 -429v5q-12 -45 -66 -45t-63 45v-5q-17 41 -117.5 325t-100.5 292z" />
<glyph unicode="x" horiz-adv-x="749" d="M92 51q0 13 8 29l185 266q-19 27 -85.5 120t-97.5 140q-10 20 -10 27q0 27 21 47t49 20q31 0 53 -28l145 -215l148 215l-2 -4q6 14 21.5 23t31.5 9q28 0 47 -18.5t19 -46.5q0 -1 -7 -29l-182 -260l185 -266q4 -8 4 -27q0 -28 -19 -46.5t-47 -18.5q-16 0 -31.5 9t-21.5 23 l2 -4l-148 217l-145 -219q-23 -26 -53 -26q-28 0 -49 18t-21 45z" />
<glyph unicode="y" horiz-adv-x="835" d="M98 635q0 28 19 46.5t47 18.5q18 0 34.5 -12.5t24.5 -28.5q144 -348 183 -442q10 26 76 188.5t98 251.5v-2q7 21 25 33t36 12q28 0 47 -18.5t19 -46.5q0 -11 -173 -458t-202 -517v2q-6 -17 -23 -29t-37 -12q-24 0 -44.5 20.5t-20.5 43.5q0 18 14 56.5t42 107t40 98.5 q38 94 39 96q-39 91 -141.5 338.5t-102.5 253.5z" />
<glyph unicode="z" horiz-adv-x="815" d="M98 70q0 23 17 43l366 438h-299q-26 0 -45.5 18t-19.5 45q0 25 20 44.5t45 19.5h441q23 0 43 -20t20 -44q0 -25 -16 -41l-369 -438h299q28 0 47 -18.5t19 -46.5q0 -24 -19.5 -44t-46.5 -20h-436q-27 0 -46.5 20t-19.5 44z" />
<glyph unicode="{" horiz-adv-x="757" d="M106 426q0 25 18 46.5t46 21.5h16q31 0 36 7.5t5 51.5v475q0 84 58 143.5t141 59.5h133q24 0 44 -19.5t20 -46.5q0 -26 -20 -44.5t-44 -18.5h-133q-30 0 -50 -22.5t-20 -51.5v-481q0 -84 -18 -119q18 -33 18 -121v-481q0 -30 20 -52t50 -22h133q24 0 44 -19t20 -46 q0 -24 -20 -44t-44 -20h-133q-83 0 -141 59.5t-58 143.5v498q2 23 -2 30.5t-24 7.5h-8q-87 -8 -87 64z" />
<glyph unicode="|" horiz-adv-x="339" d="M98 -315v1484q0 28 19 47t47 19q27 0 45 -19t18 -47v-1484q0 -27 -18 -45.5t-45 -18.5q-28 0 -47 19t-19 45z" />
<glyph unicode="}" horiz-adv-x="757" d="M106 -313q0 28 19 46.5t47 18.5h133q29 0 48.5 22t19.5 52v481q0 88 18 121q-18 35 -18 119v481q0 29 -20 51.5t-48 22.5h-133q-28 0 -47 18.5t-19 44.5q0 28 19 47t47 19h133q82 0 139.5 -60t57.5 -143v-475q0 -44 5 -51.5t34 -7.5h20q26 0 44 -21.5t18 -46.5 q0 -73 -88 -64h-7q-20 0 -24 -7.5t-2 -30.5v-498q0 -83 -57.5 -143t-139.5 -60h-133q-27 0 -46.5 19.5t-19.5 44.5z" />
<glyph unicode="~" horiz-adv-x="978" d="M111 522q0 97 51.5 166.5t148.5 69.5q48 0 89 -17.5t63.5 -37t54.5 -54.5h-2q26 -27 40 -40t38.5 -25.5t50.5 -12.5q57 0 57 107q0 72 64 72q38 0 51.5 -19t13.5 -53q0 -98 -45 -167t-141 -69q-49 0 -92.5 19t-65 38t-57.5 56q-24 26 -37.5 38t-36 24t-45.5 12 q-37 0 -54 -31.5t-17 -75.5q0 -25 -19 -45t-45 -20q-27 0 -46 20t-19 45z" />
<glyph unicode="&#xa1;" horiz-adv-x="376" d="M100 909q0 32 24 56t58 24q31 0 55.5 -24.5t24.5 -55.5q0 -34 -24 -58t-56 -24q-35 0 -58.5 23.5t-23.5 58.5zM117 -190v884q0 26 18.5 45t46.5 19q24 0 44 -19t20 -45v-884q0 -26 -20 -45t-44 -19q-28 0 -46.5 19t-18.5 45z" />
<glyph unicode="&#xa2;" horiz-adv-x="884" d="M109 618q0 145 99.5 256t244.5 111h22q9 31 28.5 96l28.5 95l-2 -5q4 22 23 38t39 16q27 0 46 -20t19 -44q0 -6 -10.5 -44.5t-25.5 -93t-21 -75.5q86 -47 137 -129q21 -49 29 -96q8 -49 -32 -68q-35 -17 -61 3q-13 10 -16 26q-4 23 -12 41t-14 25l-6 6q-21 38 -60 65 q-22 -74 -61.5 -216.5t-63.5 -223.5h13q140 0 215 149q0 4 15 22t38 29t49 -12q18 -24 11.5 -56.5t-23.5 -61.5l-17 -29q-51 -78 -126.5 -124t-161.5 -46q-39 0 -47 2l-60 -207l2 4q-4 -23 -22.5 -37t-40.5 -14q-26 0 -45 18.5t-19 44.5q0 10 64 234q-82 50 -129 137 t-47 184zM238 618q0 -55 22 -106t62 -84q88 313 118 428q-87 -4 -144.5 -75t-57.5 -163z" />
<glyph unicode="&#xa3;" horiz-adv-x="1126" d="M115 629q0 61 71 65q-20 70 -20 150q0 164 115.5 280.5t279.5 116.5q119 0 219 -70t150 -186q0 -1 1 -6t1 -6q0 -27 -20 -45.5t-46 -18.5q-40 0 -59 37l-6 15l-25 43l2 -3q-37 51 -95 81t-122 30q-110 0 -188 -79t-78 -189q0 -67 27 -150h223q26 0 44.5 -18.5t18.5 -46.5 q0 -24 -18.5 -44t-44.5 -20h-172q59 -154 59 -270q0 -76 -18 -129q29 2 78 2q103 0 239 -47q71 -23 98 -23q11 0 37 13q35 10 41 10q24 0 44 -20t20 -44q0 -30 -29.5 -51.5t-60 -29t-52.5 -7.5q-50 0 -129 27h7l-9 2q-118 41 -206 41q-125 0 -234 -47l-14 -4l22 6 q-20 -10 -43 -10q-38 0 -57 47l-4 14q0 24 18 42.5t41 27.5q41 19 61.5 71t20.5 109q0 109 -67 268q-121 -5 -121 66z" />
<glyph unicode="&#xa5;" horiz-adv-x="997" d="M111 1163q0 27 18.5 45.5t46.5 18.5q40 0 57 -35l246 -463q208 386 248 463q15 35 57 35q28 0 47 -19t19 -45q0 -17 -101.5 -209.5t-177.5 -326.5h174q26 0 45 -19t19 -47q0 -26 -18.5 -43.5t-45.5 -17.5h-202v-72h202q26 0 45 -19t19 -44q0 -28 -19 -47t-45 -19h-202 v-246q0 -26 -18.5 -45.5t-45.5 -19.5q-25 0 -44 20t-19 45v246h-201q-26 0 -44.5 19t-18.5 47q0 25 18.5 44t44.5 19h201v72h-201q-26 0 -44.5 17.5t-18.5 43.5q0 28 18.5 47t44.5 19h172q-82 148 -179 333.5t-97 202.5z" />
<glyph unicode="&#xa6;" horiz-adv-x="339" d="M98 238q0 26 19 44.5t47 18.5q27 0 45 -18t18 -45v-557q0 -28 -18 -47t-45 -19q-28 0 -47 19t-19 47v557zM98 608v559q0 25 19.5 45.5t46.5 20.5t45 -20t18 -46v-559q0 -25 -18 -44t-45 -19t-46.5 19t-19.5 44z" />
<glyph unicode="&#xa7;" horiz-adv-x="999" d="M111 2q0 27 19.5 45.5t45.5 18.5q29 0 45.5 -16.5t18.5 -41.5q2 -12 2 -43q0 -3 1 -9.5t1 -10.5q22 -89 102 -152q62 -39 148 -39q101 0 165 58.5t64 158.5q0 173 -277 267q-58 20 -98 36.5t-88.5 46t-78 62.5t-50 83.5t-20.5 111.5q0 92 51 176q-51 76 -51 168 q0 140 100 231.5t240 91.5q154 0 252 -97t98 -251q0 -27 -18.5 -45t-45.5 -18q-56 0 -63 61l-2 33q-6 18 -6 37q-23 70 -76 109t-127 42h-12q-85 2 -148 -54t-63 -140q0 -38 16 -69.5t36.5 -52t58.5 -40.5t63.5 -30t70.5 -25q367 -120 367 -388q0 -98 -45 -180 q45 -74 45 -166q0 -157 -100.5 -251.5t-257.5 -94.5q-169 0 -276 105t-107 272zM240 578q0 -44 21.5 -80.5t62 -62.5t76 -42t85.5 -33q134 -44 230 -116q8 25 8 73q0 50 -25 94.5t-67.5 76.5t-87.5 54.5t-97 39.5q-129 42 -184 80q-22 -33 -22 -84z" />
<glyph unicode="&#xa8;" horiz-adv-x="567" d="M102 1038q0 33 24.5 57.5t57.5 24.5q32 0 57 -25t25 -57q0 -33 -24.5 -56.5t-57.5 -23.5q-34 0 -58 23t-24 57zM281 1038q0 32 24 57t55 25q35 0 58.5 -24.5t23.5 -57.5q0 -34 -23.5 -57t-58.5 -23q-31 0 -55 23.5t-24 56.5z" />
<glyph unicode="&#xa9;" horiz-adv-x="1585" d="M123 602q0 174 86 321.5t233.5 233.5t321.5 86q130 0 248.5 -51t204.5 -136.5t137 -204.5t51 -249t-51 -249t-137 -204.5t-204.5 -136.5t-248.5 -51q-174 0 -321.5 86t-233.5 233.5t-86 321.5zM252 602q0 -212 150 -362t362 -150t362 150t150 362q0 138 -68.5 256 t-186.5 187t-257 69t-257 -69t-186.5 -187t-68.5 -256zM434 592q0 147 99.5 256.5t242.5 109.5q63 0 129.5 -31t116.5 -79q51 -66 51 -88q0 -25 -18.5 -43.5t-44.5 -18.5q-41 0 -76 54l-8 8q-59 69 -150 69q-89 0 -151 -71.5t-62 -165.5q0 -93 62 -165.5t151 -72.5t150 68 q6 8 8 12v-2q34 62 80 62q26 0 43.5 -18.5t17.5 -45.5q0 -32 -53 -92q-48 -52 -112.5 -82.5t-133.5 -30.5q-142 0 -242 111t-100 256z" />
<glyph unicode="&#xaa;" horiz-adv-x="763" d="M106 956q0 109 74.5 192t184.5 83q78 0 139 -43q15 33 59 33q25 0 45.5 -19t20.5 -45v-401q0 -25 -20.5 -45.5t-45.5 -20.5q-45 0 -59 35q-64 -45 -139 -45q-110 0 -184.5 83t-74.5 193zM236 956q0 -58 37 -102.5t92 -44.5q56 0 93.5 44.5t37.5 102.5q0 59 -37 103.5 t-94 44.5q-55 0 -92 -44.5t-37 -103.5z" />
<glyph unicode="&#xab;" horiz-adv-x="681" d="M102 336v8q0 17 4 27l136 286l-2 -2q19 43 61 43q25 0 44.5 -20t19.5 -45q0 -8 -6.5 -26.5t-20.5 -49.5t-24 -52.5t-30 -63.5t-26 -54l-22 -47l24 -53v2q9 -19 26.5 -55.5t29 -61t24 -53t19 -46.5t6.5 -26q0 -26 -19.5 -44.5t-44.5 -18.5q-45 0 -61 39l2 -3l-136 289v-2 q-4 12 -4 29zM293 336v8q0 17 6 27l135 286l-2 -2q6 18 23 30.5t37 12.5q25 0 45 -20t20 -45q0 -30 -108 -246l-23 -47l25 -53v2q9 -20 26 -55.5t29 -61t25 -53t19.5 -46t6.5 -26.5q0 -26 -20 -44.5t-45 -18.5q-21 0 -37.5 10.5t-22.5 28.5l2 -3l-135 289v-2q-6 12 -6 29z " />
<glyph unicode="&#xac;" horiz-adv-x="843" d="M109 709q0 33 26 53l164 112l-164 109q-26 19 -26 53q0 28 18.5 47t44.5 19q4 0 10.5 -2t15 -6.5l17 -9t20.5 -12t21 -13.5t22.5 -15.5t22 -15.5t22.5 -16l21 -15v148q0 27 19 46t45 19q28 0 46.5 -18.5t18.5 -46.5v-156q132 101 166 101q28 0 47 -18t19 -46 q0 -32 -29 -55l-146 -99q12 -8 146 -98q29 -23 29 -53q0 -28 -19 -47t-47 -19q-27 0 -166 101v-154q0 -28 -18.5 -46.5t-46.5 -18.5q-26 0 -45 18.5t-19 46.5v146q-146 -103 -172 -103t-44.5 19t-18.5 45z" />
<glyph unicode="&#xad;" horiz-adv-x="743" d="M106 653q0 26 19 45t47 19h375q26 0 43.5 -18.5t17.5 -45.5q0 -26 -17.5 -45.5t-43.5 -19.5h-375q-27 0 -46.5 20t-19.5 45z" />
<glyph unicode="&#xae;" horiz-adv-x="1585" d="M123 604q0 174 86 321.5t233.5 233.5t321.5 86q130 0 248.5 -51t204.5 -136.5t137 -204.5t51 -249t-51 -248.5t-137 -204.5t-204.5 -137t-248.5 -51t-249 51t-204.5 137t-136.5 204.5t-51 248.5zM252 604q0 -212 150 -362t362 -150t362 150t150 362t-150 362t-362 150 t-362 -150t-150 -362zM537 313v580q0 26 17.5 45.5t43.5 19.5h174q65 0 127 -24t107 -76.5t45 -120.5q0 -60 -41 -110.5t-99 -79.5l4 -6q148 -199 148 -228q0 -26 -19 -44.5t-47 -18.5q-35 0 -51 26v-2l-172 242q-15 -1 -32.5 -1t-39.5 0.5t-34 0.5h-4v-203q0 -28 -19 -46.5 t-47 -18.5q-26 0 -43.5 18.5t-17.5 46.5zM664 645h108q53 0 101.5 24.5t48.5 67.5t-48.5 67.5t-101.5 24.5h-108v-184z" />
<glyph unicode="&#xaf;" horiz-adv-x="843" d="M109 709q0 33 26 53l164 112l-164 109q-26 19 -26 53q0 28 18.5 47t44.5 19q4 0 10.5 -2t15 -6.5l17 -9t20.5 -12t21 -13.5t22.5 -15.5t22 -15.5t22.5 -16l21 -15v148q0 27 19 46t45 19q28 0 46.5 -18.5t18.5 -46.5v-156q132 101 166 101q28 0 47 -18t19 -46 q0 -32 -29 -55l-146 -99q12 -8 146 -98q29 -23 29 -53q0 -28 -19 -47t-47 -19q-27 0 -166 101v-154q0 -28 -18.5 -46.5t-46.5 -18.5q-26 0 -45 18.5t-19 46.5v146q-146 -103 -172 -103t-44.5 19t-18.5 45z" />
<glyph unicode="&#xb0;" horiz-adv-x="661" d="M104 1020q0 89 63 152t152 63q88 0 150.5 -63t62.5 -152q0 -88 -62.5 -150.5t-150.5 -62.5q-89 0 -152 62.5t-63 150.5zM221 1020q0 -40 28.5 -69t69.5 -29q40 0 68.5 29t28.5 69t-28.5 69t-68.5 29q-41 0 -69.5 -29t-28.5 -69z" />
<glyph unicode="&#xb1;" horiz-adv-x="843" d="M109 709q0 33 26 53l164 112l-164 109q-26 19 -26 53q0 28 18.5 47t44.5 19q4 0 10.5 -2t15 -6.5l17 -9t20.5 -12t21 -13.5t22.5 -15.5t22 -15.5t22.5 -16l21 -15v148q0 27 19 46t45 19q28 0 46.5 -18.5t18.5 -46.5v-156q132 101 166 101q28 0 47 -18t19 -46 q0 -32 -29 -55l-146 -99q12 -8 146 -98q29 -23 29 -53q0 -28 -19 -47t-47 -19q-27 0 -166 101v-154q0 -28 -18.5 -46.5t-46.5 -18.5q-26 0 -45 18.5t-19 46.5v146q-146 -103 -172 -103t-44.5 19t-18.5 45z" />
<glyph unicode="&#xb2;" horiz-adv-x="661" d="M104 1008q0 88 62.5 151.5t150.5 63.5q90 0 152.5 -63.5t62.5 -153.5q0 -41 -11 -76.5t-25 -58.5t-42 -47t-46 -36.5t-52 -33.5q-80 -52 -102 -82h207q25 0 45 -20.5t20 -45.5q0 -26 -20 -44.5t-45 -18.5h-289l-25 2l-20 16l-18 19l-3 26q0 51 14 91t43.5 70.5t54 48 t65.5 42.5h-2q31 19 47 30.5t36.5 30.5t29.5 41t9 48q0 36 -25 61t-61 25q-35 0 -59.5 -25.5t-24.5 -60.5q0 -25 -18.5 -45.5t-44.5 -20.5q-27 0 -46.5 20.5t-19.5 45.5z" />
<glyph unicode="&#xb3;" horiz-adv-x="684" d="M106 741q0 28 18 47t46 19t47 -19t19 -47q0 -37 28 -62.5t66 -25.5q39 0 66.5 25t27.5 63t-27.5 64t-66.5 26q-28 0 -47 19t-19 47q0 25 19.5 44.5t46.5 19.5q33 0 57.5 19t24.5 50q0 28 -25 47t-57 19t-57 -19t-25 -47t-19 -46.5t-45 -18.5q-25 0 -45 19t-20 46 q0 84 63.5 139.5t147.5 55.5t147.5 -55.5t63.5 -139.5q0 -77 -54 -131q66 -73 66 -158q0 -90 -66 -153.5t-157 -63.5t-157.5 63.5t-66.5 153.5z" />
<glyph unicode="&#xb4;" horiz-adv-x="530" d="M102 1063q0 27 27 41l178 131q23 20 55 20q27 0 48.5 -15.5t21.5 -35.5q0 -22 -20 -35l-191 -139q-21 -18 -49 -18t-49 16t-21 35z" />
<glyph unicode="&#xb6;" horiz-adv-x="1218" d="M115 870q0 141 100.5 241.5t241.5 100.5h536q28 0 47 -18.5t19 -46.5q0 -66 -94 -66v-1409q0 -25 -19 -45t-45 -20q-27 0 -46 20t-19 45v1411h-213v-1411q0 -25 -19 -45t-45 -20q-27 0 -45 19.5t-18 45.5v856h-39q-141 0 -241.5 100.5t-100.5 241.5zM244 870 q0 -88 62.5 -150.5t150.5 -62.5h39v426h-39q-88 0 -150.5 -62.5t-62.5 -150.5z" />
<glyph unicode="&#xb7;" horiz-adv-x="376" d="M100 559q0 33 23.5 56.5t58.5 23.5q31 0 55.5 -24t24.5 -56q0 -33 -24.5 -57.5t-55.5 -24.5q-35 0 -58.5 24t-23.5 58z" />
<glyph unicode="&#xb8;" horiz-adv-x="501" d="M121 -188q0 20 5.5 55.5t14 79t11.5 59.5q6 29 36 29q17 0 28 -11t11 -26q0 -20 -8.5 -62t-9.5 -55q60 29 100 29q44 0 70.5 -31t26.5 -76q0 -78 -78 -157.5t-154 -79.5q-14 0 -24.5 12t-10.5 29q0 13 10.5 22t24.5 11q51 10 103.5 61t52.5 102q0 31 -23 31 q-30 0 -85 -31.5t-64 -31.5q-17 0 -27 11.5t-10 29.5z" />
<glyph unicode="&#xb9;" horiz-adv-x="477" d="M102 1096q0 34 27 53l18 14l-2 -2q5 4 21 15.5t25.5 17.5t23.5 12t25 6q28 0 46.5 -18.5t18.5 -46.5v-481q53 -7 53 -64q0 -26 -20 -44.5t-45 -18.5h-105q-26 0 -44.5 18.5t-18.5 44.5q0 57 51 64v366h-10q-26 0 -45 19.5t-19 44.5z" />
<glyph unicode="&#xba;" horiz-adv-x="759" d="M106 954q0 109 75 193t184 84q111 0 185.5 -84t74.5 -193q0 -110 -74.5 -193t-185.5 -83q-110 0 -184.5 83t-74.5 193zM236 954q0 -58 37 -102.5t92 -44.5q56 0 93.5 44.5t37.5 102.5q0 59 -37 103.5t-94 44.5q-55 0 -92 -44.5t-37 -103.5z" />
<glyph unicode="&#xbb;" horiz-adv-x="681" d="M100 47q0 23 107 242v-2q4 13 12 27.5t12 23.5l-22 51v-2q-109 218 -109 246q0 25 19.5 45t44.5 20q42 0 61 -43l-2 2l135 -286q4 -10 4 -27v-8q0 -17 -4 -29v2l-135 -289l2 3q-16 -39 -61 -39q-25 0 -44.5 18.5t-19.5 44.5zM291 47q0 8 6.5 26.5t19.5 46t25 53t29 61 t26 55.5v-2q4 10 12.5 24t12.5 27l-23 51v-2q-8 16 -26.5 54.5t-30 62.5t-25 53.5t-20 48.5t-6.5 27q0 25 20 45t45 20q21 0 37.5 -12.5t22.5 -30.5l-2 2l135 -286q6 -10 6 -27v-8q0 -17 -6 -29v2l-135 -289l2 3q-6 -18 -22.5 -28.5t-37.5 -10.5q-25 0 -45 18.5t-20 44.5z " />
<glyph unicode="&#xbc;" horiz-adv-x="1216" d="M115 1186q0 28 28 53q1 1 5 2t7 2.5t5 3.5q3 2 14 10.5t16 12t15 10t17 10t16 6t16 2.5q27 0 45 -18t18 -45v-481q54 -7 54 -64q0 -27 -19 -45t-45 -18h-104q-28 0 -47 18t-19 45q0 56 51 64v366h-8q-28 0 -46.5 19t-18.5 47zM188 41q0 16 93 213.5t235.5 493 t173.5 360.5l35 72q6 17 22 27t35 10q26 0 45 -19t19 -47q0 -22 -518 -1104q-17 -40 -17 -37q-17 -33 -57 -33q-25 0 -45.5 19t-20.5 45zM621 352q0 38 34 223l13 58q3 23 20.5 38t42.5 15t45.5 -20t20.5 -43q0 -37 -33 -197q-1 -5 -1 -2q0 1 0 -1q0 -1 -1 -5h96v205 q0 24 19.5 43.5t46.5 19.5q26 0 44.5 -19.5t18.5 -43.5v-205q70 0 70 -66q0 -61 -70 -65v-224q0 -28 -18.5 -46.5t-44.5 -18.5q-28 0 -47 18.5t-19 46.5v226h-174q-26 0 -44.5 18.5t-18.5 44.5z" />
<glyph unicode="&#xbd;" horiz-adv-x="1247" d="M117 1186q0 31 28 53q1 1 7 3.5t8 4.5q3 2 14 10.5t16 12t15 10t17 10t16 6t16 2.5q28 0 46.5 -18.5t18.5 -44.5v-481q54 -7 54 -64q0 -27 -20 -45t-46 -18h-104q-27 0 -45.5 18t-18.5 45q0 57 51 64v366h-10q-26 0 -44.5 19t-18.5 47zM190 41q0 16 91 210.5t237.5 498.5 t171.5 358l35 72q6 17 23 27t36 10q25 0 43.5 -19.5t18.5 -46.5q0 -22 -518 -1104q-7 -24 -17 -37q-17 -33 -57 -33q-25 0 -44.5 19t-19.5 45zM657 463q0 88 63 151.5t152 63.5t151 -63.5t62 -153.5q0 -49 -14.5 -89.5t-44 -71t-53 -48t-62.5 -41.5q-72 -46 -100 -84h205 q26 0 44.5 -19t18.5 -45q0 -28 -18.5 -46.5t-44.5 -18.5h-295q-1 0 -10.5 1t-10.5 1l-18 16l-18 21l-5 26q0 50 14 90t44 70.5t53.5 48t65.5 43.5q28 17 45 29.5t36.5 31t29 40t9.5 47.5q0 36 -24.5 62t-59.5 26t-60.5 -26.5t-25.5 -61.5q0 -26 -18 -46t-45 -20 q-25 0 -45.5 20.5t-20.5 45.5z" />
<glyph unicode="&#xbe;" horiz-adv-x="1400" d="M119 741q0 28 18.5 47t46.5 19q26 0 45 -19t19 -47q0 -37 28 -62.5t66 -25.5q39 0 67.5 25t28.5 63q0 39 -28.5 64.5t-67.5 25.5q-26 0 -44.5 19t-18.5 47q0 27 18.5 45.5t44.5 18.5q34 0 58 19t24 50q0 29 -24.5 48.5t-57.5 19.5q-31 0 -56.5 -20t-25.5 -48t-17.5 -46.5 t-45.5 -18.5q-25 0 -44.5 19t-19.5 46q0 84 63.5 140.5t145.5 56.5q84 0 147.5 -56.5t63.5 -140.5q0 -81 -53 -131q67 -70 67 -158q0 -90 -66 -153.5t-159 -63.5q-91 0 -157 63.5t-66 153.5zM365 41q0 15 195 427.5t323 676.5l18 39q14 33 55 33q25 0 45.5 -19.5t20.5 -46.5 q0 -10 -38.5 -95.5t-104.5 -224.5t-127 -265.5t-134.5 -278t-97.5 -201.5l-33 -74q-18 -35 -59 -35q-26 0 -44.5 19t-18.5 45zM795 352q0 38 34 223l13 58q3 23 20.5 38t42.5 15q27 0 46.5 -19.5t19.5 -43.5q0 -37 -33 -197q-1 -5 -1 -2q0 1 0 -1q0 -1 -1 -5h96v205 q0 23 20.5 43t45.5 20q26 0 44.5 -19.5t18.5 -43.5v-205q70 0 70 -66q0 -61 -70 -65v-224q0 -28 -18.5 -46.5t-44.5 -18.5t-46 19t-20 46v226h-174q-25 0 -44 18.5t-19 44.5z" />
<glyph unicode="&#xbf;" horiz-adv-x="987" d="M111 -10q0 62 15.5 111.5t51 91.5t64 66.5t84.5 66.5l24 20q64 49 89.5 103t25.5 141q0 19 1 30t6.5 26t19.5 22.5t36 7.5q41 0 52.5 -20.5t11.5 -57.5v-14q0 -114 -37.5 -192t-126.5 -148q-30 -24 -33 -27q-32 -24 -48.5 -37t-40.5 -36.5t-36 -43.5t-21 -49t-9 -61 q0 -95 65.5 -153t163.5 -58q105 0 173.5 59.5t68.5 159.5q0 29 14.5 49.5t46.5 20.5q28 0 48 -17.5t20 -44.5q0 -160 -104 -258t-267 -98q-152 0 -255 94t-103 246zM451 823q0 34 23.5 58t57.5 24q31 0 56.5 -24.5t25.5 -57.5q0 -32 -25.5 -56t-56.5 -24q-34 0 -57.5 23.5 t-23.5 56.5z" />
<glyph unicode="&#xc0;" horiz-adv-x="1126" d="M102 51q0 12 169 528t212 644q6 22 24 33.5t40 11.5q48 0 63 -45q3 -13 16 -53.5t39 -117.5t46 -141q280 -833 280 -860q0 -25 -20 -45t-45 -20q-21 0 -39.5 13t-24.5 34l-135 416h-360q-24 -75 -70.5 -212.5t-67.5 -203.5q-7 -22 -24 -34.5t-37 -12.5q-27 0 -46.5 20 t-19.5 45zM354 1475q0 20 21.5 35.5t48.5 15.5q30 0 55 -21l178 -131q27 -14 27 -41q0 -19 -21 -35t-49 -16t-49 18l-190 140q-21 14 -21 35zM410 580h272l-135 419z" />
<glyph unicode="&#xc1;" horiz-adv-x="1126" d="M102 51q0 12 169 528t212 644q6 22 24 33.5t40 11.5q48 0 63 -45q3 -13 16 -53.5t39 -117.5t46 -141q280 -833 280 -860q0 -25 -20 -45t-45 -20q-21 0 -39.5 13t-24.5 34l-135 416h-360q-24 -75 -70.5 -212.5t-67.5 -203.5q-7 -22 -24 -34.5t-37 -12.5q-27 0 -46.5 20 t-19.5 45zM379 1339q0 27 27 41l178 131q24 21 55 21q27 0 48.5 -15.5t21.5 -35.5q0 -21 -21 -35l-190 -139q-22 -19 -49 -19q-28 0 -49 16t-21 35zM410 580h272l-135 419z" />
<glyph unicode="&#xc2;" horiz-adv-x="1126" d="M102 51q0 12 169 528t212 644q6 22 24 33.5t40 11.5q48 0 63 -45q3 -13 16 -53.5t39 -117.5t46 -141q280 -833 280 -860q0 -25 -20 -45t-45 -20q-21 0 -39.5 13t-24.5 34l-135 416h-360q-24 -75 -70.5 -212.5t-67.5 -203.5q-7 -22 -24 -34.5t-37 -12.5q-27 0 -46.5 20 t-19.5 45zM373 1337q0 7 6 17.5t19.5 27t22 26.5t28 31t22.5 25l23 23q20 20 51 20q33 0 53 -20l25 -27q96 -101 96 -123q0 -19 -19.5 -33t-44.5 -14q-34 0 -57 23l-53 63l-58 -63q-7 -10 -22.5 -16.5t-28.5 -6.5q-27 0 -45 14t-18 33zM410 580h272l-135 419z" />
<glyph unicode="&#xc3;" horiz-adv-x="1126" d="M102 51q0 12 169 528t212 644q6 22 24 33.5t40 11.5q48 0 63 -45q3 -13 16 -53.5t39 -117.5t46 -141q280 -833 280 -860q0 -25 -20 -45t-45 -20q-21 0 -39.5 13t-24.5 34l-135 416h-360q-24 -75 -70.5 -212.5t-67.5 -203.5q-7 -22 -24 -34.5t-37 -12.5q-27 0 -46.5 20 t-19.5 45zM346 1343q0 25 6.5 50t20.5 49.5t41 39.5t63 15q24 0 43 -5.5t35 -19.5t23.5 -22.5t23.5 -28.5q26 -30 29 -30q-1 1 -0.5 19.5t2.5 31.5v4q0 23 15.5 37t43.5 14q24 0 43 -14.5t19 -34.5q0 -26 -5 -50t-17.5 -50.5t-39.5 -42t-65 -15.5q-25 0 -44.5 6t-36.5 21 t-23.5 23t-22.5 28q-22 29 -25 29q-2 0 -3.5 -10.5t-2.5 -26t-2 -19.5q-7 -45 -61 -45q-24 0 -42 14.5t-18 32.5zM410 580h272l-135 419z" />
<glyph unicode="&#xc4;" horiz-adv-x="1126" d="M102 51q0 12 169 528t212 644q6 22 24 33.5t40 11.5q48 0 63 -45q3 -13 16 -53.5t39 -117.5t46 -141q280 -833 280 -860q0 -25 -20 -45t-45 -20q-21 0 -39.5 13t-24.5 34l-135 416h-360q-24 -75 -70.5 -212.5t-67.5 -203.5q-7 -22 -24 -34.5t-37 -12.5q-27 0 -46.5 20 t-19.5 45zM381 1343q0 31 24.5 56.5t57.5 25.5q32 0 58 -25.5t26 -56.5q0 -34 -25.5 -58.5t-58.5 -24.5q-34 0 -58 24t-24 59zM410 580h272l-135 419zM559 1343q0 31 26 56.5t58 25.5q33 0 57.5 -25.5t24.5 -56.5q0 -35 -24 -59t-58 -24q-33 0 -58.5 24.5t-25.5 58.5z" />
<glyph unicode="&#xc5;" horiz-adv-x="1126" d="M102 51q0 11 154 482t217 659q-48 20 -77 64t-29 98q0 74 51.5 125t124.5 51q72 0 123 -51.5t51 -124.5q0 -52 -28 -94.5t-73 -63.5q6 -18 39 -115t56 -170q280 -833 280 -860q0 -25 -20 -45t-45 -20q-21 0 -39.5 13t-24.5 34l-135 416h-360q-24 -75 -70.5 -212.5 t-67.5 -203.5q-7 -22 -24 -34.5t-37 -12.5q-27 0 -46.5 20t-19.5 45zM410 580h272l-135 419zM463 1354q0 -33 23.5 -56.5t56.5 -23.5q32 0 55 24t23 56t-23 56t-55 24q-33 0 -56.5 -23.5t-23.5 -56.5z" />
<glyph unicode="&#xc6;" horiz-adv-x="843" d="M106 719q0 31 27 55l166 113l-166 110q-27 20 -27 56q0 28 19 46.5t47 18.5q30 0 174 -106v149q0 28 19 47t47 19t46.5 -19t18.5 -47v-157q138 102 168 102q28 0 47 -19t19 -47q0 -35 -29 -55l-145 -100q25 -17 73 -50.5t72 -50.5q29 -17 29 -53q0 -28 -19 -46.5 t-47 -18.5q-30 0 -168 102v-158q0 -28 -18.5 -46.5t-46.5 -18.5t-47 18.5t-19 46.5v148q-149 -105 -174 -105q-28 0 -47 19t-19 47z" />
<glyph unicode="&#xc7;" horiz-adv-x="1042" d="M100 625q0 110 25 218.5t85 213.5t146 164q88 55 181 55q91 0 174.5 -58t142.5 -143q15 -21 36 -63t21 -60q0 -27 -20 -46t-45 -19q-42 0 -62 39q-103 219 -247 219q-54 0 -107 -37q-100 -65 -149.5 -202t-49.5 -281q0 -134 52 -273.5t147 -208.5q53 -34 107 -34 q144 0 247 219q18 37 62 37q25 0 45 -19.5t20 -44.5q0 -31 -57 -125q-58 -85 -140 -141.5t-175 -57.5q-1 -15 -8.5 -50t-8.5 -50q60 29 101 29q44 0 70 -31t26 -76q0 -78 -78 -157.5t-154 -79.5q-14 0 -24 12t-10 29q0 13 10 21.5t24 10.5q51 10 103.5 61.5t52.5 102.5 q0 31 -22 31q-30 0 -85.5 -31.5t-64.5 -31.5q-17 0 -27 11t-10 29q0 25 29 179q-63 16 -107 47q-87 57 -147 162t-84.5 213t-24.5 217z" />
<glyph unicode="&#xc8;" horiz-adv-x="882" d="M109 59v1129q0 25 19 45t46 20h518q27 0 46.5 -20t19.5 -45q0 -28 -19 -47t-47 -19h-452v-389h282q26 0 46 -20t20 -45q0 -27 -19.5 -46.5t-46.5 -19.5h-282v-477h452q28 0 47 -19t19 -47q0 -25 -19.5 -45t-46.5 -20h-518q-27 0 -46 20t-19 45zM254 1470q0 20 22 36 t48 16q30 0 55 -21l178 -131q27 -14 27 -41q0 -19 -21 -35t-49 -16t-49 18l-191 140q-20 13 -20 34z" />
<glyph unicode="&#xc9;" horiz-adv-x="882" d="M109 59v1129q0 25 19 45t46 20h518q27 0 46.5 -20t19.5 -45q0 -28 -19 -47t-47 -19h-452v-389h282q26 0 46 -20t20 -45q0 -27 -19.5 -46.5t-46.5 -19.5h-282v-477h452q28 0 47 -19t19 -47q0 -25 -19.5 -45t-46.5 -20h-518q-27 0 -46 20t-19 45zM305 1339q0 27 27 41 l178 131q24 21 55 21q27 0 48.5 -15.5t21.5 -35.5q0 -21 -21 -35l-190 -139q-22 -19 -49 -19q-28 0 -49 16t-21 35z" />
<glyph unicode="&#xca;" horiz-adv-x="882" d="M109 59v1129q0 25 19 45t46 20h518q27 0 46.5 -20t19.5 -45q0 -28 -19 -47t-47 -19h-452v-389h282q26 0 46 -20t20 -45q0 -27 -19.5 -46.5t-46.5 -19.5h-282v-477h452q28 0 47 -19t19 -47q0 -25 -19.5 -45t-46.5 -20h-518q-27 0 -46 20t-19 45zM254 1362q0 7 6 17.5 t19.5 27t22 26.5t28 31t22.5 25q19 19 23 22q21 21 51 21q32 0 53 -21l25 -26q96 -101 96 -123q0 -19 -19 -33t-44 -14q-36 0 -58 22l-53 64l-57 -64q-16 -22 -52 -22q-27 0 -45 14t-18 33z" />
<glyph unicode="&#xcb;" horiz-adv-x="882" d="M109 59v1129q0 25 19 45t46 20h518q27 0 46.5 -20t19.5 -45q0 -28 -19 -47t-47 -19h-452v-389h282q26 0 46 -20t20 -45q0 -27 -19.5 -46.5t-46.5 -19.5h-282v-477h452q28 0 47 -19t19 -47q0 -25 -19.5 -45t-46.5 -20h-518q-27 0 -46 20t-19 45zM262 1384q0 33 24.5 57.5 t57.5 24.5q32 0 58 -25t26 -57q0 -33 -25.5 -57t-58.5 -24q-34 0 -58 23.5t-24 57.5zM440 1384q0 32 26 57t58 25q33 0 57.5 -24.5t24.5 -57.5q0 -34 -24 -57.5t-58 -23.5q-33 0 -58.5 24t-25.5 57z" />
<glyph unicode="&#xcc;" horiz-adv-x="544" d="M86 1468q0 20 22 36t48 16q31 0 55 -21l178 -131q27 -14 27 -41q0 -19 -21 -35t-49 -16t-49 18l-191 140q-20 13 -20 34zM92 72q0 28 19 46.5t47 18.5h41v971h-41q-28 0 -47 19t-19 47q0 25 19.5 45t46.5 20h213q25 0 45 -20t20 -45q0 -27 -20 -46.5t-45 -19.5h-41v-971 h41q25 0 45 -19t20 -46q0 -25 -20 -45.5t-45 -20.5h-213q-27 0 -46.5 20.5t-19.5 45.5z" />
<glyph unicode="&#xcd;" horiz-adv-x="544" d="M92 72q0 28 19 46.5t47 18.5h41v971h-41q-28 0 -47 19t-19 47q0 25 19.5 45t46.5 20h213q25 0 45 -20t20 -45q0 -27 -20 -46.5t-45 -19.5h-41v-971h41q25 0 45 -19t20 -46q0 -25 -20 -45.5t-45 -20.5h-213q-27 0 -46.5 20.5t-19.5 45.5zM119 1317q0 28 26 41l179 131 q23 20 55 20q27 0 48.5 -15.5t21.5 -35.5q0 -21 -21 -35l-190 -139q-21 -18 -50 -18q-28 0 -48.5 16t-20.5 35z" />
<glyph unicode="&#xce;" horiz-adv-x="544" d="M92 72q0 28 19 46.5t47 18.5h41v971h-41q-28 0 -47 19t-19 47q0 25 19.5 45t46.5 20h213q25 0 45 -20t20 -45q0 -27 -20 -46.5t-45 -19.5h-41v-971h41q25 0 45 -19t20 -46q0 -25 -20 -45.5t-45 -20.5h-213q-27 0 -46.5 20.5t-19.5 45.5zM94 1331q0 7 6 17.5t19 26.5 t23 27.5t28 30.5t23 25q1 1 9 10t13 13q20 20 51 20q33 0 53 -20l25 -27q96 -101 96 -123q0 -19 -19 -33t-44 -14q-35 0 -58 23l-53 63l-57 -63q-7 -10 -22.5 -16.5t-28.5 -6.5q-27 0 -45.5 14t-18.5 33z" />
<glyph unicode="&#xcf;" horiz-adv-x="544" d="M86 1370q0 32 24 57t58 25q32 0 57 -25.5t25 -56.5q0 -35 -24.5 -59.5t-57.5 -24.5q-35 0 -58.5 24.5t-23.5 59.5zM92 72q0 28 19 46.5t47 18.5h41v971h-41q-28 0 -47 19t-19 47q0 25 19.5 45t46.5 20h213q25 0 44 -20t19 -45q0 -27 -19 -46.5t-44 -19.5h-41v-971h41 q25 0 44 -19t19 -46q0 -25 -19 -45.5t-44 -20.5h-213q-27 0 -46.5 20.5t-19.5 45.5zM264 1370q0 31 25.5 56.5t56.5 25.5q34 0 59 -25t25 -57q0 -35 -24.5 -59.5t-59.5 -24.5q-32 0 -57 25t-25 59z" />
<glyph unicode="&#xd0;" horiz-adv-x="1101" d="M111 664q0 69 90 65v453q0 27 21.5 47t45.5 20h277q74 0 139 -35.5t111.5 -94t78.5 -122t52 -131.5q32 -117 32 -248q0 -128 -32 -245q-20 -68 -52 -131.5t-78.5 -122t-111.5 -94t-139 -35.5h-254q-12 -4 -25 -4q-25 0 -45 20t-20 45v545q-90 0 -90 68zM332 121h213 q49 0 92.5 27t74.5 71.5t52.5 92t34.5 96.5q28 95 28 210q0 116 -28 211q-13 49 -34.5 96.5t-52.5 92.5t-74.5 72.5t-92.5 27.5h-213v-389h176q28 0 46.5 -18.5t18.5 -46.5q0 -26 -19 -46t-46 -20h-176v-477z" />
<glyph unicode="&#xd1;" horiz-adv-x="937" d="M109 53v1137q0 25 19 44t46 19q39 0 57 -34l439 -881v854q0 28 18.5 46.5t46.5 18.5t47 -18.5t19 -46.5v-1135q0 -25 -19.5 -45t-46.5 -20q-35 0 -57 37q-105 213 -438 878v-854q0 -28 -19 -46.5t-47 -18.5t-46.5 18.5t-18.5 46.5zM252 1333q0 25 6.5 50t20.5 49.5 t41 39.5t63 15q24 0 43 -5.5t35 -19.5t23.5 -22.5t23.5 -28.5q27 -31 29 -31q-1 1 -0.5 20t2.5 32v4q0 23 15.5 37t43.5 14q24 0 42.5 -14.5t18.5 -34.5q0 -26 -5 -50t-17.5 -50.5t-39.5 -42t-65 -15.5q-25 0 -44 6t-36 21.5t-23.5 22.5t-22.5 28q-21 28 -25 28 q-2 0 -3.5 -10t-2.5 -25.5t-2 -19.5q-7 -45 -62 -45q-24 0 -41.5 14.5t-17.5 32.5z" />
<glyph unicode="&#xd2;" horiz-adv-x="1110" d="M102 625q0 110 24 218t83.5 213t146.5 163q86 55 183 55t180 -55q128 -86 192 -253.5t64 -340.5q0 -109 -25 -217.5t-85 -213.5t-146 -163q-85 -56 -180 -56t-183 56q-86 58 -145.5 163t-84 213.5t-24.5 217.5zM231 625q0 -142 50 -280.5t149 -203.5q46 -35 109 -35 q60 0 106 35q100 65 149.5 203t49.5 281q0 134 -52 273.5t-147 209.5q-60 35 -106 35q-49 0 -109 -35q-95 -70 -147 -209.5t-52 -273.5zM356 1481q0 20 21.5 35.5t48.5 15.5q30 0 55 -21l178 -131q27 -14 27 -41q0 -19 -21 -35t-49 -16q-27 0 -49 19l-190 139q-21 14 -21 35 z" />
<glyph unicode="&#xd3;" horiz-adv-x="1110" d="M102 625q0 110 24 218t83.5 213t146.5 163q86 55 183 55t180 -55q128 -86 192 -253.5t64 -340.5q0 -109 -25 -217.5t-85 -213.5t-146 -163q-85 -56 -180 -56t-183 56q-86 58 -145.5 163t-84 213.5t-24.5 217.5zM231 625q0 -142 50 -280.5t149 -203.5q46 -35 109 -35 q60 0 106 35q100 65 149.5 203t49.5 281q0 134 -52 273.5t-147 209.5q-60 35 -106 35q-49 0 -109 -35q-95 -70 -147 -209.5t-52 -273.5zM367 1337q0 28 26 41l178 131q24 21 56 21q27 0 48 -15.5t21 -35.5q0 -22 -20 -35l-191 -139q-22 -19 -49 -19q-28 0 -48.5 16t-20.5 35 z" />
<glyph unicode="&#xd4;" horiz-adv-x="1110" d="M102 625q0 110 24 218t83.5 213t146.5 163q86 55 183 55t180 -55q128 -86 192 -253.5t64 -340.5q0 -109 -25 -217.5t-85 -213.5t-146 -163q-85 -56 -180 -56t-183 56q-86 58 -145.5 163t-84 213.5t-24.5 217.5zM231 625q0 -142 50 -280.5t149 -203.5q46 -35 109 -35 q60 0 106 35q100 65 149.5 203t49.5 281q0 134 -52 273.5t-147 209.5q-60 35 -106 35q-49 0 -109 -35q-95 -70 -147 -209.5t-52 -273.5zM377 1343q0 7 6 17.5t19.5 27t22 26.5t28 31t22.5 25l23 23q20 20 51 20q33 0 53 -20l25 -27q96 -101 96 -123q0 -19 -19.5 -33 t-44.5 -14q-34 0 -57 23l-53 63l-57 -63q-7 -10 -23 -16.5t-29 -6.5q-27 0 -45 14t-18 33z" />
<glyph unicode="&#xd5;" horiz-adv-x="1110" d="M102 625q0 110 24 218t83.5 213t146.5 163q86 55 183 55t180 -55q128 -86 192 -253.5t64 -340.5q0 -109 -25 -217.5t-85 -213.5t-146 -163q-85 -56 -180 -56t-183 56q-86 58 -145.5 163t-84 213.5t-24.5 217.5zM231 625q0 -142 50 -280.5t149 -203.5q46 -35 109 -35 q60 0 106 35q100 65 149.5 203t49.5 281q0 134 -52 273.5t-147 209.5q-60 35 -106 35q-49 0 -109 -35q-95 -70 -147 -209.5t-52 -273.5zM336 1360q0 35 10.5 67.5t42 59t78.5 26.5q32 0 57.5 -13t36.5 -24.5t31 -37.5q27 -31 29 -31q-1 1 -0.5 19.5t2.5 31.5v4q0 23 15.5 37 t43.5 14q24 0 42.5 -14.5t18.5 -34.5q0 -26 -5 -50t-17.5 -50t-39 -41.5t-65.5 -15.5q-32 0 -59 14t-37.5 26t-30.5 37q-22 29 -24 29t-3.5 -10t-2.5 -25.5t-2 -19.5q-7 -45 -62 -45q-24 0 -41.5 14.5t-17.5 32.5z" />
<glyph unicode="&#xd6;" horiz-adv-x="1110" d="M102 625q0 110 24 218t83.5 213t146.5 163q86 55 183 55t180 -55q128 -86 192 -253.5t64 -340.5q0 -109 -25 -217.5t-85 -213.5t-146 -163q-85 -56 -180 -56t-183 56q-86 58 -145.5 163t-84 213.5t-24.5 217.5zM231 625q0 -142 50 -280.5t149 -203.5q46 -35 109 -35 q60 0 106 35q100 65 149.5 203t49.5 281q0 134 -52 273.5t-147 209.5q-60 35 -106 35q-49 0 -109 -35q-95 -70 -147 -209.5t-52 -273.5zM362 1382q0 32 25 57t59 25q31 0 56.5 -25.5t25.5 -56.5q0 -34 -25 -59t-57 -25q-35 0 -59.5 24.5t-24.5 59.5zM543 1382q0 31 25 56.5 t57 25.5q34 0 59 -25t25 -57q0 -35 -24.5 -59.5t-59.5 -24.5q-33 0 -57.5 24.5t-24.5 59.5z" />
<glyph unicode="&#xd7;" horiz-adv-x="733" d="M107 458.5q-1 25.5 16 45.5l145 143l-143 141q-17 17 -18 44t16 47q19 19 45.5 20t46.5 -16l141 -146l144 144q19 19 45 19t43 -19q20 -20 19 -48t-21 -47q-39 -41 -137 -139l139 -141q20 -20 19 -46.5t-21 -45.5q-17 -15 -43 -15t-43 17l-144 141l-141 -143 q-20 -17 -46.5 -16t-43.5 18t-18 42.5z" />
<glyph unicode="&#xd8;" horiz-adv-x="1110" d="M102 625q0 110 24 218t83.5 213t146.5 163q86 55 183 55q71 0 147 -39q12 4 21 4q28 0 45.5 -16.5t17.5 -46.5q102 -95 153.5 -247.5t51.5 -303.5q0 -109 -25 -217.5t-85 -213.5t-146 -163q-85 -56 -180 -56q-66 0 -121 25q-20 -23 -49 -23q-28 0 -47 19t-19 47q0 3 6 27 q-103 93 -155 246.5t-52 308.5zM231 625q0 -110 29.5 -221t91.5 -189l271 907q-57 21 -84 21q-49 0 -109 -35q-95 -70 -147 -209.5t-52 -273.5zM459 123q35 -17 80 -17q60 0 106 35q100 65 149.5 203t49.5 281q0 107 -27 213.5t-84 185.5q-46 -162 -250 -823z" />
<glyph unicode="&#xd9;" horiz-adv-x="1034" d="M111 344v850q0 26 19 46t46 20q26 0 46 -20.5t20 -45.5v-850q0 -113 71.5 -174t188.5 -61q118 0 189 60t71 175v850q0 25 20 45.5t45 20.5q27 0 46.5 -20.5t19.5 -45.5v-850q0 -174 -108 -270.5t-283 -96.5q-172 0 -281.5 98t-109.5 269zM338 1485q0 20 21.5 35.5 t48.5 15.5q32 0 55 -20l178 -132q27 -14 27 -41q0 -19 -21 -35t-49 -16q-27 0 -49 19l-191 139q-20 13 -20 35z" />
<glyph unicode="&#xda;" horiz-adv-x="1034" d="M111 344v850q0 26 19 46t46 20q26 0 46 -20.5t20 -45.5v-850q0 -113 71.5 -174t188.5 -61q118 0 189 60t71 175v850q0 25 20 45.5t45 20.5q27 0 46.5 -20.5t19.5 -45.5v-850q0 -174 -108 -270.5t-283 -96.5q-172 0 -281.5 98t-109.5 269zM350 1333q0 27 27 41l178 131 q25 21 55 21q27 0 48.5 -15.5t21.5 -35.5q0 -21 -21 -35l-190 -140q-21 -18 -49 -18t-49 16t-21 35z" />
<glyph unicode="&#xdb;" horiz-adv-x="1034" d="M111 344v850q0 26 19 46t46 20q26 0 46 -20.5t20 -45.5v-850q0 -113 71.5 -174t188.5 -61q118 0 189 60t71 175v850q0 25 20 45.5t45 20.5q27 0 46.5 -20.5t19.5 -45.5v-850q0 -174 -108 -270.5t-283 -96.5q-172 0 -281.5 98t-109.5 269zM326 1339q0 7 6 17.5t19.5 27 t22 26.5t28 31t22.5 25q1 1 9 10t13 13q20 20 52 20q33 0 53 -20l24 -27q97 -102 97 -123q0 -19 -19.5 -33t-44.5 -14q-34 0 -57 23l-53 63l-58 -63q-7 -10 -22.5 -16.5t-28.5 -6.5q-27 0 -45 14t-18 33z" />
<glyph unicode="&#xdc;" horiz-adv-x="1034" d="M111 344v850q0 26 19 46t46 20q26 0 46 -20.5t20 -45.5v-850q0 -113 71.5 -174t188.5 -61q118 0 189 60t71 175v850q0 25 20 45.5t45 20.5q27 0 46.5 -20.5t19.5 -45.5v-850q0 -174 -108 -270.5t-283 -96.5q-172 0 -281.5 98t-109.5 269zM322 1343q0 32 24 57t57 25 q32 0 58 -25.5t26 -56.5q0 -34 -25.5 -58.5t-58.5 -24.5q-34 0 -57.5 24t-23.5 59zM500 1343q0 31 26 56.5t58 25.5q33 0 57.5 -25.5t24.5 -56.5q0 -35 -24 -59t-58 -24q-33 0 -58.5 24.5t-25.5 58.5z" />
<glyph unicode="&#xdd;" horiz-adv-x="978" d="M100 1188q0 25 19.5 45t46.5 20q38 0 57 -36q51 -98 131 -246.5t121 -225.5q35 67 122 227.5t128 239.5q7 19 23.5 30t35.5 11q27 0 46.5 -20t19.5 -45q0 -8 -16.5 -44t-49 -98.5t-60.5 -115t-71.5 -134t-60.5 -114.5l-51 -96v-529q0 -28 -19 -46.5t-47 -18.5t-46.5 18.5 t-18.5 46.5v531q-1 2 -10 16t-13 21v-2q-82 150 -184.5 348.5t-102.5 216.5zM332 1282q0 28 26 41l179 131q25 21 55 21q26 0 48 -16t22 -36t-21 -34l-190 -140q-21 -18 -50 -18q-28 0 -48.5 16t-20.5 35z" />
<glyph unicode="&#xde;" horiz-adv-x="929" d="M109 53v1135q0 27 19 46t46 19q28 0 47 -19.5t19 -45.5v-197h192q152 0 261.5 -109.5t109.5 -263.5q0 -152 -109 -260t-262 -108h-192v-197q0 -28 -19 -46.5t-47 -18.5t-46.5 18.5t-18.5 46.5zM240 381h192q98 0 169 70t71 167q0 99 -70.5 169.5t-169.5 70.5h-192v-477z " />
<glyph unicode="&#xdf;" horiz-adv-x="884" d="M111 51v961q0 104 67.5 158.5t173.5 54.5q117 0 201 -86t84 -205q0 -122 -125 -252v2q-13 -13 -16 -10q21 -35 159 -160q51 -47 78 -78v2q76 -86 76 -192q0 -114 -78 -197.5t-192 -83.5q-77 0 -157 44.5t-142 111.5v-70q0 -25 -19.5 -44t-46.5 -19q-24 0 -43.5 19.5 t-19.5 43.5zM240 213q24 20 45 20q10 0 17.5 -2t17.5 -10t13 -11l17 -17q1 -1 12.5 -11t15.5 -13t15.5 -12.5t17.5 -13.5t18.5 -12.5t20.5 -12t20.5 -9.5t22.5 -8.5t22 -4.5t24 -2q60 0 100.5 45.5t40.5 106.5q0 57 -45 102q-16 20 -78 78q-121 118 -153 158q-26 34 -33 55 q-6 18 -6 35q0 20 10 40t19.5 31.5t33.5 36.5q27 31 39 47t26.5 46.5t14.5 58.5q0 66 -46 114t-110 48q-50 0 -81 -20.5t-31 -63.5v-799z" />
<glyph unicode="&#xe0;" d="M100 344q0 94 43.5 178t123.5 136.5t177 52.5q128 0 228 -90v14q0 25 18.5 45t44.5 20q27 0 46.5 -20t19.5 -45v-578q0 -28 -19 -46.5t-47 -18.5q-26 0 -44.5 18.5t-18.5 46.5v9q-105 -91 -228 -91q-97 0 -177 52.5t-123.5 137t-43.5 179.5zM229 344q0 -96 61.5 -168 t153.5 -72q93 0 153 71.5t60 168.5q0 96 -60.5 167t-152.5 71q-91 0 -153 -71.5t-62 -166.5zM258 942q0 20 21.5 35.5t48.5 15.5q32 0 55 -20l178 -131q27 -14 27 -41q0 -19 -21 -35t-49 -16t-49 18l-190 139q-21 14 -21 35z" />
<glyph unicode="&#xe1;" d="M100 344q0 94 43.5 178t123.5 136.5t177 52.5q128 0 228 -90v14q0 25 18.5 45t44.5 20q27 0 46.5 -20t19.5 -45v-578q0 -28 -19 -46.5t-47 -18.5q-26 0 -44.5 18.5t-18.5 46.5v9q-105 -91 -228 -91q-97 0 -177 52.5t-123.5 137t-43.5 179.5zM229 344q0 -96 61.5 -168 t153.5 -72q93 0 153 71.5t60 168.5q0 96 -60.5 167t-152.5 71q-91 0 -153 -71.5t-62 -166.5zM291 788q0 28 26 41l179 132q23 20 55 20q27 0 48.5 -15.5t21.5 -35.5q0 -21 -21 -35l-190 -139q-22 -19 -50 -19t-48.5 16t-20.5 35z" />
<glyph unicode="&#xe2;" d="M100 344q0 94 43.5 178t123.5 136.5t177 52.5q128 0 228 -90v14q0 25 18.5 45t44.5 20q27 0 46.5 -20t19.5 -45v-578q0 -28 -19 -46.5t-47 -18.5q-26 0 -44.5 18.5t-18.5 46.5v9q-105 -91 -228 -91q-97 0 -177 52.5t-123.5 137t-43.5 179.5zM229 344q0 -96 61.5 -168 t153.5 -72q93 0 153 71.5t60 168.5q0 96 -60.5 167t-152.5 71q-91 0 -153 -71.5t-62 -166.5zM281 786q0 7 6 17.5t19.5 27t22 26.5t28 31t22.5 25q1 1 9 10t13 13q20 20 52 20q33 0 53 -20l24 -27q97 -102 97 -123q0 -19 -19.5 -33t-44.5 -14q-34 0 -57 23l-53 63l-58 -63 q-7 -10 -22.5 -16.5t-28.5 -6.5q-27 0 -45 14t-18 33z" />
<glyph unicode="&#xe3;" d="M100 344q0 94 43.5 178t123.5 136.5t177 52.5q128 0 228 -90v14q0 25 18.5 45t44.5 20q27 0 46.5 -20t19.5 -45v-578q0 -28 -19 -46.5t-47 -18.5q-26 0 -44.5 18.5t-18.5 46.5v9q-105 -91 -228 -91q-97 0 -177 52.5t-123.5 137t-43.5 179.5zM229 344q0 -96 61.5 -168 t153.5 -72q93 0 153 71.5t60 168.5q0 96 -60.5 167t-152.5 71q-91 0 -153 -71.5t-62 -166.5zM242 793q0 35 10.5 67.5t42 59t78.5 26.5q24 0 43 -5.5t35 -19.5t23.5 -22.5t23.5 -28.5q26 -30 28 -30q-1 1 -0.5 19.5t2.5 31.5v4q0 23 16 37t44 14q24 0 42.5 -14.5t18.5 -34.5 q0 -26 -5 -50t-17.5 -50.5t-39.5 -42t-65 -15.5q-25 0 -44.5 6t-36.5 21t-23.5 23t-22.5 28q-22 29 -24 29q-1 0 -9 -55q-3 -21 -19 -33.5t-42 -12.5q-24 0 -41.5 15t-17.5 33z" />
<glyph unicode="&#xe4;" d="M100 344q0 94 43.5 178t123.5 136.5t177 52.5q128 0 228 -90v14q0 25 18.5 45t44.5 20q27 0 46.5 -20t19.5 -45v-578q0 -28 -19 -46.5t-47 -18.5q-26 0 -44.5 18.5t-18.5 46.5v9q-105 -91 -228 -91q-97 0 -177 52.5t-123.5 137t-43.5 179.5zM229 344q0 -96 61.5 -168 t153.5 -72q93 0 153 71.5t60 168.5q0 96 -60.5 167t-152.5 71q-91 0 -153 -71.5t-62 -166.5zM272 823q0 32 24 57t58 25q31 0 56.5 -25.5t25.5 -56.5q0 -33 -25.5 -57.5t-56.5 -24.5q-35 0 -58.5 24t-23.5 58zM449 823q0 31 24.5 56.5t56.5 25.5q33 0 57.5 -25.5t24.5 -56.5 q0 -34 -24 -58t-58 -24q-32 0 -56.5 24.5t-24.5 57.5z" />
<glyph unicode="&#xe5;" d="M100 344q0 105 54.5 196.5t144.5 135.5q-39 48 -39 112q0 74 51.5 125.5t124.5 51.5q72 0 123 -52t51 -125q0 -56 -37 -106q50 -19 99 -61v14q0 25 18.5 45t44.5 20q27 0 46.5 -20t19.5 -45v-578q0 -28 -19 -46.5t-47 -18.5q-26 0 -44.5 18.5t-18.5 46.5v9 q-105 -91 -228 -91q-97 0 -177 52.5t-123.5 137t-43.5 179.5zM229 344q0 -96 61.5 -168t153.5 -72q93 0 153 71.5t60 168.5q0 96 -60.5 167t-152.5 71q-91 0 -153 -71.5t-62 -166.5zM356 788q0 -29 18 -51t46 -28q8 2 24 2h11q25 6 42 28t17 49q0 32 -23 56t-55 24 q-33 0 -56.5 -23.5t-23.5 -56.5z" />
<glyph unicode="&#xe6;" horiz-adv-x="1527" d="M113 342q0 94 43 177.5t122.5 135.5t176.5 52q132 0 219 -84v6q0 25 19 45t44 20q27 0 46.5 -20t19.5 -45v-2q89 80 215 80q145 0 243.5 -110t98.5 -255q0 -28 -19 -47t-47 -19h-481q20 -74 75.5 -124t129.5 -50q118 0 186 95q20 30 53 30q26 0 45 -18.5t19 -44.5 q0 -13 -8 -33q-43 -75 -124 -116.5t-171 -41.5q-127 0 -215 82v-2q0 -28 -19 -46.5t-47 -18.5q-25 0 -44 19t-19 46v6q-92 -86 -219 -86q-97 0 -176.5 52.5t-122.5 137t-43 179.5zM242 342q0 -97 60 -168.5t153 -71.5q92 0 153.5 72t61.5 168q0 94 -62 165t-153 71t-152 -71 t-61 -165zM813 406h408q-19 73 -74.5 122.5t-128.5 49.5q-74 0 -129.5 -49.5t-75.5 -122.5z" />
<glyph unicode="&#xe7;" horiz-adv-x="872" d="M100 344q0 146 98 256.5t244 110.5q142 0 248 -109q19 -15 33 -40t14 -46q0 -28 -18.5 -46.5t-46.5 -18.5q-35 0 -49 22q-30 50 -78 79.5t-103 29.5q-91 0 -152 -71.5t-61 -166.5q0 -97 61 -168.5t152 -71.5q52 0 100.5 27.5t71.5 71.5v-2q20 39 60 39q28 0 47.5 -19 t19.5 -47q0 -20 -12 -35q-47 -74 -120 -118.5t-160 -45.5q-2 -13 -9 -45t-8 -49q60 29 100 29q44 0 70.5 -31t26.5 -76q0 -78 -78 -157.5t-154 -79.5q-14 0 -24.5 12t-10.5 29q0 13 10.5 22t24.5 11q51 10 103.5 61t52.5 102q0 31 -23 31q-30 0 -85 -31.5t-64 -31.5 q-17 0 -27 11.5t-10 29.5q0 29 27 172q-120 26 -195.5 129t-75.5 231z" />
<glyph unicode="&#xe8;" horiz-adv-x="923" d="M100 344q0 94 43.5 178t123.5 136.5t177 52.5t177 -52.5t123.5 -136.5t43.5 -178q0 -27 -19 -46t-46 -19h-483q19 -76 74.5 -125.5t129.5 -49.5q119 0 187 95q23 30 53 30q28 0 47 -18.5t19 -44.5q0 -11 -11 -33q-43 -77 -123 -117.5t-172 -40.5q-97 0 -177 52.5 t-123.5 137t-43.5 179.5zM240 408h409q-20 74 -75.5 124t-129.5 50q-72 0 -127.5 -50t-76.5 -124zM285 911q0 20 21.5 36t47.5 16q32 0 56 -21l178 -131q26 -13 26 -41q0 -19 -20.5 -35t-48.5 -16t-49 18l-191 140q-20 13 -20 34z" />
<glyph unicode="&#xe9;" horiz-adv-x="923" d="M100 344q0 94 43.5 178t123.5 136.5t177 52.5t177 -52.5t123.5 -136.5t43.5 -178q0 -27 -19 -46t-46 -19h-483q19 -76 74.5 -125.5t129.5 -49.5q119 0 187 95q23 30 53 30q28 0 47 -18.5t19 -44.5q0 -11 -11 -33q-43 -77 -123 -117.5t-172 -40.5q-97 0 -177 52.5 t-123.5 137t-43.5 179.5zM240 408h409q-20 74 -75.5 124t-129.5 50q-72 0 -127.5 -50t-76.5 -124zM258 774q0 28 27 41l178 131q25 21 55 21q26 0 48 -16t22 -36t-21 -34l-190 -140q-21 -18 -49 -18t-49 16t-21 35z" />
<glyph unicode="&#xea;" horiz-adv-x="923" d="M100 344q0 94 43.5 178t123.5 136.5t177 52.5t177 -52.5t123.5 -136.5t43.5 -178q0 -27 -19 -46t-46 -19h-483q19 -76 74.5 -125.5t129.5 -49.5q119 0 187 95q23 30 53 30q28 0 47 -18.5t19 -44.5q0 -11 -11 -33q-43 -77 -123 -117.5t-172 -40.5q-97 0 -177 52.5 t-123.5 137t-43.5 179.5zM240 408h409q-20 74 -75.5 124t-129.5 50q-72 0 -127.5 -50t-76.5 -124zM274 782q0 7 6 17.5t19 26.5t23 27.5t28 30.5t23 25q1 1 9 10t13 13q20 20 51 20q34 0 54 -20l24 -27q97 -102 97 -123q0 -19 -19.5 -33t-44.5 -14q-34 0 -57 23l-54 63 l-57 -63q-7 -10 -22.5 -16.5t-28.5 -6.5q-27 0 -45.5 14t-18.5 33z" />
<glyph unicode="&#xeb;" horiz-adv-x="923" d="M100 344q0 94 43.5 178t123.5 136.5t177 52.5t177 -52.5t123.5 -136.5t43.5 -178q0 -27 -19 -46t-46 -19h-483q19 -76 74.5 -125.5t129.5 -49.5q119 0 187 95q23 30 53 30q28 0 47 -18.5t19 -44.5q0 -11 -11 -33q-43 -77 -123 -117.5t-172 -40.5q-97 0 -177 52.5 t-123.5 137t-43.5 179.5zM240 408h409q-20 74 -75.5 124t-129.5 50q-72 0 -127.5 -50t-76.5 -124zM270 819q0 32 24 57t58 25q31 0 55.5 -25.5t24.5 -56.5q0 -33 -24.5 -57.5t-55.5 -24.5q-35 0 -58.5 24t-23.5 58zM446 819q0 31 25 56.5t57 25.5q33 0 57.5 -25.5 t24.5 -56.5q0 -34 -24 -58t-58 -24q-33 0 -57.5 24.5t-24.5 57.5z" />
<glyph unicode="&#xec;" horiz-adv-x="376" d="M29 901q0 20 21 35.5t48 15.5q33 0 56 -20l178 -131q26 -13 26 -41q0 -19 -20.5 -35t-48.5 -16t-49 18l-191 139q-20 13 -20 35zM115 53v576q0 26 18 45.5t45 19.5q25 0 44.5 -20t19.5 -45v-576q0 -25 -19.5 -45t-44.5 -20q-27 0 -45 19.5t-18 45.5z" />
<glyph unicode="&#xed;" horiz-adv-x="376" d="M76 788q0 28 26 41l179 132q23 20 55 20q27 0 48.5 -15.5t21.5 -35.5q0 -21 -21 -35l-190 -139q-22 -19 -50 -19t-48.5 16t-20.5 35zM121 53v576q0 25 18.5 45t44.5 20q25 0 45.5 -20t20.5 -45v-576q0 -25 -20.5 -45t-45.5 -20q-26 0 -44.5 20t-18.5 45z" />
<glyph unicode="&#xee;" horiz-adv-x="376" d="M8 770q0 7 6 17.5t19.5 27t22 26.5t28 31t22.5 25l23 23q20 20 51 20q33 0 53 -20l25 -27q96 -101 96 -123q0 -19 -19 -33t-44 -14q-36 0 -58 22l-53 64l-57 -64q-16 -22 -51 -22q-27 0 -45.5 14t-18.5 33zM117 53v576q0 25 19 45t46 20q24 0 44 -20t20 -45v-576 q0 -25 -20 -45t-44 -20q-27 0 -46 20t-19 45z" />
<glyph unicode="&#xef;" horiz-adv-x="376" d="M10 799q0 31 24.5 56.5t57.5 25.5q32 0 57 -25.5t25 -56.5q0 -33 -24.5 -57.5t-57.5 -24.5q-34 0 -58 24t-24 58zM117 53v576q0 25 18.5 45t44.5 20q25 0 45.5 -20t20.5 -45v-576q0 -25 -20.5 -45t-45.5 -20q-26 0 -44.5 20t-18.5 45zM186 799q0 31 25.5 56.5t56.5 25.5 q33 0 57.5 -25.5t24.5 -56.5q0 -34 -24 -58t-58 -24q-31 0 -56.5 24.5t-25.5 57.5z" />
<glyph unicode="&#xf0;" horiz-adv-x="944" d="M111 342q0 94 43 177.5t122.5 135.5t176.5 52q115 0 204 -70q-33 223 -139 342q-4 -4 -20.5 -20t-24.5 -23.5t-24 -22t-26 -22t-23 -16.5t-22.5 -13t-17.5 -4q-26 0 -44.5 19t-18.5 47q0 11 9 26t30.5 36.5t33 32t39.5 34.5q6 6 9 8q-58 28 -113 37q-3 0 -12.5 1t-13.5 1 q-24 0 -31 2q-60 8 -60 63q0 25 19 45.5t45 20.5q147 0 268 -80q76 76 109 76q26 0 44.5 -20t18.5 -44q0 -40 -78 -100l11.5 -11.5t28 -36.5t39 -64t40.5 -95t37.5 -128t24 -165.5t4.5 -204.5q-5 -155 -102 -270t-244 -115t-244.5 110t-97.5 259zM240 342q0 -97 61 -168.5 t152 -71.5q96 0 155.5 73t59.5 173q0 93 -61.5 161.5t-153.5 68.5q-91 0 -152 -71t-61 -165z" />
<glyph unicode="&#xf1;" horiz-adv-x="831" d="M109 55v580q0 28 18.5 46.5t44.5 18.5q24 0 42.5 -15.5t23.5 -39.5q81 68 182 68q129 0 205.5 -94.5t76.5 -223.5v-338q0 -27 -20 -46t-45 -19q-27 0 -45.5 19t-18.5 46v338q0 78 -40.5 133.5t-112.5 55.5q-93 0 -137.5 -75t-44.5 -190v-264q0 -28 -19 -46.5t-47 -18.5 q-26 0 -44.5 18.5t-18.5 46.5zM205 819q0 25 6.5 50t20.5 49.5t41 39.5t63 15q24 0 43 -5.5t35 -19.5t23.5 -22.5t23.5 -28.5q27 -31 28 -31q-1 0 0 19t3 33v4q0 23 15.5 37t43.5 14q24 0 42.5 -14.5t18.5 -34.5q0 -26 -5 -50t-17.5 -50.5t-39.5 -42t-65 -15.5 q-25 0 -44.5 6t-36.5 21t-23.5 23t-22.5 28q-21 28 -24 28q-2 0 -3.5 -10t-2.5 -25.5t-2 -19.5q-7 -45 -62 -45q-24 0 -41.5 14.5t-17.5 32.5z" />
<glyph unicode="&#xf2;" horiz-adv-x="923" d="M100 346q0 94 43.5 178t123.5 136.5t177 52.5t177 -52.5t123.5 -136.5t43.5 -178q0 -149 -98.5 -259t-245.5 -110t-245.5 110t-98.5 259zM229 346q0 -96 61.5 -168t153.5 -72q93 0 153 71.5t60 168.5q0 94 -60.5 165t-152.5 71q-91 0 -153 -71t-62 -165zM272 944 q0 20 21.5 35.5t48.5 15.5q32 0 55 -20l178 -131q27 -14 27 -41q0 -19 -21 -35t-49 -16t-49 18l-190 139q-21 14 -21 35z" />
<glyph unicode="&#xf3;" horiz-adv-x="923" d="M100 346q0 94 43.5 178t123.5 136.5t177 52.5t177 -52.5t123.5 -136.5t43.5 -178q0 -149 -98.5 -259t-245.5 -110t-245.5 110t-98.5 259zM229 346q0 -96 61.5 -168t153.5 -72q93 0 153 71.5t60 168.5q0 94 -60.5 165t-152.5 71q-91 0 -153 -71t-62 -165zM244 799 q0 28 26 41l179 131q23 20 55 20q27 0 48 -15.5t21 -35.5q0 -22 -20 -35l-191 -139q-21 -18 -49 -18t-48.5 16t-20.5 35z" />
<glyph unicode="&#xf4;" horiz-adv-x="923" d="M100 346q0 94 43.5 178t123.5 136.5t177 52.5t177 -52.5t123.5 -136.5t43.5 -178q0 -149 -98.5 -259t-245.5 -110t-245.5 110t-98.5 259zM229 346q0 -96 61.5 -168t153.5 -72q93 0 153 71.5t60 168.5q0 94 -60.5 165t-152.5 71q-91 0 -153 -71t-62 -165zM274 793 q0 7 6 17.5t19 26.5t23 27.5t28 30.5t23 25l6.5 6.5t8 8.5t7.5 7q21 21 51 21q13 0 29.5 -6.5t24.5 -14.5l24 -27q97 -102 97 -122q0 -19 -19.5 -33.5t-44.5 -14.5q-34 0 -57 23l-54 63l-57 -63q-7 -10 -22.5 -16.5t-28.5 -6.5q-27 0 -45.5 14.5t-18.5 33.5z" />
<glyph unicode="&#xf5;" horiz-adv-x="923" d="M100 346q0 94 43.5 178t123.5 136.5t177 52.5t177 -52.5t123.5 -136.5t43.5 -178q0 -149 -98.5 -259t-245.5 -110t-245.5 110t-98.5 259zM229 346q0 -96 61.5 -168t153.5 -72q93 0 153 71.5t60 168.5q0 94 -60.5 165t-152.5 71q-91 0 -153 -71t-62 -165zM240 797 q0 35 10.5 67.5t42 59t78.5 26.5q24 0 43 -5.5t35 -19.5t23.5 -22.5t23.5 -28.5q26 -30 28 -30q-1 1 -0.5 19.5t2.5 31.5v4q0 23 16 37t44 14q24 0 42.5 -14.5t18.5 -34.5q0 -26 -5 -50t-17.5 -50.5t-39.5 -42t-65 -15.5q-25 0 -44.5 6t-36.5 21t-23.5 23t-22.5 28 q-22 29 -24 29q-1 0 -9 -55q-7 -45 -61 -45q-24 0 -41.5 14.5t-17.5 32.5z" />
<glyph unicode="&#xf6;" horiz-adv-x="923" d="M100 346q0 94 43.5 178t123.5 136.5t177 52.5t177 -52.5t123.5 -136.5t43.5 -178q0 -149 -98.5 -259t-245.5 -110t-245.5 110t-98.5 259zM229 346q0 -96 61.5 -168t153.5 -72q93 0 153 71.5t60 168.5q0 94 -60.5 165t-152.5 71q-91 0 -153 -71t-62 -165zM279 819 q0 32 23.5 57t57.5 25q31 0 55.5 -25.5t24.5 -56.5q0 -33 -24.5 -57.5t-55.5 -24.5q-35 0 -58 24t-23 58zM455 819q0 31 25 56.5t57 25.5q33 0 57 -25t24 -57q0 -34 -23.5 -58t-57.5 -24q-33 0 -57.5 24.5t-24.5 57.5z" />
<glyph unicode="&#xf7;" horiz-adv-x="743" d="M106 653q0 26 19 45t47 19h375q26 0 43.5 -18.5t17.5 -45.5q0 -26 -17.5 -45.5t-43.5 -19.5h-375q-27 0 -46.5 20t-19.5 45zM276 492q0 31 24.5 56t57.5 25q32 0 57 -25t25 -56q0 -33 -24.5 -57.5t-57.5 -24.5q-34 0 -58 24t-24 58zM276 811q0 31 24.5 56.5t57.5 25.5 q32 0 57 -25.5t25 -56.5q0 -33 -24.5 -57.5t-57.5 -24.5q-34 0 -58 24t-24 58z" />
<glyph unicode="&#xf8;" horiz-adv-x="931" d="M100 346q0 94 43.5 178t123.5 136.5t177 52.5q101 0 183 -60q39 49 71 49q26 0 45 -19t19 -46q0 -33 -43 -76q67 -98 67 -215q0 -95 -43 -179.5t-122.5 -137t-176.5 -52.5t-180 58q-41 -51 -74 -51q-27 0 -46 19t-19 44q0 24 43 78q-68 104 -68 221zM229 346 q0 -54 29 -121q51 60 145 166.5t142 163.5q-56 29 -101 29q-91 0 -153 -71.5t-62 -166.5zM346 133q52 -27 98 -27q93 0 153 71.5t60 168.5q0 64 -26 115z" />
<glyph unicode="&#xf9;" horiz-adv-x="831" d="M98 291v338q0 25 19.5 45t46.5 20q26 0 44.5 -20t18.5 -45v-338q0 -78 41 -134.5t113 -56.5q182 0 182 314v215q0 25 19 45t45 20q25 0 45 -20t20 -45v-580q0 -27 -19.5 -45t-45.5 -18q-25 0 -43.5 17t-20.5 40q-82 -72 -182 -72q-130 0 -206.5 94.5t-76.5 225.5z M199 895q0 20 21 35.5t48 15.5q33 0 56 -20l178 -131q26 -13 26 -41q0 -20 -20.5 -36t-48.5 -16q-27 0 -49 19l-191 139q-20 13 -20 35z" />
<glyph unicode="&#xfa;" horiz-adv-x="831" d="M98 291v338q0 25 19.5 45t46.5 20q26 0 44.5 -20t18.5 -45v-338q0 -78 41 -134.5t113 -56.5q182 0 182 314v215q0 25 19 45t45 20q25 0 45 -20t20 -45v-580q0 -27 -19.5 -45t-45.5 -18q-25 0 -43.5 17t-20.5 40q-82 -72 -182 -72q-130 0 -206.5 94.5t-76.5 225.5z M264 754q0 28 27 41l178 131q23 20 55 20q27 0 48.5 -15.5t21.5 -35.5q0 -21 -21 -35l-190 -139q-22 -19 -49 -19q-28 0 -49 16.5t-21 35.5z" />
<glyph unicode="&#xfb;" horiz-adv-x="831" d="M98 291v338q0 25 19.5 45t46.5 20q26 0 44.5 -20t18.5 -45v-338q0 -78 41 -134.5t113 -56.5q182 0 182 314v215q0 25 19 45t45 20q25 0 45 -20t20 -45v-580q0 -27 -19.5 -45t-45.5 -18q-25 0 -43.5 17t-20.5 40q-82 -72 -182 -72q-130 0 -206.5 94.5t-76.5 225.5z M225 788q0 7 6 17.5t19 26.5t23 27.5t28 30.5t23 25q1 1 9 10t13 13q20 20 51 20q34 0 54 -20l24 -27q96 -101 96 -123q0 -19 -19 -33t-44 -14q-34 0 -57 23l-54 63l-57 -63q-7 -10 -22.5 -16.5t-28.5 -6.5q-27 0 -45.5 14t-18.5 33z" />
<glyph unicode="&#xfc;" horiz-adv-x="831" d="M98 291v338q0 25 19.5 45t46.5 20q26 0 44.5 -20t18.5 -45v-338q0 -78 41 -134.5t113 -56.5q182 0 182 314v215q0 25 19 45t45 20q25 0 45 -20t20 -45v-580q0 -27 -19.5 -45t-45.5 -18q-25 0 -43.5 17t-20.5 40q-82 -72 -182 -72q-130 0 -206.5 94.5t-76.5 225.5z M221 793q0 31 24.5 56t57.5 25q32 0 57 -25t25 -56q0 -33 -24.5 -57.5t-57.5 -24.5q-34 0 -58 24t-24 58zM397 793q0 31 25.5 56t56.5 25q33 0 57.5 -25t24.5 -56q0 -34 -24 -58t-58 -24q-31 0 -56.5 24.5t-25.5 57.5z" />
<glyph unicode="&#xfd;" horiz-adv-x="835" d="M98 635q0 28 19 46.5t47 18.5q18 0 34.5 -12.5t24.5 -28.5q144 -348 183 -442q10 26 76 188.5t98 251.5v-2q7 21 25 33t36 12q28 0 47 -18.5t19 -46.5q0 -11 -173 -458t-202 -517v2q-6 -17 -23 -29t-37 -12q-24 0 -44.5 20.5t-20.5 43.5q0 18 14 56.5t42 107t40 98.5 q38 94 39 96q-39 91 -141.5 338.5t-102.5 253.5zM262 764q0 28 27 41l178 131q23 20 55 20q27 0 48.5 -15.5t21.5 -35.5q0 -21 -21 -35l-190 -139q-21 -18 -49 -18t-49 16t-21 35z" />
<glyph unicode="&#xfe;" d="M111 -309v1464q0 26 18.5 45t44.5 19q28 0 47 -19t19 -45v-537q101 91 227 91q97 0 177 -52.5t123.5 -136.5t43.5 -178q0 -95 -43.5 -179.5t-123.5 -137t-177 -52.5q-137 0 -227 90v-372q0 -25 -19.5 -44.5t-46.5 -19.5q-26 0 -44.5 19.5t-18.5 44.5zM252 342 q0 -96 61.5 -168t153.5 -72q91 0 153 72.5t62 167.5t-62 166.5t-153 71.5q-93 0 -154 -71.5t-61 -166.5z" />
<glyph unicode="&#xff;" horiz-adv-x="835" d="M98 635q0 28 19 46.5t47 18.5q18 0 34.5 -12.5t24.5 -28.5q144 -348 183 -442q10 26 76 188.5t98 251.5v-2q7 21 25 33t36 12q28 0 47 -18.5t19 -46.5q0 -11 -173 -458t-202 -517v2q-6 -17 -23 -29t-37 -12q-24 0 -44.5 20.5t-20.5 43.5q0 18 14 56.5t42 107t40 98.5 q38 94 39 96q-39 91 -141.5 338.5t-102.5 253.5zM221 793q0 31 24.5 56t57.5 25q32 0 57 -25t25 -56q0 -33 -24.5 -57.5t-57.5 -24.5q-34 0 -58 24t-24 58zM399 793q0 31 24.5 56t55.5 25q34 0 58 -24.5t24 -56.5q0 -34 -23.5 -58t-58.5 -24q-31 0 -55.5 24.5t-24.5 57.5z " />
<glyph unicode="&#x152;" horiz-adv-x="1677" d="M119 643q0 160 68.5 330t187.5 260q85 55 180 55q176 0 303 -178v74q0 25 19.5 45t46.5 20h518q25 0 45 -20t20 -45q0 -27 -20 -46.5t-45 -19.5h-453v-387h281q27 0 46 -20t19 -45q0 -28 -18.5 -47t-46.5 -19h-283v-422l2 -53h453q25 0 45 -19.5t20 -46.5q0 -25 -20 -45 t-45 -20h-518q-27 0 -46.5 20t-19.5 45v115q-124 -180 -303 -180q-95 0 -180 55q-119 90 -187.5 262t-68.5 332zM250 643q0 -86 20.5 -175.5t66.5 -174.5t109 -133q60 -35 109 -35q70 0 130 49t96 122.5t56.5 152t20.5 145.5q0 105 -6 158v-2q-8 64 -30 131.5t-57.5 131.5 t-90.5 105t-119 41q-49 0 -109 -35q-63 -48 -109 -133t-66.5 -174t-20.5 -174z" />
<glyph unicode="&#x153;" horiz-adv-x="1540" d="M121 340q0 94 43.5 178t123.5 136.5t177 52.5q81 0 155 -43t121 -111q47 73 119 114.5t158 41.5q97 0 177 -52.5t123.5 -136.5t43.5 -178q0 -25 -20.5 -45.5t-45.5 -20.5h-481q19 -73 74.5 -122.5t128.5 -49.5q123 0 186 93l-2 -2q19 32 55 32q27 0 45.5 -18.5 t18.5 -44.5q0 -23 -8 -35v2q-44 -75 -124 -115.5t-171 -40.5q-79 0 -153.5 42.5t-123.5 109.5q-47 -72 -119 -113t-157 -41q-147 0 -245.5 110t-98.5 257zM250 340q0 -95 61 -166.5t154 -71.5q94 0 152.5 71t58.5 169q0 94 -60 165t-151 71q-93 0 -154 -71.5t-61 -166.5z M815 406h408q-19 76 -75 125t-130 49q-72 0 -127.5 -50t-75.5 -124z" />
<glyph unicode="&#x178;" horiz-adv-x="978" d="M100 1188q0 25 19.5 45t46.5 20q38 0 57 -36q51 -98 131 -246.5t121 -225.5q35 67 122 227.5t128 239.5q7 19 23.5 30t35.5 11q27 0 46.5 -20t19.5 -45q0 -8 -16.5 -44t-49 -98.5t-60.5 -115t-71.5 -134t-60.5 -114.5l-51 -96v-529q0 -28 -19 -46.5t-47 -18.5t-46.5 18.5 t-18.5 46.5v531q-1 2 -10 16t-13 21v-2q-82 150 -184.5 348.5t-102.5 216.5zM301 1337q0 32 25 57t59 25q31 0 56.5 -25.5t25.5 -56.5q0 -34 -25 -59t-57 -25q-35 0 -59.5 24.5t-24.5 59.5zM481 1337q0 31 25 56.5t57 25.5q34 0 58 -25t24 -57q0 -35 -23.5 -59.5 t-58.5 -24.5q-33 0 -57.5 24.5t-24.5 59.5z" />
<glyph unicode="&#x2c6;" horiz-adv-x="583" d="M119 1063q0 7 6 17.5t19.5 27t22 26.5t28 31t22.5 25q19 19 23 22q21 21 51 21q32 0 53 -21l25 -26q96 -101 96 -123q0 -19 -19.5 -33t-44.5 -14q-35 0 -57 22l-53 64l-58 -64q-16 -22 -51 -22q-27 0 -45 14t-18 33z" />
<glyph unicode="&#x2dc;" horiz-adv-x="671" d="M127 1090q0 35 10.5 67.5t42 59t78.5 26.5q24 0 43 -5.5t35 -19.5t23.5 -22.5t23.5 -28.5q26 -30 29 -30q-1 1 -0.5 19.5t2.5 31.5v4q0 23 15.5 37t43.5 14q24 0 43 -14.5t19 -34.5q0 -26 -5 -50t-17.5 -50.5t-39.5 -42t-65 -15.5q-25 0 -44.5 6t-36.5 21t-23.5 23 t-22.5 28q-22 29 -25 29q-2 0 -3.5 -10.5t-2.5 -26t-2 -19.5q-7 -45 -62 -45q-24 0 -41.5 15t-17.5 33z" />
<glyph unicode="&#x2000;" horiz-adv-x="768" />
<glyph unicode="&#x2001;" horiz-adv-x="1536" />
<glyph unicode="&#x2002;" horiz-adv-x="768" />
<glyph unicode="&#x2003;" horiz-adv-x="1536" />
<glyph unicode="&#x2004;" horiz-adv-x="512" />
<glyph unicode="&#x2005;" horiz-adv-x="384" />
<glyph unicode="&#x2006;" horiz-adv-x="256" />
<glyph unicode="&#x2007;" horiz-adv-x="256" />
<glyph unicode="&#x2008;" horiz-adv-x="192" />
<glyph unicode="&#x2009;" horiz-adv-x="307" />
<glyph unicode="&#x200a;" horiz-adv-x="85" />
<glyph unicode="&#x2010;" horiz-adv-x="743" d="M106 653q0 26 19 45t47 19h375q26 0 43.5 -18.5t17.5 -45.5q0 -26 -17.5 -45.5t-43.5 -19.5h-375q-27 0 -46.5 20t-19.5 45z" />
<glyph unicode="&#x2011;" horiz-adv-x="743" d="M106 653q0 26 19 45t47 19h375q26 0 43.5 -18.5t17.5 -45.5q0 -26 -17.5 -45.5t-43.5 -19.5h-375q-27 0 -46.5 20t-19.5 45z" />
<glyph unicode="&#x2012;" horiz-adv-x="743" d="M106 653q0 26 19 45t47 19h375q26 0 43.5 -18.5t17.5 -45.5q0 -26 -17.5 -45.5t-43.5 -19.5h-375q-27 0 -46.5 20t-19.5 45z" />
<glyph unicode="&#x2013;" horiz-adv-x="985" d="M111 653q0 27 18.5 45.5t46.5 18.5h596q25 0 45.5 -19t20.5 -45q0 -27 -20 -46t-46 -19h-596q-28 0 -46.5 18.5t-18.5 46.5z" />
<glyph unicode="&#x2014;" horiz-adv-x="1220" d="M115 653q0 27 18.5 45.5t46.5 18.5h815q28 0 47 -19t19 -45q0 -28 -19 -46.5t-47 -18.5h-815q-28 0 -46.5 18.5t-18.5 46.5z" />
<glyph unicode="&#x2018;" horiz-adv-x="397" d="M111 991v15q-2 47 37 133t79 86q28 0 46 -20.5t18 -51.5q-37 -69 -43 -102q24 -21 24 -58q0 -34 -23 -58t-56 -24t-56 23t-26 57z" />
<glyph unicode="&#x2019;" horiz-adv-x="397" d="M113 985q35 67 41 100q-25 25 -25 58q0 34 25 58t57 24t55.5 -23t26.5 -57v-10q2 -46 -38 -135t-81 -89q-26 0 -43.5 21t-17.5 53z" />
<glyph unicode="&#x201a;" horiz-adv-x="397" d="M102 -84q35 71 41 102q-24 24 -24 58q0 31 25.5 56.5t56.5 25.5t55 -24t27 -54v-17q0 -48 -39.5 -133.5t-79.5 -85.5q-26 0 -44 20.5t-18 51.5z" />
<glyph unicode="&#x201c;" horiz-adv-x="602" d="M117 991v13q-2 46 37 133.5t79 87.5q28 0 46 -20.5t18 -51.5q-37 -69 -41 -102q25 -25 25 -58q0 -34 -24 -58t-58 -24q-33 0 -56 23t-26 57zM301 981v10q-2 46 37.5 134.5t79.5 88.5q28 0 45.5 -20.5t17.5 -52.5q-37 -68 -43 -101q25 -22 25 -57q0 -34 -24 -58t-56 -24 q-33 0 -56 23t-26 57z" />
<glyph unicode="&#x201d;" horiz-adv-x="602" d="M115 985q37 67 43 100q-25 22 -25 58q0 34 24 58t56 24q33 0 56 -23t26 -57v-10q2 -46 -37.5 -135t-79.5 -89q-28 0 -45.5 21t-17.5 53zM299 973q37 69 41 102q-25 25 -25 58q0 34 24 57.5t58 23.5q33 0 56 -22.5t26 -56.5v-13q2 -46 -37.5 -133.5t-79.5 -87.5 q-28 0 -45.5 20.5t-17.5 51.5z" />
<glyph unicode="&#x201e;" horiz-adv-x="614" d="M104 -84q37 71 43 102q-24 21 -24 58q0 31 24.5 56.5t55.5 25.5q32 0 55.5 -23.5t26.5 -54.5v-17q0 -48 -38.5 -133.5t-78.5 -85.5q-28 0 -46 20.5t-18 51.5zM317 -90q35 69 41 102q-24 24 -24 58q0 33 25.5 57.5t56.5 24.5q32 0 55.5 -23t26.5 -57v-11q2 -46 -38 -134.5 t-81 -88.5q-26 0 -44 20.5t-18 51.5z" />
<glyph unicode="&#x2022;" horiz-adv-x="729" d="M106 653q0 105 70 185t174 80q107 0 176.5 -80t69.5 -185t-69.5 -184.5t-176.5 -79.5q-104 0 -174 79.5t-70 184.5z" />
<glyph unicode="&#x2026;" horiz-adv-x="1077" d="M113 74q0 32 24 56t58 24q31 0 56 -24t25 -56q0 -33 -25 -57.5t-56 -24.5q-34 0 -58 24t-24 58zM436 74q0 31 25.5 56.5t56.5 25.5q32 0 57 -25.5t25 -56.5t-25 -56.5t-57 -25.5q-31 0 -56.5 25.5t-25.5 56.5zM754 74q0 31 25 56.5t57 25.5q33 0 57.5 -25.5t24.5 -56.5 t-24.5 -56.5t-57.5 -25.5q-32 0 -57 25.5t-25 56.5z" />
<glyph unicode="&#x202f;" horiz-adv-x="307" />
<glyph unicode="&#x2039;" horiz-adv-x="485" d="M102 336v8q0 15 7 27l133 286l-2 -2q19 43 61 43q25 0 44.5 -20t19.5 -45q0 -8 -6.5 -26.5t-20.5 -49.5t-24 -52.5t-30 -63.5t-26 -54l-22 -47l24 -53v2q9 -19 26.5 -55.5t29 -61t24 -53t19 -46.5t6.5 -26q0 -26 -19.5 -44.5t-44.5 -18.5q-45 0 -61 39l2 -3l-133 289v-2 q-7 14 -7 29z" />
<glyph unicode="&#x203a;" horiz-adv-x="485" d="M102 47q0 23 131 293q-131 262 -131 293q0 25 19 45t45 20q15 0 31.5 -11.5t25.5 -27.5l139 -294q3 -18 3 -25q0 -10 -3 -25l-139 -297q-18 -34 -57 -34q-26 0 -45 18.5t-19 44.5z" />
<glyph unicode="&#x205f;" horiz-adv-x="384" />
<glyph unicode="&#x20ac;" horiz-adv-x="960" d="M74 592q0 59 57 63q-57 7 -57 66q0 67 96 63q15 81 47 159t81.5 148t123.5 113t160 43q68 0 135 -31t112 -83q21 -21 21 -48t-19 -46t-45 -19q-8 0 -14.5 1.5t-12.5 5.5t-9.5 7t-10.5 9.5t-10 9.5q-81 65 -147 65q-56 0 -104.5 -31t-82 -82t-56.5 -106.5t-36 -114.5h295 q25 0 44.5 -18.5t19.5 -44.5q0 -25 -19.5 -44.5t-42.5 -21.5q24 -2 43 -21t19 -42q0 -27 -19.5 -46.5t-44.5 -19.5h-313q8 -71 29 -141.5t55.5 -137.5t90 -109t122.5 -42q30 0 62 14t45.5 23.5t39.5 30.5q2 2 8.5 7.5t8.5 7.5t7.5 6t9.5 5.5t10 3t13 1.5q26 0 45 -19.5 t19 -44.5q0 -23 -16 -43q-45 -53 -114.5 -87t-137.5 -34q-79 0 -147.5 36t-115.5 93.5t-82.5 132.5t-55 148.5t-27.5 146.5q-80 0 -80 68z" />
<glyph unicode="&#x2122;" horiz-adv-x="1179" d="M141 1198q0 12 8.5 20.5t20.5 8.5h313q12 0 20.5 -8.5t8.5 -20.5q0 -11 -8.5 -19t-20.5 -8h-127v-563q0 -10 -9 -19t-19 -9q-12 0 -20.5 8.5t-8.5 19.5v563h-129q-12 0 -20.5 8t-8.5 19zM545 608v598q0 12 8.5 20.5t19.5 8.5q9 0 18.5 -7t12.5 -16l189 -514l190 519 q7 18 27 18q12 0 20 -8.5t8 -20.5v-598q0 -12 -8 -20t-20 -8q-11 0 -20 8t-9 20v441l-160 -439q0 -1 -2.5 -6.5t-3 -6.5t-3 -5t-4.5 -5t-6 -2t-9 -1q-20 0 -27 20l-164 445v-441q0 -12 -8.5 -20t-20.5 -8q-11 0 -19.5 8t-8.5 20z" />
<glyph unicode="&#x25fc;" horiz-adv-x="696" d="M0 0v696h696v-696h-696z" />
<glyph unicode="&#xfb01;" horiz-adv-x="1150" d="M100 659q0 28 19 47t45 19h84v270q0 113 66.5 174.5t181.5 61.5q61 0 137.5 -36.5t105.5 -86.5v2q11 -22 11 -39q0 -25 -19 -44t-45 -19q-27 0 -57 30v-2q-66 66 -131 66q-51 0 -86 -23.5t-35 -70.5v-283h153q25 0 44.5 -19.5t19.5 -46.5q0 -26 -19.5 -44.5t-44.5 -18.5 h-153v-545q0 -25 -19.5 -44t-46.5 -19q-26 0 -44.5 19t-18.5 44v545h-84q-26 0 -45 18.5t-19 44.5zM862 842q0 34 23.5 58t58.5 24q31 0 55.5 -24.5t24.5 -57.5q0 -32 -24.5 -56t-55.5 -24q-35 0 -58.5 23.5t-23.5 56.5zM879 53v576q0 25 19 45t46 20q24 0 44 -20t20 -45 v-576q0 -25 -20 -45t-44 -20q-27 0 -46 20t-19 45z" />
</font>
</defs>
</svg>
